SplineFontDB: 3.0
FontName: InconsolataLGC-Bold-Italic
FullName: Inconsolata LGC Bold Italic
FamilyName: Inconsolata LGC
Weight: Bold-Italic
Copyright: Created by Raph Levien using his own tools and FontForge. Copyright 2006 Raph Levien. Released under the SIL Open Font License, http://scripts.sil.org/OFL.\n\nHellenisation of the Roman font, by Dimosthenis Kaponis, using FontForge. Hellenic glyphs Copyright 2010-2012 Dimosthenis Kaponis. Released under the SIL Open Font License, http://scripts.sil.org/OFL.\n\nCyrillic glyphs added by MihailJP, using FontForge. Cyrillic glyphs Copyright 2012 MihailJP. Released under the SIL Open Font License, http://scripts.sil.org/OFL.\n\nEmboldened and italicized by MihailJP.
UComments: "2005-8-26: Created." 
Version: 1.1.0
ItalicAngle: -10
UnderlinePosition: -100
UnderlineWidth: 50
Ascent: 820
Descent: 180
LayerCount: 2
Layer: 0 0 "Back"  1
Layer: 1 0 "Fore"  0
XUID: [1021 77 1780377399 11264577]
FSType: 8
OS2Version: 0
OS2_WeightWidthSlopeOnly: 0
OS2_UseTypoMetrics: 0
CreationTime: 1161020814
ModificationTime: 1335806147
PfmFamily: 17
TTFWeight: 700
TTFWidth: 5
LineGap: 200
VLineGap: 0
Panose: 2 11 8 9 3 0 3 0 0 0
OS2TypoAscent: 0
OS2TypoAOffset: 1
OS2TypoDescent: 0
OS2TypoDOffset: 1
OS2TypoLinegap: 0
OS2WinAscent: 0
OS2WinAOffset: 1
OS2WinDescent: 0
OS2WinDOffset: 1
HheadAscent: 0
HheadAOffset: 1
HheadDescent: 0
HheadDOffset: 1
OS2Vendor: 'PfEd'
Lookup: 1 0 0 "Macedonian-Serbian Italic"  {"Macedonian-Serbian Italic subtable" ("mkd" ) } ['locl' ('cyrl' <'MKD ' 'SRB ' > ) ]
MarkAttachClasses: 1
DEI: 91125
LangName: 1033 
Encoding: UnicodeBmp
UnicodeInterp: none
NameList: Adobe Glyph List
DisplaySize: -72
AntiAlias: 1
FitToEm: 1
WinInfo: 64 8 2
BeginPrivate: 6
BlueValues 31 [-14 0 529 542 722 730 749 777]
OtherBlues 11 [-201 -193]
StemSnapH 16 [20 63 68 72 79]
StdHW 4 [68]
StemSnapV 7 [77 84]
StdVW 4 [84]
EndPrivate
Grid
-1000 666.743 m 0
 2000 666.743 l 0
-1000 308 m 0
 2000 308 l 0
-1000 1054 m 0
 2000 1054 l 0
-1000 723 m 0

StartChar: a
Encoding: 97 97 0
Width: 600
Flags: W
TeX: 97 0
LayerCount: 2
Fore
SplineSet
574.701 29.2096 m 0
 566.718 0.0171795 l 1
 449.272 -5.60859 l 1
 446.873 7.24832 l 0
 446.686 8.24702 439.063 49.7563 443.625 121.998 c 1
 367.489 -4.93543 271.763 -11.7422 202.842 -11.7422 c 0
 189.723 -11.7422 177.185 -10.8097 165.321 -8.75352 c 0
 93.5048 3.03683 54.3854 54.6862 72.7024 153.084 c 0
 117.688 394.756 341.917 530 452.046 530 c 0
 601.174 530 569.606 501.104 618.701 488.833 c 0
 641.315 483.181 l 1
 626.466 466.101 l 1
 623.775 462.656 612.184 437.965 607.536 413.017 c 0
 585.626 295.413 583.139 278.059 561.377 160.311 c 1
 548.826 92.9434 566.31 46.5681 574.701 29.2096 c 0
456.181 438.055 m 0
 388.704 438.055 215.889 322.699 185.228 162.676 c 0
 183.974 156.13 183.534 150.722 183.521 145.142 c 0
 183.427 106.595 208.76 91.8096 220.549 91.8096 c 0
 309.958 91.8096 403.59 165.352 452.108 256.464 c 0
 464.279 279.317 483.035 329.533 496.693 396.497 c 0
 503.23 428.544 l 1
 497.993 432.117 485.57 438.055 456.181 438.055 c 0
EndSplineSet
EndChar

StartChar: c
Encoding: 99 99 1
Width: 600
Flags: W
TeX: 99 0
LayerCount: 2
Fore
SplineSet
286.078 -9.01866 m 0
 154.479 12.6742 80.6326 125.956 106.991 267.693 c 0
 136.165 424.577 272.877 540.028 436.272 540.028 c 0
 525.754 540.028 596.471 500.682 630.322 433.771 c 0
 635.307 423.918 l 1
 546.317 337.638 l 1
 535.922 346.686 l 0
 519.23 361.215 528.818 380.312 528.818 380.312 c 1
 524.461 389.679 495.181 439.074 418.49 439.074 c 0
 329.326 439.074 244.084 375.495 223.901 270.163 c 0
 221.17 255.911 219.861 242.311 219.84 229.464 c 0
 219.705 145.267 273.166 92.9785 353.861 92.9785 c 0
 403.499 92.9785 486.575 116.527 525.096 152.905 c 0
 537.891 164.989 l 1
 593.267 83.6481 l 1
 583.59 74.8825 l 0
 519.442 16.7783 410.712 -13.001 333.488 -13.001 c 0
 317.051 -13.001 301.219 -11.651 286.078 -9.01866 c 0
EndSplineSet
EndChar

StartChar: m
Encoding: 109 109 2
Width: 600
Flags: W
TeX: 109 0
LayerCount: 2
Fore
SplineSet
142.587 0 m 1
 36.1237 0 l 1
 104.822 368.584 l 0
 117.806 438.251 110.301 489.438 99.9888 508.066 c 0
 90.0377 526.044 l 1
 213.998 542.517 l 1
 217.848 530.618 l 0
 220.114 523.617 220.94 510.101 221.269 490.978 c 1
 251.069 519.26 287.692 542 333.569 542 c 0
 375.632 542 408.34 519.523 422.319 485.391 c 1
 455.632 520.952 500.705 542 546.569 542 c 0
 578.844 542 616.994 529.9 634.641 494.238 c 1
 652.614 460.805 646.055 421.47 639.442 385.939 c 0
 638.322 379.914 637.168 373.941 636.071 368.044 c 0
 597.456 160.553 l 0
 581.275 73.607 607.099 21.2785 607.519 20.4292 c 1
 617.322 1.13196 l 1
 478.88 -5.69575 l 1
 477.667 8.78676 l 1
 477.455 11.3487 472.013 78.7688 486.972 163.605 c 0
 520.5 365 l 0
 522.164 374.437 524.313 384.239 526.008 393.846 c 0
 528.842 409.92 529.817 425.326 527.391 435.397 c 1
 523.088 448.894 515.33 453.396 504.962 453.396 c 0
 482.764 453.396 458.025 437.49 446 422 c 1
 431.5 405 424.217 389.224 419.487 362.395 c 0
 355.586 0 l 1
 247.124 0 l 1
 315.117 361.403 l 0
 316.582 369.194 318.324 377.047 319.78 384.787 c 0
 322.328 398.336 323.889 411.536 322.358 422.743 c 1
 319.465 442.978 307.765 448 295.284 448 c 0
 281.093 448 258.374 438.619 234.844 407.953 c 1
 216.442 383.732 211.282 365.142 207.015 342.463 c 0
 142.587 0 l 1
EndSplineSet
EndChar

StartChar: s
Encoding: 115 115 3
Width: 600
Flags: W
TeX: 115 0
LayerCount: 2
Fore
SplineSet
77.5411 76.9709 m 0
 69.2738 86.1657 l 1
 146.934 189.075 l 1
 158.141 183.365 l 0
 175.856 174.338 169.182 155.852 169.182 155.852 c 0
 169.028 155.159 168.774 154.053 168.774 154.053 c 1
 181.895 136.106 226.045 88 314.387 88 c 0
 410.301 88 467.823 120.533 474.29 154.941 c 0
 476.721 167.862 475.77 186.744 441.317 203.232 c 0
 409.638 218.392 323.44 232.066 279.01 248.156 c 0
 254.436 257.056 146.029 292.237 164.739 391.763 c 0
 180.42 475.19 281.412 542.004 409.066 542.004 c 0
 491.029 542.004 561.317 511.29 604.043 452.853 c 0
 611.017 443.315 l 1
 535.482 354.196 l 1
 526.443 356.443 l 0
 518.966 358.302 508.202 368.175 510.917 383.018 c 0
 511.097 384.002 511.352 385.19 511.352 385.19 c 1
 496.581 408.782 458.08 449.074 391.013 449.074 c 0
 334.004 449.074 286.931 421.757 281.5 392.84 c 0
 279.429 381.813 280.092 364.544 314.832 347.313 c 0
 354.962 327.409 469.313 315.975 528.062 281.611 c 0
 590.038 245.358 600.509 193.158 591.378 154.241 c 0
 566.334 47.5107 478.453 -12 345.124 -12 c 0
 215.201 -12 133.401 14.8448 77.5411 76.9709 c 0
EndSplineSet
EndChar

StartChar: I
Encoding: 73 73 4
Width: 600
Flags: W
TeX: 73 0
LayerCount: 2
Fore
SplineSet
207.028 624 m 1
 224.308 722 l 1
 612.309 722 l 1
 595.028 624 l 1
 452.028 624 l 1
 358.928 96 l 1
 508.928 96 l 1
 491.823 -1 l 1
 88.8232 -1 l 1
 106.104 97 l 1
 248.104 97 l 1
 341.028 624 l 1
 207.028 624 l 1
EndSplineSet
EndChar

StartChar: o
Encoding: 111 111 5
Width: 600
Flags: W
TeX: 111 0
LayerCount: 2
Fore
SplineSet
402.834 541.005 m 0
 531.967 541.005 636.126 442.432 604.375 262.365 c 0
 573.848 89.2354 436.789 -14 302.5 -14 c 0
 160.01 -14 59.6836 101.038 87.8408 260.728 c 0
 116.393 422.652 258.665 541.005 402.834 541.005 c 0
489.88 259.253 m 0
 512.545 387.789 445.899 440.103 379.36 440.103 c 0
 308.535 440.103 227.297 381.746 207.154 267.511 c 0
 186.825 152.219 247.359 87.9932 321.13 87.9932 c 0
 388.458 87.9932 469.186 141.886 489.88 259.253 c 0
EndSplineSet
EndChar

StartChar: n
Encoding: 110 110 6
Width: 600
Flags: W
TeX: 110 0
LayerCount: 2
Fore
SplineSet
186.587 0 m 1
 71.1237 0 l 1
 139.822 368.593 l 0
 152.806 438.26 145.301 489.449 134.989 508.078 c 0
 124.924 526.26 l 1
 257.033 542.389 l 1
 260.842 530.618 l 0
 263.54 522.28 266.597 499.675 265.111 457.567 c 1
 312.267 502.302 372.754 541.187 445.356 542.002 c 0
 512.065 542.712 566.887 505.584 584.489 442.921 c 0
 596.898 398.749 588.648 355.011 581.373 315.934 c 0
 552.457 160.551 l 0
 536.276 73.6049 562.099 21.2774 562.519 20.4277 c 1
 572.337 1.10065 l 1
 430.878 -5.67534 l 1
 429.71 8.2716 l 1
 429.477 10.8729 423.863 73.3892 438.972 153.503 c 0
 469.6 315.913 l 1
 476.339 351.668 481.689 388.766 463.482 414.536 c 0
 451.585 431.377 432.646 439.58 410.142 439.58 c 0
 361.799 439.58 304.732 398.952 281.116 375.098 c 0
 256.038 349.767 248.632 329.4 242.55 297.118 c 0
 186.587 0 l 1
EndSplineSet
EndChar

StartChar: l
Encoding: 108 108 7
Width: 600
Flags: W
TeX: 108 0
LayerCount: 2
Fore
SplineSet
364.082 673 m 1
 214.082 673 l 1
 231.184 770 l 1
 495.647 770 l 1
 385.016 169.58 l 1
 383.115 157.561 381.307 144.498 381.268 133.808 c 0
 381.188 111.213 385.188 103 404.804 103 c 0
 428.084 103 448.647 106.897 479.347 108.966 c 0
 498.84 110.28 l 1
 477.183 0 l 1
 410.952 0 l 0
 373.713 0 334.978 0.986675 307.236 19.8389 c 1
 263.368 48.9958 259.136 103.221 270.559 165.241 c 0
 270.91 167.146 271.086 168.107 271.44 170.026 c 0
 364.082 673 l 1
EndSplineSet
EndChar

StartChar: t
Encoding: 116 116 8
Width: 600
Flags: W
TeX: 116 0
LayerCount: 2
Fore
SplineSet
297.296 529 m 1
 331.81 668.873 l 1
 448.713 687.599 l 1
 451.914 677.708 l 0
 453.766 671.989 452.577 666.811 452.258 665 c 0
 449.486 649.283 440.649 640.987 439.139 637.328 c 1
 431.51 614.823 416.079 557.424 408.812 530 c 1
 580.453 530 l 1
 562.997 431 l 1
 387.603 431 l 1
 371.064 371.595 358.319 313.731 347.933 254.824 c 0
 335.956 186.903 335.481 169.104 334.607 162.383 c 1
 333.995 111.727 364.57 97 397.104 97 c 0
 425.604 97 466.227 110.304 515.186 142.096 c 0
 532.908 153.605 l 1
 553.552 58.7412 l 1
 543.022 51.9043 l 0
 489.885 17.3975 421.343 -10 354.236 -10 c 0
 296.298 -10 252.969 11.3936 231.292 48.3506 c 1
 204.932 94.1025 215.03 147.626 222.732 191.306 c 0
 236.731 270.697 254.854 352.472 274.83 431 c 1
 151.774 431 l 1
 170.496 529 l 1
 297.296 529 l 1
EndSplineSet
EndChar

StartChar: e
Encoding: 101 101 9
Width: 600
Flags: W
TeX: 101 0
LayerCount: 2
Fore
SplineSet
264.978 -7.54701 m 0
 142.405 12.9417 68.5026 109.204 97.0195 262.555 c 0
 132.097 451.195 270.185 542 385.319 542 c 0
 493.074 542 527.719 525.722 556.694 500.603 c 0
 591.793 470.172 606.015 426.024 597.715 381.106 c 0
 585.896 317.142 534.61 282.601 445.185 252.697 c 1
 374.904 229.542 297.312 229 224.432 229 c 0
 207.023 229 l 0
 184.465 95 276.884 85 336.698 85 c 0
 386.642 85 466.719 106.208 504.054 140.977 c 0
 515.568 151.7 l 1
 572.751 84.1005 l 1
 562.898 74.3425 l 0
 503.938 15.9476 396.843 -12 317.884 -12 c 0
 299.532 -12 281.848 -10.5207 264.978 -7.54701 c 0
403.034 448 m 0
 339.426 448 249.812 414.944 222.884 322.952 c 1
 241.256 322.898 260.203 322.626 279.743 322.626 c 0
 319.125 322.626 359.41 323.873 389.407 329.775 c 1
 458.666 344.155 478.149 355.515 483.29 381.555 c 0
 483.996 385.13 484.346 388.653 484.354 392.092 c 0
 484.423 420.747 461.233 448 403.034 448 c 0
EndSplineSet
EndChar

StartChar: b
Encoding: 98 98 11
Width: 600
Flags: W
TeX: 98 0
LayerCount: 2
Fore
SplineSet
228.497 278.332 m 2
 196.448 110.997 l 1
 199.261 107.124 213.49 92 273.781 92 c 0
 355.338 92 460.897 144.308 483.025 257.401 c 0
 487.537 280.463 489.526 300.638 489.547 318.215 c 0
 489.675 425.257 418.881 440 380.874 440 c 0
 334.279 440 285.87 415.732 260.215 375.902 c 0
 244.733 351.749 236.921 322.32 228.497 278.332 c 2
81.7106 33.077 m 2
 67.7359 36.0956 l 1
 202.361 771 l 1
 326.396 771 l 1
 327.859 757.632 l 2
 328.81 748.943 325.796 742.619 322.377 738.377 c 0
 318.616 733.711 314.366 731.567 314.366 731.567 c 2
 314.049 731.298 313.733 731.029 313.416 730.76 c 2
 312.34 730.118 l 2
 311.284 729.488 310.433 728.855 310.433 728.855 c 2
 310.243 728.034 310.251 728.053 310.135 727.395 c 2
 266.531 480.103 l 1
 310.946 519.078 366.583 542 422.569 542 c 0
 433.973 542 445.297 541.042 456.408 539.1 c 0
 556.539 522.521 632.82 431.047 602.556 268.456 c 0
 573.343 111.509 449.318 0 307.08 0 c 0
 172.361 0 137.996 20.919 81.7106 33.077 c 2
EndSplineSet
EndChar

StartChar: H
Encoding: 72 72 12
Width: 600
Flags: W
TeX: 72 0
LayerCount: 2
Fore
SplineSet
58 0 m 1
 185.308 722 l 1
 299.578 722 l 1
 302.262 713.708 l 0
 303.509 710.146 303.778 706.226 303.08 702.264 c 0
 299.592 682.479 292.744 684.775 292.031 680.731 c 0
 247.468 428 l 1
 500.468 428 l 1
 552.309 722 l 1
 663.806 722 l 1
 666.889 714.711 l 0
 668.527 711.053 668.978 706.878 668.23 702.643 c 0
 664.387 680.841 656.718 684.623 656.317 682.356 c 0
 535.823 -1 l 1
 423.823 -1 l 1
 482.012 329 l 1
 230.012 329 l 1
 172 0 l 1
 58 0 l 1
EndSplineSet
EndChar

StartChar: g
Encoding: 103 103 13
Width: 600
Flags: W
TeX: 103 0
LayerCount: 2
Fore
SplineSet
30.7363 -120.992 m 0
 24.6028 -111.251 l 1
 109.532 -19.5681 l 1
 121.372 -31.0078 l 1
 132.542 -43.6518 129.837 -54.7634 129.993 -55.5183 c 1
 138.393 -65.79 185.102 -106 241.02 -106 c 0
 330.107 -106 328.459 -105.187 368.794 -85.0761 c 0
 405.506 -66.7712 413.128 -45.3424 416.646 -25.3953 c 0
 430.207 51.5155 l 1
 385.593 11.5003 330.75 -12.0004 274.901 -12.0029 c 0
 263.749 -12.0029 252.602 -11.0534 241.601 -9.12253 c 0
 141.573 7.50857 59.8751 100.257 91.8359 271.963 c 0
 132.503 490.436 379.98 530 452.26 530 c 0
 526.568 530 561.246 503.78 622.619 488.751 c 0
 645.406 483.171 l 1
 630.465 465.943 l 1
 627.862 462.602 616.25 437.17 611.642 413.305 c 1
 530.072 -25.6049 l 0
 516.101 -104.838 429.025 -199 270.161 -199 c 0
 116.78 -199 64.2347 -174.194 30.7363 -120.992 c 0
416.622 440.965 m 0
 348.005 440.1 226.005 382.1 207.566 295.502 c 0
 202.207 270.331 201.048 247.666 200.979 228.109 c 0
 200.588 117.807 259.467 91.8096 302.769 91.8096 c 0
 351.694 91.8096 410.838 125.359 439.956 183.895 c 0
 452.708 209.528 462.892 237.436 469.817 276.152 c 1
 494.005 426.1 l 1
 478.946 432.191 451.798 441.408 416.622 440.965 c 0
EndSplineSet
EndChar

StartChar: h
Encoding: 104 104 14
Width: 600
Flags: W
TeX: 104 0
LayerCount: 2
Fore
SplineSet
188.587 0 m 1
 73.1237 0 l 1
 214.184 770 l 1
 335.508 770 l 1
 337.573 757.432 l 0
 338.049 754.531 337.986 751.66 337.503 748.922 c 0
 335.123 735.417 324.46 729.071 323.148 727.904 c 0
 322.297 727.147 322.072 726.826 322.072 726.826 c 1
 322.013 726.603 321.918 726.16 321.783 725.395 c 0
 276.187 466.807 l 1
 325.488 511.114 385.333 542.003 447.526 542.003 c 0
 513.852 542.003 568.855 505.695 586.489 442.921 c 0
 598.898 398.748 590.646 355.012 583.373 315.934 c 0
 554.456 160.552 l 0
 538.275 73.6056 564.099 21.277 564.519 20.4277 c 1
 574.337 1.10065 l 1
 432.879 -5.67533 l 1
 431.669 8.75826 l 1
 431.452 11.214 426.01 74.195 440.972 153.524 c 0
 471.476 315.262 l 0
 478.193 350.869 483.807 388.602 465.483 414.538 c 0
 453.585 431.378 434.647 439.58 412.141 439.58 c 0
 363.799 439.58 306.732 398.952 283.116 375.098 c 0
 258.038 349.767 250.633 329.401 244.551 297.118 c 0
 188.587 0 l 1
EndSplineSet
EndChar

StartChar: u
Encoding: 117 117 15
Width: 600
Flags: W
TeX: 117 0
LayerCount: 2
Fore
SplineSet
265.708 -13 m 0
 191.007 -13 125.813 26.7983 105.281 99.7712 c 0
 91.2729 147.132 100.278 194.287 108.497 237.701 c 0
 138.408 395.711 l 0
 148.864 450.947 138.658 491.147 129.312 508.054 c 0
 119.251 526.254 l 1
 251.097 542.393 l 1
 254.907 530.618 l 0
 256.861 524.959 270.047 486.029 259.151 428.131 c 0
 223.033 236.215 l 0
 216.641 202.255 210.49 166.58 221.402 136.255 c 1
 233.087 102.431 260.627 85 296.698 85 c 0
 341.225 85 390.704 113.843 420.288 152.236 c 0
 442.354 180.871 450.063 206.932 457.194 244.807 c 0
 510.69 529 l 1
 625.153 529 l 1
 556.457 160.35 l 0
 540.419 74.2867 573.261 22.5084 573.777 21.6947 c 1
 587.104 1.2332 l 1
 445.221 -5.56313 l 1
 442.569 4.45734 l 1
 441.119 9.93233 437.526 23.9519 436.33 59.1727 c 1
 386.185 16.9992 321.553 -13 265.708 -13 c 0
EndSplineSet
EndChar

StartChar: r
Encoding: 114 114 16
Width: 600
Flags: W
TeX: 114 0
LayerCount: 2
Fore
SplineSet
222.586 0 m 1
 107.124 0 l 1
 175.822 368.593 l 0
 188.806 438.26 181.301 489.449 170.989 508.078 c 0
 160.924 526.26 l 1
 293.03 542.388 l 1
 296.84 530.62 l 0
 298.414 525.758 303.459 508.408 303.479 475.253 c 1
 353.613 520.02 415.59 541.188 480.347 541.69 c 0
 557.87 542.291 607.633 516.404 638.056 478.37 c 0
 644.892 469.823 l 1
 574.839 364.293 l 1
 561.916 379.159 l 0
 551.877 390.707 549.186 401.607 545.445 407.776 c 0
 537.229 421.324 519.82 440.205 447.653 440.205 c 0
 379.928 440.205 342.306 400.578 317.116 375.132 c 0
 292.038 349.798 284.632 329.43 278.55 297.145 c 0
 222.586 0 l 1
EndSplineSet
EndChar

StartChar: i
Encoding: 105 105 17
Width: 600
Flags: W
TeX: 105 0
LayerCount: 2
Fore
SplineSet
324.589 432 m 1
 196.587 432 l 1
 213.866 530 l 1
 456.331 530 l 1
 388.018 168.007 l 1
 386.117 156.273 384.309 143.517 384.27 133.08 c 0
 384.19 111.019 388.19 103 407.806 103 c 0
 431.086 103 451.649 106.897 482.349 108.966 c 0
 501.842 110.28 l 1
 480.185 0 l 1
 413.954 0 l 0
 376.715 0 337.979 0.963807 310.238 19.3776 c 1
 266.37 47.8565 262.138 100.821 273.561 161.399 c 0
 273.912 163.259 274.088 164.198 274.442 166.072 c 0
 324.589 432 l 1
405.499 612.053 m 0
 369.733 618.257 347.188 651.023 353.702 687.972 c 0
 360.784 728.138 398.184 760 438.998 760 c 0
 443.276 760 447.46 759.642 451.512 758.939 c 0
 487.276 752.736 509.824 719.85 503.305 682.882 c 0
 496.23 642.754 458.833 610.992 418.014 610.992 c 0
 413.736 610.992 409.552 611.35 405.499 612.053 c 0
EndSplineSet
EndChar

StartChar: f
Encoding: 102 102 18
Width: 600
Flags: W
TeX: 102 0
LayerCount: 2
Fore
SplineSet
256.297 407.53 m 1
 141.297 407.53 l 1
 158.225 499.615 l 1
 273.224 499.615 l 1
 280.207 537.605 l 0
 288.547 584.895 298.923 632.347 336.031 679.32 c 0
 386.818 743.367 466.857 777 545.006 777 c 0
 615.888 777 673.815 749.074 706.889 698.173 c 0
 712.281 689.874 l 1
 650.74 598 l 1
 642.733 598 l 0
 631.787 598 618.925 609.009 620.494 624.219 c 1
 620.546 626.732 620.731 628.521 620.731 628.521 c 1
 620.217 629.611 l 0
 606.75 658.223 575.048 682 529.545 682 c 0
 490.014 682 450.108 664.068 424.174 629.043 c 1
 402.833 600.504 395.8 566.746 389.644 531.829 c 0
 389.031 528.35 388.425 524.872 387.812 521.395 c 0
 383.687 498.976 l 1
 556.687 498.976 l 1
 539.759 406.979 l 1
 366.76 406.979 l 1
 260.964 -168 l 1
 150.501 -168 l 1
 256.297 407.53 l 1
EndSplineSet
EndChar

StartChar: v
Encoding: 118 118 19
Width: 600
Flags: W
TeX: 118 0
LayerCount: 2
Fore
SplineSet
255.076 -4 m 1
 127.437 530 l 1
 261.616 530 l 1
 262.031 518.1 l 0
 262.566 502.756 254.109 492.296 254.109 492.296 c 1
 254.154 491.895 254.227 491.492 254.44 490.515 c 0
 331.81 137.267 l 1
 431.291 300.942 l 0
 473.263 370 513.56 442.356 540.522 517.681 c 0
 544.933 530 l 1
 651.081 530 l 1
 644.07 512.769 l 0
 612.414 434.966 569.266 361.06 525.027 290.559 c 0
 340.198 -4 l 1
 255.076 -4 l 1
EndSplineSet
EndChar

StartChar: d
Encoding: 100 100 20
Width: 600
Flags: W
TeX: 100 0
LayerCount: 2
Fore
SplineSet
416.622 440.965 m 0
 348.005 440.1 226.005 382.1 207.566 295.502 c 0
 202.207 270.331 201.048 247.666 200.979 228.109 c 0
 200.588 117.807 259.467 91.8096 302.769 91.8096 c 0
 351.694 91.8096 410.838 125.359 439.956 183.895 c 0
 452.708 209.528 462.892 237.436 469.817 276.152 c 1
 494.005 426.1 l 1
 478.946 432.191 451.798 441.408 416.622 440.965 c 0
574.701 29.6289 m 0
 566.718 0.0171795 l 1
 447.669 -5.68536 l 1
 446.649 9.02755 l 1
 446.572 10.1584 444.957 35.8221 444.948 71.0114 c 1
 397.26 24.5858 330.933 -11.7422 270.432 -11.7422 c 0
 259.413 -11.7422 248.458 -10.8267 237.693 -8.95685 c 0
 138.195 7.41373 62.8511 100.142 94.7968 271.764 c 0
 135.407 489.928 379.254 530 434.17 530 c 0
 469.277 530 500.332 521.108 518.188 514.819 c 1
 563.362 771 l 1
 681.889 771 l 1
 679.838 754.183 l 0
 678.171 740.52 669.486 732.01 667.116 729.132 c 0
 662.813 723.904 663.774 725.386 662.905 720.416 c 0
 641.201 601.256 583.855 286.025 561.601 163.843 c 1
 548.581 92.9523 566.099 47.6805 574.701 29.6289 c 0
EndSplineSet
EndChar

StartChar: p
Encoding: 112 112 21
Width: 600
Flags: W
TeX: 112 0
LayerCount: 2
Fore
SplineSet
143.555 -193 m 1
 28.1168 -193 l 1
 135.005 393.519 l 1
 141.987 451.607 134.953 491.371 125.989 507.802 c 0
 116.037 526.044 l 1
 239.999 542.517 l 1
 243.849 530.618 l 0
 245.936 524.166 250.62 501.364 250.592 464.342 c 1
 294.607 506.892 350.884 541 426.393 541 c 0
 438.22 541 449.987 540.004 461.545 537.971 c 0
 561.262 521.359 639.036 432.162 608.555 268.427 c 0
 573.333 79.2193 440.619 0 347.079 0 c 0
 269.943 0 223.952 7.67418 180.463 16.3136 c 1
 143.555 -193 l 1
229.731 284.706 m 0
 197.723 117.505 l 1
 221.446 108.029 272.471 90 308.146 90 c 0
 355.726 90 461.028 111.057 488.837 256.347 c 0
 493.169 278.975 495.097 298.817 495.141 316.15 c 0
 495.43 427.961 419.412 440 383.874 440 c 0
 335.032 440 285.856 415.701 260.121 375.727 c 1
 244.981 353.263 237.639 326.008 229.731 284.706 c 0
EndSplineSet
EndChar

StartChar: q
Encoding: 113 113 22
Width: 600
Flags: W
TeX: 113 0
LayerCount: 2
Fore
SplineSet
416.622 440.965 m 0
 348.005 440.1 226.005 382.1 207.566 295.502 c 0
 202.207 270.331 201.048 247.666 200.979 228.109 c 0
 200.588 117.807 259.467 91.8096 302.769 91.8096 c 0
 351.694 91.8096 410.838 125.359 439.956 183.895 c 0
 452.708 209.528 462.892 237.436 469.817 276.152 c 1
 494.005 426.1 l 1
 478.946 432.191 451.798 441.408 416.622 440.965 c 0
241.601 -9.12253 m 0
 141.573 7.50857 59.9433 100.624 91.9586 272.622 c 0
 132.626 491.095 379.98 530 452.26 530 c 0
 526.883 530 561.481 503.776 622.63 488.756 c 0
 645.393 483.165 l 1
 630.465 465.955 l 1
 627.862 462.616 616.249 437.182 611.643 413.332 c 1
 530.424 -23.6047 l 0
 514.243 -115.373 540.068 -170.604 540.488 -171.501 c 1
 550.306 -191.899 l 1
 409.302 -198.654 l 1
 407.687 -184.728 l 0
 407.582 -183.824 400.059 -119.469 415.236 -33.3953 c 0
 430.208 51.5158 l 1
 385.592 11.5 330.75 -12.0004 274.901 -12.0029 c 0
 263.749 -12.0029 252.602 -11.0534 241.601 -9.12253 c 0
EndSplineSet
EndChar

StartChar: y
Encoding: 121 121 23
Width: 600
Flags: W
TeX: 121 0
LayerCount: 2
Fore
SplineSet
264.447 15.4609 m 1
 133.957 529 l 1
 274.369 529 l 1
 272.768 514.935 l 0
 270.846 498.052 263.188 489.748 263.097 489.226 c 0
 262.984 488.589 262.883 488.578 263.553 485.54 c 0
 341.598 132.575 l 1
 472.699 379.026 l 0
 496.786 424.304 519.687 470.488 536.516 517.663 c 0
 540.917 530 l 1
 660.628 530 l 1
 651.578 511.63 l 0
 627.087 461.915 599.988 413.276 572.432 365.22 c 0
 334.164 -50.2988 l 0
 317.525 -80.3359 300.235 -110.582 270.106 -138.87 c 0
 223.906 -182.246 166.597 -201.18 115.223 -201.18 c 0
 68.2764 -201.18 26.582 -184.981 -1.32324 -152.834 c 0
 -8.36719 -144.719 l 1
 66.7607 -44.5039 l 1
 78.5186 -55.1924 l 0
 89.9561 -65.5889 87.6201 -78.8496 87.6201 -78.8496 c 1
 89.1973 -82.6104 101.682 -102.772 132.325 -102.772 c 0
 152.756 -102.772 177.613 -93.8496 200.631 -73.2139 c 0
 217.997 -57.6436 231.669 -36.8457 244.428 -16.0059 c 0
 264.447 15.4609 l 1
EndSplineSet
EndChar

StartChar: period
Encoding: 46 46 24
Width: 600
Flags: W
TeX: 112 0
LayerCount: 2
Fore
SplineSet
307.621 120.002 m 0
 353.674 120.002 384.738 83.5713 376.789 38.4932 c 0
 368.839 -6.59863 324.922 -43.0459 278.851 -43.0459 c 0
 232.856 -43.0459 201.784 -6.62109 209.742 38.5088 c 0
 217.688 83.5703 261.581 120.002 307.621 120.002 c 0
EndSplineSet
EndChar

StartChar: comma
Encoding: 44 44 25
Width: 600
Flags: W
TeX: 99 0
HStem: -200.6 319.529
VStem: 151.493 229.04
LayerCount: 2
Fore
SplineSet
304.643 118.93 m 0
 355.392 118.93 392.178 73.8711 380.533 7.83496 c 0
 370.253 -50.4678 312.521 -118.453 218.092 -190.526 c 0
 206.393 -200.6 l 1
 151.493 -153.387 l 1
 165.503 -143.727 l 0
 195.101 -123.321 217.938 -100.203 231.471 -84.9902 c 0
 238.3 -77.3145 250.486 -62.0459 252.532 -50.4473 c 0
 254.841 -37.3525 246.012 -31.9863 236.405 -25.9277 c 0
 227.853 -19.4834 201.669 -1.72559 208.647 37.8525 c 0
 216.243 80.9297 257.979 118.93 304.643 118.93 c 0
EndSplineSet
EndChar

StartChar: plus
Encoding: 43 43 28
Width: 600
Flags: W
TeX: 112 0
LayerCount: 2
Fore
SplineSet
326.586 423 m 1
 358.854 606 l 1
 461.854 606 l 1
 429.586 423 l 1
 627.586 423 l 1
 609.777 322 l 1
 411.777 322 l 1
 373.515 105 l 1
 270.515 105 l 1
 308.777 322 l 1
 103.777 322 l 1
 121.586 423 l 1
 326.586 423 l 1
EndSplineSet
EndChar

StartChar: minus
Encoding: 8722 8722 29
Width: 600
Flags: W
TeX: 104 0
LayerCount: 2
Fore
SplineSet
104.659 327 m 1
 122.468 428 l 1
 628.468 428 l 1
 610.659 327 l 1
 104.659 327 l 1
EndSplineSet
EndChar

StartChar: underscore
Encoding: 95 95 31
Width: 600
Flags: W
TeX: 117 0
LayerCount: 2
Fore
SplineSet
13.3115 -123 m 1
 31.1211 -22 l 1
 561.121 -22 l 1
 543.312 -123 l 1
 13.3115 -123 l 1
EndSplineSet
EndChar

StartChar: less
Encoding: 60 60 32
Width: 600
Flags: W
TeX: 108 0
LayerCount: 2
Fore
SplineSet
653.412 552.449 m 1
 235.863 369.347 l 1
 587.89 163.84 l 1
 566.379 41.8506 l 1
 93.9609 334.382 l 1
 106.952 408.062 l 1
 673.883 668.548 l 1
 653.412 552.449 l 1
EndSplineSet
EndChar

StartChar: greater
Encoding: 62 62 33
Width: 600
Flags: W
TeX: 103 0
LayerCount: 2
Fore
SplineSet
141.412 552.449 m 1
 161.883 668.548 l 1
 636.952 408.062 l 1
 623.961 334.382 l 1
 48.3789 41.8506 l 1
 69.8896 163.84 l 1
 494.389 369.347 l 1
 141.412 552.449 l 1
EndSplineSet
EndChar

StartChar: quotesingle
Encoding: 39 39 34
Width: 600
Flags: W
TeX: 113 0
LayerCount: 2
Fore
SplineSet
463.654 772.143 m 0
 495.643 772.143 518.948 748.318 508.842 691 c 2
 489.471 581.143 l 1
 470.754 461.999 l 1
 343.615 461.999 l 1
 350.234 505.803 l 0
 354.26 551.903 358.401 552.67 364.141 596.216 c 0
 364.455 598.599 l 1
 365.665 600.869 l 0
 372.036 612.824 366.68 622.022 371.099 647.085 c 0
 380.29 699.214 l 0
 388.859 747.811 433.187 772.143 463.654 772.143 c 0
EndSplineSet
EndChar

StartChar: grave
Encoding: 96 96 35
Width: 600
Flags: W
TeX: 103 0
LayerCount: 2
Fore
SplineSet
280.25 352.828 m 2
 217.025 463.164 l 1
 155.406 566.776 l 1
 152.345 785.882 l 1
 180.455 744 l 0
 209.705 704.185 210.102 696.949 238.084 655.633 c 0
 238.89 654.33 l 1
 239.416 652.891 l 0
 249.677 624.827 254.797 630.138 270.42 602.925 c 0
 303.698 552.423 l 0
 332.38 500.394 344.406 414.633 344.97 369.438 c 0
 345.234 353.645 347.827 333.678 329.967 324.853 c 0
 307.388 312.815 290.856 337.253 280.25 352.828 c 2
EndSplineSet
EndChar

StartChar: slash
Encoding: 47 47 36
Width: 600
Flags: W
TeX: 115 0
LayerCount: 2
Fore
SplineSet
149.524 -54.3223 m 1
 63.0605 -6.91016 l 1
 576.641 775.414 l 1
 664.163 728.519 l 1
 149.524 -54.3223 l 1
EndSplineSet
EndChar

StartChar: backslash
Encoding: 92 92 37
Width: 600
Flags: W
TeX: 98 0
LayerCount: 2
Fore
SplineSet
296.812 775.414 m 1
 534.503 -6.91016 l 1
 431.318 -54.3223 l 1
 192.752 728.519 l 1
 296.812 775.414 l 1
EndSplineSet
EndChar

StartChar: micro
Encoding: 181 181 38
Width: 600
Flags: W
TeX: 117 0
LayerCount: 2
Fore
SplineSet
-11.1436 -193 m 1
 -8.36621 -177.888 l 2
 15.5693 -47.8779 62.2246 92.0117 86.8408 231.621 c 0
 139.277 529 l 1
 245.277 529 l 1
 190.898 220.605 l 0
 185.13 187.89 181.392 159.773 190.896 133.157 c 0
 203.508 97.8379 232.511 80 263.106 80 c 0
 298.034 80 338.263 102.871 363.385 142.73 c 1
 379.624 168.158 386.17 193.787 392.056 227.167 c 0
 445.277 529 l 1
 549.277 529 l 1
 480.781 140.541 l 0
 477.731 123.247 475.413 106.415 480.625 94.6895 c 0
 480.811 94.2715 l 1
 480.962 93.8389 l 0
 484.588 83.5234 492.255 79.9033 501.089 79.9033 c 0
 527.825 79.9033 558.236 122.921 559.165 124.389 c 0
 576.429 151.678 l 1
 610.309 62.1045 l 1
 604.314 55.1289 l 0
 574.567 20.5117 528.12 -12 477.884 -12 c 0
 432.356 -12 399.791 18.0078 389.625 56.1113 c 1
 348.857 12.9736 294.815 -13 240.708 -13 c 0
 195.797 -13 156.166 6.52539 132.509 36.9482 c 1
 119.744 -35.2852 106.974 -106.869 93.582 -178.172 c 0
 90.7979 -193 l 1
 -11.1436 -193 l 1
EndSplineSet
EndChar

StartChar: braceleft
Encoding: 123 123 39
Width: 600
Flags: W
TeX: 98 0
LayerCount: 2
Fore
SplineSet
99.9053 249 m 1
 116.656 344 l 1
 154.656 344 l 0
 175.985 344 200.604 344.599 225.484 364.617 c 1
 252.587 388.819 261.534 422.706 266.171 449.002 c 0
 270.743 474.929 272.329 500.938 277.27 528.958 c 0
 284.913 572.307 302.745 640.175 367.498 689.88 c 1
 427.56 735.693 496.092 738 552.129 738 c 0
 628.129 738 l 1
 611.202 642 l 1
 556.202 642 l 0
 538.611 642 523.659 643 510.378 643 c 0
 483.311 643 464.372 640.238 444.952 629.759 c 1
 404.113 607.619 392.949 561.171 388.863 537.998 c 0
 384.534 513.446 384.108 488.347 379.104 459.968 c 0
 374.357 433.043 364.94 396.712 341.58 363.907 c 1
 322.886 336.438 296.589 312.522 267.681 296.028 c 1
 305.158 270.684 333.398 217.77 315.63 117 c 0
 309.083 79.8711 299.577 48.6406 294.526 20 c 0
 287.592 -19.3291 286.188 -63.3809 317.08 -87.667 c 0
 335.911 -102.516 361.445 -104 398.662 -104 c 0
 478.662 -104 l 1
 461.911 -199 l 1
 368.911 -199 l 0
 312.825 -199 260.624 -196.312 221.444 -160.853 c 1
 163.139 -108.867 174.897 -23.2656 182.351 19 c 0
 190.488 65.1562 201.716 100.469 207.804 135 c 0
 216.435 183.944 213.382 212.71 198.206 230.17 c 0
 182.192 248.638 159.086 249 138.905 249 c 0
 99.9053 249 l 1
EndSplineSet
EndChar

StartChar: braceright
Encoding: 125 125 40
Width: 600
Flags: W
TeX: 98 0
LayerCount: 2
Fore
SplineSet
566.656 344 m 0
 604.656 344 l 1
 587.905 249 l 1
 548.905 249 l 0
 528.72 249 505.503 248.648 482.951 230.16 c 0
 461.592 212.678 448.445 184.005 439.804 135 c 0
 433.714 100.458 432.49 65.166 424.351 19 c 0
 416.894 -23.2881 398.484 -108.856 321.831 -160.852 c 1
 270.174 -196.292 216.967 -199 160.911 -199 c 0
 67.9111 -199 l 1
 84.6621 -104 l 1
 164.662 -104 l 0
 201.881 -104 227.923 -102.524 252.021 -87.6562 c 0
 291.445 -63.3896 305.592 -19.3262 312.526 20 c 0
 317.577 48.6406 319.083 79.8701 325.63 117 c 0
 343.506 218.377 391.363 271.264 436.715 296.028 c 1
 412.289 313.475 395.753 336.46 386.754 363.907 c 1
 374.965 396.704 378.358 433.049 383.104 459.968 c 0
 388.108 488.347 396.534 513.446 400.863 537.998 c 0
 404.95 561.172 410.166 607.619 377.135 629.759 c 1
 361.369 640.265 343.489 643 316.378 643 c 0
 303.098 643 287.793 642 270.202 642 c 0
 215.202 642 l 1
 232.129 738 l 1
 308.129 738 l 0
 364.165 738 431.888 735.691 475.789 689.882 c 1
 523.017 640.173 516.913 572.307 509.27 528.958 c 0
 504.329 500.938 496.743 474.929 492.171 449.002 c 0
 487.488 422.446 485.23 387.91 503.099 364.616 c 1
 521.681 343.745 545.552 344 566.656 344 c 0
EndSplineSet
EndChar

StartChar: asterisk
Encoding: 42 42 41
Width: 600
Flags: W
TeX: 97 0
LayerCount: 2
Fore
SplineSet
346.598 601 m 1
 474.262 601 l 1
 471.076 596.768 l 0
 465.653 579.903 461.979 577.907 458.882 566.913 c 0
 415.363 406.887 l 1
 603.397 486.334 l 1
 629.421 385.155 l 1
 428.213 341.188 l 1
 539.659 171.806 l 1
 441.478 113.757 l 1
 350.716 288.834 l 1
 193.162 112.695 l 1
 115.845 172.108 l 1
 291.555 340.39 l 1
 105.908 385.067 l 1
 166.521 490.778 l 1
 329.56 407.112 l 1
 346.598 601 l 1
EndSplineSet
EndChar

StartChar: O
Encoding: 79 79 42
Width: 600
Flags: W
TeX: 79 0
LayerCount: 2
Fore
SplineSet
629.42 591.335 m 0
 656.985 513.626 645.952 425.031 634.398 359.504 c 0
 623.541 297.927 603.576 209.331 549.658 131.241 c 0
 482.596 34.1143 386.175 -11.0146 302.543 -11.0146 c 0
 182.758 -11.0146 43.7246 83.5098 92.832 362.011 c 0
 141.998 640.847 315.881 730 432.479 730 c 0
 516.694 730 596.16 685.102 629.42 591.335 c 0
525.622 524.906 m 0
 507.143 599.222 455.431 624.01 410.391 624.01 c 0
 345.019 624.01 239.688 571.198 204.57 372.03 c 0
 166.905 158.425 252.269 97.9873 322.111 97.9873 c 0
 364.858 97.9873 419.331 120.422 461.371 182.347 c 0
 498.967 237.722 513.924 305.334 521.72 349.55 c 0
 531.822 406.844 539.162 470.45 525.622 524.906 c 0
EndSplineSet
EndChar

StartChar: zero
Encoding: 48 48 43
Width: 600
Flags: W
TeX: 122 0
LayerCount: 2
Fore
SplineSet
115.64 355.291 m 0
 155.362 580.567 301.85 727 429.438 727 c 0
 553.442 727 649.863 588.996 607.564 349.108 c 0
 564.829 106.744 416.883 -13.0215 300.229 -13.0215 c 0
 173.438 -13.0215 75.4434 127.325 115.64 355.291 c 0
212.172 252.426 m 1
 493.142 548.627 l 1
 473.516 603.959 440.488 626 410.538 626 c 0
 353.273 626 253.477 536.967 221.27 354.311 c 0
 214.757 317.375 211.96 282.216 212.172 252.426 c 1
503.585 354.376 m 0
 510.844 395.543 514.174 432.279 514.502 464.584 c 1
 234.848 172.743 l 1
 255.461 116.285 288.689 90.8848 321.353 90.8848 c 0
 372.053 90.8848 468.499 155.395 503.585 354.376 c 0
EndSplineSet
EndChar

StartChar: one
Encoding: 49 49 44
Width: 600
Flags: W
TeX: 111 0
LayerCount: 2
Fore
SplineSet
424.793 723 m 1
 499.484 723 l 1
 371.823 -1 l 1
 260.823 -1 l 1
 365.442 592.321 l 1
 219.883 552.854 l 1
 202.16 620.144 l 1
 424.793 723 l 1
EndSplineSet
EndChar

StartChar: two
Encoding: 50 50 45
Width: 600
Flags: W
TeX: 116 0
LayerCount: 2
Fore
SplineSet
184.766 591.362 m 1
 193.304 602.576 l 2
 252.158 679.865 342.963 727.008 430.298 727.008 c 0
 556.035 727.008 638.446 634.674 618.077 519.155 c 0
 599.341 412.898 507.361 338.709 446.145 291.433 c 0
 390.048 248.111 304.234 186.286 232.387 101 c 1
 508.809 101 l 0
 509.338 101 509.834 101.015 510.009 101.019 c 1
 510.906 101.622 510.888 101.614 511.608 102.153 c 0
 512.687 102.961 526.989 115.936 543.162 110.237 c 0
 552.837 106.827 l 1
 534 0 l 1
 80 0 l 1
 91.708 66.4004 l 1
 93.8672 69.4521 l 0
 176.038 185.566 257.119 258.525 352.918 330.042 c 0
 414.306 375.868 492.612 433.207 505.947 508.837 c 0
 517.588 574.854 471.789 625.449 402.839 625.449 c 0
 346.32 625.449 300.645 589.766 281.623 566.553 c 0
 278.897 563.229 280.004 554.895 266.387 539.385 c 0
 254.93 526.334 l 1
 184.766 591.362 l 1
EndSplineSet
EndChar

StartChar: N
Encoding: 78 78 46
Width: 600
Flags: W
TeX: 78 0
LayerCount: 2
Fore
SplineSet
161 0 m 1
 53 0 l 1
 180.308 722 l 1
 283.051 722 l 1
 475.365 228.923 l 1
 562.484 723 l 1
 676.561 723 l 1
 676.061 710.047 l 0
 675.677 698.34 668.792 689.58 667.07 687.203 c 0
 662.931 681.488 663.534 683.582 662.609 678.338 c 0
 542.823 -1 l 1
 455.022 -1 l 1
 253.645 525.414 l 1
 161 0 l 1
EndSplineSet
EndChar

StartChar: four
Encoding: 52 52 47
Width: 600
Flags: W
TeX: 102 0
LayerCount: 2
Fore
SplineSet
97.2617 262.364 m 1
 492.433 723 l 1
 583.484 723 l 1
 506.43 286 l 1
 599.43 286 l 1
 581.444 184 l 1
 488.444 184 l 1
 456 0 l 1
 342 0 l 1
 374.62 185 l 1
 83.6201 185 l 1
 97.2617 262.364 l 1
393.43 286 m 1
 438.889 543.81 l 1
 224.218 286 l 1
 393.43 286 l 1
EndSplineSet
EndChar

StartChar: eight
Encoding: 56 56 48
Width: 600
Flags: W
TeX: 101 0
LayerCount: 2
Fore
SplineSet
195.149 545.555 m 0
 213.205 647.956 320.412 731.061 438.128 731.061 c 0
 551.127 731.061 627.295 652.73 609.586 552.298 c 0
 598.052 486.883 546.975 424.326 480.712 385.804 c 1
 546.274 344.678 584.49 272.935 570.412 193.098 c 0
 550.162 78.2549 430.66 -12.0635 296.995 -12.0635 c 0
 165.959 -12.0635 78.2061 75.7734 98.0762 188.462 c 0
 112.034 267.624 177.124 340.523 260.92 383.758 c 1
 209.995 421.39 183.603 480.07 195.149 545.555 c 0
459.912 202.223 m 0
 470.532 262.449 428.479 320.9 347.45 349.989 c 1
 280.248 322.216 224.879 265.905 214.546 207.304 c 0
 203.316 143.615 247.812 90.9951 318.87 90.9951 c 0
 388.719 90.9951 449.241 141.706 459.912 202.223 c 0
498.168 539.724 m 0
 507.223 591.077 471.68 633.016 414.621 633.016 c 0
 358.968 633.016 311.454 592.849 303.014 544.982 c 0
 290.637 474.786 367.178 428.75 391.601 416.699 c 1
 447.145 446.138 490.083 493.872 498.168 539.724 c 0
EndSplineSet
EndChar

StartChar: five
Encoding: 53 53 49
Width: 600
Flags: W
TeX: 102 0
LayerCount: 2
Fore
SplineSet
153.157 345.165 m 1
 246.295 722 l 1
 641.309 722 l 1
 623.146 619 l 1
 324.374 619 l 1
 288.2 464.645 l 1
 324.218 477.823 358.704 484.014 392.958 484.014 c 0
 522.1 484.014 610.324 392.896 582.617 235.759 c 0
 554.475 76.1572 428.139 -13.0166 295.692 -13.0166 c 0
 205.211 -13.0166 127.611 29.5811 90.0234 104.587 c 0
 84.0918 116.422 l 1
 188.501 185.583 l 1
 196.31 179.212 l 0
 212.027 166.389 203.756 146.774 203.756 146.774 c 1
 208.457 137.612 245.798 87.9863 312.504 87.9863 c 0
 381.069 87.9863 452.375 138.057 469.878 237.318 c 0
 487.99 340.038 431.062 387.108 363.52 387.108 c 0
 319.075 387.108 268.228 365.101 228.995 324.672 c 0
 220.478 315.894 l 1
 153.157 345.165 l 1
EndSplineSet
EndChar

StartChar: S
Encoding: 83 83 50
Width: 600
Flags: W
TeX: 83 0
LayerCount: 2
Fore
SplineSet
636.678 630.659 m 2
 642.703 621.604 l 1
 563.028 534.569 l 1
 553.438 537.648 l 2
 546.248 539.958 539.05 548.343 540.816 560.941 c 0
 541.109 563.029 541.337 564.199 541.337 564.199 c 1
 522.004 601.526 480.634 629.139 418.256 629.139 c 0
 341.873 629.139 295.253 585.985 287.562 542.364 c 0
 283.429 518.927 287.214 483.307 337.949 451.863 c 0
 394.213 416.993 494.626 397.19 550.988 336.927 c 0
 592.105 292.966 594.768 240.338 587.933 201.571 c 0
 571.421 107.932 478.818 -12.0684 294.615 -12.0684 c 0
 202.044 -12.0684 122.56 20.5264 74.0898 85.8545 c 2
 68.0684 93.9707 l 1
 147.18 198.804 l 1
 158.71 192.376 l 2
 172.439 184.722 167.968 168.438 167.826 167.692 c 0
 167.491 165.932 167.316 164.976 167.316 164.976 c 1
 167.367 164.893 l 2
 190.371 127.38 240.894 90.9502 315.137 90.9502 c 0
 412.765 90.9502 468.239 150.155 477.328 201.697 c 0
 482.013 228.27 476.999 258.94 438.429 284.747 c 0
 392.977 315.159 291.794 339.443 230.209 389.029 c 0
 174.021 434.27 165.373 490.981 173.14 535.026 c 0
 191.429 638.747 304.942 726.008 441.775 726.008 c 0
 524.532 726.008 595.626 692.362 636.678 630.659 c 2
EndSplineSet
EndChar

StartChar: M
Encoding: 77 77 51
Width: 600
Flags: W
TeX: 77 0
LayerCount: 2
Fore
SplineSet
41.8232 -1 m 1
 169.308 722 l 1
 257.521 722 l 1
 368.328 386.985 l 1
 600.33 723 l 1
 685.484 723 l 1
 557.823 -1 l 1
 450.823 -1 l 1
 539.211 500.271 l 1
 363.765 254 l 1
 314.588 254 l 1
 235.005 493.431 l 1
 147.823 -1 l 1
 41.8232 -1 l 1
EndSplineSet
EndChar

StartChar: L
Encoding: 76 76 52
Width: 600
Flags: W
TeX: 76 0
LayerCount: 2
Fore
SplineSet
71.8232 -1 m 1
 199.308 722 l 1
 321.2 722 l 1
 320.891 709.254 l 0
 320.67 696.19 312.989 686.256 310.683 683.086 c 0
 305.618 676.125 305.429 677.312 304.127 669.933 c 0
 203.456 99 l 1
 551.456 99 l 1
 533.823 -1 l 1
 71.8232 -1 l 1
EndSplineSet
EndChar

StartChar: ampersand
Encoding: 38 38 53
Width: 600
Flags: W
TeX: 78 0
LayerCount: 2
Fore
SplineSet
201.244 568.583 m 0
 217.408 660.25 308.202 729.113 403.781 729.113 c 0
 498.559 729.113 561.448 660.133 544.912 566.354 c 0
 531.759 491.754 470.858 418.994 393.161 376.505 c 1
 476.317 230.779 l 1
 499.573 255.509 515.297 280.054 525.759 300.751 c 0
 526.651 302.52 527.193 304.051 527.379 305.101 c 0
 527.558 306.118 526.74 310.562 528.117 318.37 c 0
 529.798 327.903 535.583 335.81 541.988 340.651 c 0
 552.175 348.351 l 1
 636.854 284.378 l 1
 628.24 272.96 l 0
 596.197 230.491 561.048 189.064 524.343 150.288 c 1
 589.352 46.4336 l 1
 484.294 -20.7812 l 1
 439.794 77.8613 l 1
 381.306 25.1445 306.588 -12.0312 230.498 -12.0312 c 0
 118.044 -12.0312 49.0732 69.9922 67.9043 176.789 c 0
 83.2754 263.962 153.819 349.694 245.852 399.512 c 1
 214.726 448.675 190.427 507.233 201.244 568.583 c 0
384.892 630.403 m 0
 352.47 630.403 317.361 603.783 309.749 560.613 c 0
 305.427 536.101 308.715 500.757 346.611 436.69 c 1
 395.146 465.351 429.352 511.475 436.904 554.305 c 0
 445.325 602.064 418.458 630.403 384.892 630.403 c 0
406.097 118.975 m 0
 426.215 143 l 1
 418.194 97.5127 l 1
 406.097 118.975 l 0
261.542 92.8262 m 0
 314.07 92.8262 371.727 137.906 394.765 158.771 c 1
 294.089 337.378 l 1
 236.12 299.092 197.157 242.687 188.299 192.45 c 0
 177.716 132.429 211.226 92.8262 261.542 92.8262 c 0
EndSplineSet
EndChar

StartChar: F
Encoding: 70 70 54
Width: 600
Flags: W
TeX: 78 0
LayerCount: 2
Fore
SplineSet
85 0 m 1
 212.484 723 l 1
 658.484 723 l 1
 640.676 622 l 1
 306.676 622 l 1
 274.584 440 l 1
 544.584 440 l 1
 526.951 340 l 1
 256.951 340 l 1
 197 0 l 1
 85 0 l 1
EndSplineSet
EndChar

StartChar: w
Encoding: 119 119 55
Width: 600
Flags: W
TeX: 119 0
LayerCount: 2
Fore
SplineSet
424.812 480 m 1
 464.149 158.449 l 1
 535.382 376.499 552.822 439.306 562.164 492.287 c 0
 563.438 499.51 564.533 506.467 565.557 513.53 c 0
 567.8 529 l 1
 677.34 529 l 1
 672.332 513.004 l 0
 619.56 344.425 561.109 177.713 495.635 10.9941 c 0
 491.065 -1 l 1
 389.509 -1 l 1
 356.466 301.075 l 1
 221.299 -1 l 1
 122.545 -1 l 1
 103.129 530 l 1
 217.265 530 l 1
 218.875 519.743 l 0
 221.173 505.11 213.873 492.605 211.146 487.257 c 0
 207.255 479.62 207.759 481.229 208.243 474.638 c 0
 208.269 474.303 l 1
 216.246 158.286 l 1
 350.834 480 l 1
 424.812 480 l 1
EndSplineSet
EndChar

StartChar: quotedbl
Encoding: 34 34 58
Width: 600
Flags: W
TeX: 113 0
LayerCount: 2
Fore
SplineSet
555.663 772.143 m 0
 585.808 772.143 602.547 746.04 592.842 691 c 2
 573.467 581.118 l 1
 554.341 462 l 1
 444.695 462 l 1
 451.537 506.018 l 0
 456.279 551.909 459.674 552.534 465.796 596.327 c 0
 466.071 598.294 l 1
 466.963 600.196 l 0
 472.912 612.888 468.853 623.003 473.101 647.097 c 0
 482.291 699.221 l 0
 490.461 745.551 526.676 772.143 555.663 772.143 c 0
353.663 772.143 m 0
 383.808 772.143 400.547 746.04 390.842 691 c 2
 371.467 581.118 l 1
 352.341 462 l 1
 242.695 462 l 1
 249.537 506.018 l 0
 254.279 551.909 257.673 552.534 263.796 596.327 c 0
 264.071 598.294 l 1
 264.963 600.196 l 0
 270.912 612.888 266.853 623.003 271.101 647.097 c 0
 280.291 699.221 l 0
 288.461 745.551 324.676 772.143 353.663 772.143 c 0
EndSplineSet
EndChar

StartChar: T
Encoding: 84 84 59
Width: 600
Flags: W
TeX: 84 0
LayerCount: 2
Fore
SplineSet
140.322 620 m 1
 158.484 723 l 1
 688.484 723 l 1
 670.322 620 l 1
 457.322 620 l 1
 347.823 -1 l 1
 235.823 -1 l 1
 345.322 620 l 1
 140.322 620 l 1
EndSplineSet
EndChar

StartChar: hyphen
Encoding: 45 45 60
Width: 600
Flags: W
TeX: 104 0
LayerCount: 2
Fore
SplineSet
134.482 326 m 1
 153.35 433 l 1
 600.35 433 l 1
 581.482 326 l 1
 134.482 326 l 1
EndSplineSet
EndChar

StartChar: exclam
Encoding: 33 33 61
Width: 600
Flags: W
TeX: 101 0
LayerCount: 2
Fore
SplineSet
314.633 154.002 m 0
 360.723 154.002 391.56 116.588 383.432 70.4912 c 0
 375.307 24.4121 331.288 -13.0166 285.184 -13.0166 c 0
 239.094 -13.0166 208.256 24.3955 216.384 70.4932 c 0
 224.509 116.574 268.528 154.002 314.633 154.002 c 0
352.899 727.57 m 0
 370.62 757.525 399.305 774.001 425.749 774.001 c 0
 454.586 774.001 481.39 753.983 484.606 713.025 c 0
 485.23 705.081 485.492 690.376 480.532 662.25 c 0
 472.414 616.208 456.648 572.003 446.248 529.018 c 0
 373.593 241.281 l 1
 287.32 241.281 l 1
 320.334 529.204 l 0
 329.604 604.453 326.985 631.895 333.998 671.67 c 0
 338.024 694.502 343.856 712.285 352.899 727.57 c 0
EndSplineSet
EndChar

StartChar: U
Encoding: 85 85 63
Width: 600
Flags: W
TeX: 85 0
LayerCount: 2
Fore
SplineSet
97.6348 253.135 m 0
 180.308 722 l 1
 296.181 722 l 1
 298.486 712.932 l 0
 299.464 709.374 299.607 705.548 298.927 701.688 c 0
 296.612 688.566 286.471 680.441 284.375 678.167 c 0
 281.354 674.888 282.251 676.308 281.484 671.96 c 0
 207.948 254.914 l 0
 201.922 220.739 197.402 190.121 207.033 159.415 c 0
 221.948 111.861 266.159 85.9209 318.217 85.9209 c 0
 369.405 85.9209 422.594 111.258 454.936 158.647 c 0
 476.617 190.417 483.197 222.298 489.473 257.889 c 0
 571.309 722 l 1
 678.309 722 l 1
 596.312 256.979 l 0
 587.346 206.129 576.868 154.815 538.418 102.926 c 0
 480.383 24.6143 386.822 -13.0732 299.156 -13.0732 c 0
 209.711 -13.0732 130.578 25.4688 100.991 102.388 c 0
 81.3203 153.525 88.9736 204.017 97.6348 253.135 c 0
EndSplineSet
EndChar

StartChar: numbersign
Encoding: 35 35 64
Width: 600
Flags: W
TeX: 110 0
LayerCount: 2
Fore
SplineSet
267.223 526.38 m 1
 324.989 722.44 l 1
 426.161 726.743 l 1
 366.916 527.57 l 1
 464.479 528.733 l 1
 519.946 716.455 l 1
 623.115 720.723 l 1
 566.171 529.946 l 1
 671.379 531.201 l 1
 646.982 445.134 l 1
 540.538 444.071 l 1
 491.335 279.226 l 1
 606.395 281.307 l 1
 582.225 197.215 l 1
 466.298 195.347 l 1
 404.031 -13.2607 l 1
 302.639 -18.9971 l 1
 365.491 193.722 l 1
 267.141 192.137 l 1
 205.995 -13.4248 l 1
 106.897 -17.7637 l 1
 168.273 190.545 l 1
 55.7715 188.731 l 1
 78.2432 271.754 l 1
 192.812 273.826 l 1
 242.095 441.092 l 1
 116.413 439.838 l 1
 137.582 524.834 l 1
 267.223 526.38 l 1
441.81 458.06 m 1
 344.133 457.084 l 1
 294.617 290.62 l 1
 392.86 292.397 l 1
 441.81 458.06 l 1
EndSplineSet
EndChar

StartChar: j
Encoding: 106 106 65
Width: 600
Flags: W
TeX: 106 0
LayerCount: 2
Fore
SplineSet
216.997 431 m 1
 234.453 530 l 1
 545.453 530 l 1
 460.024 45.5107 l 0
 452.326 1.85059 443.406 -42.6279 410.97 -88.2031 c 0
 358.598 -164.44 272.04 -202.181 192.049 -202.181 c 0
 122.204 -202.181 64.6895 -173.161 32.7363 -122.413 c 0
 27.0186 -113.331 l 1
 114.005 -19.4268 l 1
 124.36 -29.4326 l 0
 135.805 -40.4902 133.134 -54.0156 133.309 -54.418 c 0
 135.205 -58.7705 159.088 -100.016 215.381 -100.016 c 0
 254.854 -100.016 294.502 -79.377 318.455 -41.9336 c 0
 334.015 -18.6777 338.845 4.79004 343.528 31.3516 c 0
 413.997 431 l 1
 216.997 431 l 1
441.851 685.486 m 0
 449.107 726.644 488.635 760 530.012 760 c 0
 571.37 760 599.149 726.664 591.89 685.493 c 0
 584.634 644.344 545.109 610.992 503.725 610.992 c 0
 462.36 610.992 434.595 644.333 441.851 685.486 c 0
EndSplineSet
EndChar

StartChar: x
Encoding: 120 120 66
Width: 600
Flags: W
TeX: 120 0
LayerCount: 2
Fore
SplineSet
358.328 345.305 m 1
 515.478 530 l 1
 636.452 530 l 1
 409.646 272.099 l 1
 567.159 0 l 1
 435.248 0 l 1
 331.685 194.418 l 1
 167.001 0 l 1
 36.4072 0 l 1
 279.975 268.774 l 1
 132.626 530 l 1
 260.215 530 l 1
 358.328 345.305 l 1
EndSplineSet
EndChar

StartChar: G
Encoding: 71 71 67
Width: 600
Flags: W
TeX: 71 0
LayerCount: 2
Fore
SplineSet
99.0654 352.629 m 0
 154.102 664.755 356.944 729.021 459.802 729.021 c 0
 553.982 729.021 630.034 680 659.974 600.246 c 0
 663.647 590.459 l 1
 577.106 515.796 l 1
 568.011 522.374 l 0
 555.452 531.456 553.868 545.505 552.175 551.55 c 0
 540.108 594.633 500.046 628.068 441.498 628.068 c 0
 386.19 628.068 321.982 599.512 276.357 537.637 c 0
 241.626 490.533 223.093 431.584 212.044 368.924 c 0
 199.414 297.294 192.312 205.413 237.594 145.04 c 0
 266.935 105.921 311.11 89.9971 353.915 89.9971 c 0
 391.332 89.9971 435.371 102.151 474.848 123.905 c 1
 499.021 261 l 1
 368.021 261 l 1
 385.654 361 l 1
 621.654 361 l 1
 570.029 68.2217 l 1
 563.161 63.8994 l 0
 483.896 14.0205 399.457 -11.0488 328.936 -11.0488 c 0
 194.632 -11.0488 51.5908 83.3877 99.0654 352.629 c 0
EndSplineSet
EndChar

StartChar: k
Encoding: 107 107 68
Width: 600
Flags: W
TeX: 107 0
LayerCount: 2
Fore
SplineSet
71.8232 -1 m 1
 207.771 770 l 1
 330.508 770 l 1
 330.356 757.433 l 0
 330.168 741.591 317.647 731.024 315.939 729.218 c 0
 314.479 727.672 314.34 727.31 314.34 727.31 c 1
 314.293 727.175 314.104 726.519 313.837 725 c 0
 239.849 305.391 l 1
 525.796 533.499 l 1
 533.313 531.566 l 0
 551.136 526.982 570.908 526 590.748 526 c 0
 658.556 526 l 1
 380.472 311.867 l 1
 596.661 -1.20801 l 1
 564.726 -1 l 0
 562.062 -0.982422 559.391 -0.973633 556.725 -0.973633 c 0
 501.736 -0.973633 457.475 -4.93945 457.475 -4.93945 c 0
 449.322 -5.66309 l 1
 284.87 258.021 l 1
 222.757 208.459 l 1
 185.823 -1 l 1
 71.8232 -1 l 1
EndSplineSet
EndChar

StartChar: z
Encoding: 122 122 69
Width: 600
Flags: W
TeX: 122 0
LayerCount: 2
Fore
SplineSet
152.292 427 m 1
 170.453 530 l 1
 612.453 530 l 1
 599.718 457.771 l 1
 230.104 101 l 1
 513.809 101 l 0
 522.031 101 526.769 108.29 546.145 108.29 c 0
 548.11 108.29 550.117 108.145 552.138 107.849 c 0
 564.692 106.009 l 1
 545.823 -1 l 1
 52.8232 -1 l 1
 65.5693 71.2861 l 1
 439.644 427 l 1
 152.292 427 l 1
EndSplineSet
EndChar

StartChar: dollar
Encoding: 36 36 70
Width: 600
Flags: W
TeX: 100 0
LayerCount: 2
Fore
SplineSet
387.791 685.04 m 1
 399.95 754 l 1
 499.743 754 l 1
 502.103 745.035 l 0
 502.935 741.871 503.037 738.467 502.434 735.046 c 0
 500.056 721.562 491.386 716.493 491.386 716.493 c 1
 491.302 716.23 491.273 716.133 491.203 715.734 c 0
 485.901 685.665 l 1
 551.01 676.208 604.974 645.606 638.746 596.885 c 0
 645.007 587.852 l 1
 567.69 510.546 l 1
 558.646 512.934 l 0
 551.347 514.861 544.042 522.15 545.117 533.516 c 0
 545.354 536.005 545.826 537.96 545.936 538.515 c 1
 544.504 540.75 544.869 540.182 543.894 541.617 c 0
 528.779 563.863 504.357 581.065 468.954 589.551 c 1
 435.96 402.433 l 1
 458.528 394.637 479.141 387.271 499.315 378.251 c 0
 521.752 368.22 615.448 327.002 595.713 215.076 c 0
 580.706 129.969 500.148 39.4736 368.199 18.1445 c 1
 355.479 -54 l 1
 257.479 -54 l 1
 269.69 15.2568 l 1
 192.472 23.0459 128.858 54.1338 86.9844 107.824 c 0
 80.1963 116.528 l 1
 159.713 202.227 l 1
 170.016 197.317 l 0
 185.139 190.11 179.59 173.038 179.59 173.038 c 0
 179.262 171.621 179.083 170.899 179.083 170.899 c 1
 201.786 142.751 239.469 118.632 286.354 109.762 c 1
 324.874 328.221 l 1
 307.275 334.516 290.454 341.264 273.654 349.591 c 0
 179.529 396.241 168.848 465.099 176.885 510.678 c 0
 192.18 597.42 281.056 667.552 387.791 685.04 c 1
451.896 280.528 m 0
 442.856 285.966 430.927 291.095 417.22 296.152 c 1
 383.513 104.992 l 1
 444.774 123.01 481.246 165.137 488.258 204.903 c 0
 491.775 224.85 490.87 257.082 451.896 280.528 c 0
328.287 450.194 m 0
 333.013 447.166 340.341 443.102 344.736 440.865 c 1
 372.963 600.948 l 1
 315.636 588.521 291.348 555.451 286.264 526.615 c 0
 282.743 506.651 285.895 477.37 328.287 450.194 c 0
EndSplineSet
EndChar

StartChar: A
Encoding: 65 65 71
Width: 600
Flags: W
TeX: 65 0
LayerCount: 2
Fore
SplineSet
117.668 -1 m 1
 5.75195 -1 l 1
 400.922 735 l 1
 430.95 735 l 1
 591.738 0 l 1
 475.645 0 l 1
 430.205 196 l 1
 222.404 196 l 1
 117.668 -1 l 1
264.865 289 m 1
 417.396 289 l 1
 375.541 504.107 l 1
 264.865 289 l 1
EndSplineSet
EndChar

StartChar: C
Encoding: 67 67 72
Width: 600
Flags: W
TeX: 67 0
LayerCount: 2
Fore
SplineSet
104.89 356.853 m 0
 155.057 641.366 339.49 728 459.984 728 c 0
 561.775 728 643.338 668.599 668.283 576.11 c 0
 671.836 562.934 l 1
 565.408 514.616 l 1
 559.03 519.717 l 0
 548.232 528.354 551.264 541.878 551.527 543.375 c 0
 552.335 547.954 553.336 550.844 553.542 552.016 c 0
 553.866 553.851 554.069 552.765 552.423 556.852 c 0
 533.823 603.042 491.033 633.168 440.526 633.168 c 0
 350.844 633.168 246.625 542.39 215.134 363.792 c 0
 183.104 182.141 257.229 87.9941 351.171 87.9941 c 0
 402.062 87.9941 460.159 117.814 499.917 168.757 c 0
 510.272 182.025 l 1
 585.742 126.621 l 1
 575.925 114.169 l 0
 514.059 35.6973 420.337 -12.002 328.993 -12.002 c 0
 201.466 -12.002 56.4814 82.3174 104.89 356.853 c 0
EndSplineSet
EndChar

StartChar: B
Encoding: 66 66 73
Width: 600
Flags: W
TeX: 66 0
LayerCount: 2
Fore
SplineSet
51 0 m 1
 178.308 722 l 1
 398.308 722 l 0
 442.695 722 490.584 721.727 535.548 701.465 c 0
 603.412 670.878 632.881 606.149 620.907 538.245 c 0
 609.976 476.247 566.031 419.597 507.43 387.218 c 1
 571.538 352.011 603.966 282.671 590.505 206.33 c 0
 576.866 128.982 517.664 56.4062 428.464 22.0469 c 1
 369.433 -0.15625 319.38 0 270 0 c 0
 51 0 l 1
369.852 623 m 0
 270.852 623 l 1
 238.231 438 l 1
 336.231 438 l 0
 368.448 438 400.562 438.38 432.402 450.285 c 0
 475.622 466.445 502.021 498.238 507.733 530.628 c 0
 513.485 563.25 497.969 596.01 458.202 611.915 c 0
 431.326 622.665 400.747 623 369.852 623 c 0
323.951 340 m 0
 220.951 340 l 1
 178.809 101 l 1
 301.809 101 l 0
 332.979 101 360.903 101.681 390.834 113.489 c 0
 438.268 132.201 469.712 172.207 477.399 215.805 c 0
 485.167 259.856 467.473 303.115 423.141 324.605 c 0
 393.123 339.158 360.394 340 323.951 340 c 0
EndSplineSet
EndChar

StartChar: bracketleft
Encoding: 91 91 74
Width: 600
Flags: W
TeX: 98 0
LayerCount: 2
Fore
SplineSet
128.838 -103 m 1
 283.83 776 l 1
 644.83 776 l 1
 627.373 677 l 1
 370.373 677 l 1
 249.766 -7 l 1
 507.766 -7 l 1
 490.838 -103 l 1
 128.838 -103 l 1
EndSplineSet
EndChar

StartChar: bracketright
Encoding: 93 93 75
Width: 600
Flags: W
TeX: 98 0
LayerCount: 2
Fore
SplineSet
228.83 776 m 1
 589.83 776 l 1
 434.838 -103 l 1
 72.8379 -103 l 1
 89.7656 -7 l 1
 347.766 -7 l 1
 468.373 677 l 1
 211.373 677 l 1
 228.83 776 l 1
EndSplineSet
EndChar

StartChar: parenleft
Encoding: 40 40 76
Width: 600
Flags: W
TeX: 112 0
LayerCount: 2
Fore
SplineSet
593.86 770.73 m 0
 608.025 776.512 l 1
 639.102 682.825 l 1
 625.63 676.039 l 0
 617.668 672.028 610.841 671.812 608.128 671.812 c 0
 600.504 671.812 596.649 673.094 596.008 673.094 c 0
 595.686 673.094 594.985 672.699 592.877 671.602 c 0
 449.199 596.917 347.158 458.725 319.67 302.827 c 0
 289.748 133.132 352.165 -27.2158 490.469 -113.811 c 0
 502.513 -121.352 l 1
 434.261 -204.757 l 1
 423.066 -198.282 l 0
 251.269 -102.186 171.52 89.833 208.413 299.064 c 0
 245.612 510.033 394.783 691.731 593.86 770.73 c 0
EndSplineSet
EndChar

StartChar: parenright
Encoding: 41 41 77
Width: 600
Flags: W
TeX: 112 0
LayerCount: 2
Fore
SplineSet
211.784 673.891 m 0
 201.86 679.523 l 1
 249.645 776.805 l 1
 263.977 769.626 l 0
 442.259 683.233 534.466 496.041 498.155 290.117 c 0
 461.523 82.3691 300.424 -109.324 87.0947 -200.54 c 0
 70.1973 -207.971 l 1
 56.1104 -112.493 l 1
 68.1475 -106.824 l 0
 233.707 -28.8477 356.76 123.245 385.616 286.902 c 0
 414.074 448.291 346.635 597.356 211.784 673.891 c 0
EndSplineSet
EndChar

StartChar: three
Encoding: 51 51 78
Width: 600
Flags: W
TeX: 116 0
LayerCount: 2
Fore
SplineSet
415.204 724.29 m 0
 536.875 724.29 613.436 637.434 595.215 534.1 c 0
 584.124 471.196 539.242 414.829 480.752 384.117 c 1
 539.169 348.557 566.646 281.405 553.136 204.787 c 0
 532.785 89.3721 423.967 -12.1904 277.573 -12.1904 c 0
 201.366 -12.1904 133.443 17.752 92.0664 74.9688 c 0
 85.0742 84.6387 l 1
 181.934 180.354 l 1
 191.438 168.482 l 0
 205.423 151.012 198.466 138.69 201.017 135.104 c 0
 204.216 130.606 234.514 91.2617 295.089 91.2617 c 0
 370.914 91.2617 435.446 148.266 447.328 215.652 c 0
 459.823 286.514 406.044 330.579 312.978 330.579 c 0
 301.415 330.579 289.711 329.761 277.951 328.146 c 0
 260.437 325.741 l 1
 276.784 418.451 l 1
 291.757 418.482 l 0
 358.506 418.621 390.74 430.068 402.658 434.705 c 0
 450.313 453.247 481.057 493.481 487.442 529.696 c 0
 496.14 579.021 460.247 622.425 393.283 622.425 c 0
 352.912 622.425 307.46 604.824 270.785 571.767 c 0
 257.508 559.799 l 1
 205.196 632.085 l 1
 216.16 642.128 l 0
 273.536 694.684 345.797 724.29 415.204 724.29 c 0
EndSplineSet
EndChar

StartChar: D
Encoding: 68 68 79
Width: 600
Flags: W
TeX: 68 0
LayerCount: 2
Fore
SplineSet
56.8232 -1 m 1
 184.308 722 l 1
 368.308 722 l 0
 432.479 722 487.739 717.54 537.63 682.511 c 0
 625.925 620.518 645.967 497.86 622.034 362.131 c 0
 594.764 207.469 515.117 82.9355 395.061 28.418 c 0
 336.216 1.69531 284.522 -1 226.823 -1 c 0
 56.8232 -1 l 1
345.852 623 m 0
 273.852 623 l 1
 180.398 93 l 1
 239.398 93 l 0
 284.532 93 324.894 94.916 371.017 121.39 c 0
 429.437 154.922 485.931 224.46 508.364 351.688 c 0
 525.429 448.468 518.907 540.654 466.089 588.742 c 0
 431.049 620.644 390.953 623 345.852 623 c 0
EndSplineSet
EndChar

StartChar: E
Encoding: 69 69 80
Width: 600
Flags: W
TeX: 69 0
LayerCount: 2
Fore
SplineSet
63 0 m 1
 190.484 723 l 1
 663.484 723 l 1
 645.499 621 l 1
 279.499 621 l 1
 245.645 429 l 1
 547.645 429 l 1
 529.307 325 l 1
 227.307 325 l 1
 187.985 102 l 1
 550.985 102 l 1
 533 0 l 1
 63 0 l 1
EndSplineSet
EndChar

StartChar: V
Encoding: 86 86 81
Width: 600
Flags: W
TeX: 86 0
LayerCount: 2
Fore
SplineSet
273.354 -5 m 1
 145.582 723 l 1
 262.295 723 l 1
 344.162 201.585 l 1
 600.316 722 l 1
 712.11 722 l 1
 331.935 -5 l 1
 273.354 -5 l 1
EndSplineSet
EndChar

StartChar: percent
Encoding: 37 37 82
Width: 600
Flags: W
TeX: 112 0
LayerCount: 2
Fore
SplineSet
37.542 0 m 1
 581.47 722 l 1
 693.89 722 l 1
 145.795 0 l 1
 37.542 0 l 1
129.407 575.952 m 0
 145.513 667.289 222.854 735.106 301.523 735.106 c 0
 382.039 735.106 434.468 665.285 418.504 574.748 c 0
 402.918 486.356 326.952 416.982 246.478 416.982 c 0
 165.424 416.982 113.747 487.137 129.407 575.952 c 0
314.974 572.129 m 0
 327.083 640.802 294.317 644.005 283.886 644.005 c 0
 270.281 644.005 240.146 636.141 230.174 579.583 c 0
 218.67 514.339 249.8 508.911 261.884 508.911 c 0
 275.641 508.911 305.269 517.088 314.974 572.129 c 0
493.192 304.001 m 0
 573.613 304.001 625.398 234.678 609.777 146.086 c 0
 594.062 56.958 517.726 -12.124 437.558 -12.124 c 0
 357.054 -12.124 305.068 57.2119 320.684 145.77 c 0
 336.4 234.909 412.967 304.001 493.192 304.001 c 0
510.329 143.599 m 0
 521.246 205.51 491.576 214.005 477.055 214.005 c 0
 461.669 214.005 430.019 204.306 419.701 145.795 c 0
 409.663 88.8652 436.729 76.7695 453.84 76.7695 c 0
 469.166 76.7695 500.254 86.4609 510.329 143.599 c 0
EndSplineSet
EndChar

StartChar: J
Encoding: 74 74 83
Width: 600
Flags: W
TeX: 74 0
LayerCount: 2
Fore
SplineSet
304.028 624 m 1
 321.308 722 l 1
 681.309 722 l 1
 664.028 624 l 1
 553.028 624 l 1
 486.175 244.856 l 0
 477.447 195.362 468.038 139.759 428.372 86.167 c 1
 380.31 22.1299 306.738 -13 232.708 -13 c 0
 165.104 -13 104.477 18.0576 68.2861 72.3311 c 0
 61.9346 81.8564 l 1
 148.975 169.377 l 1
 158.866 159.389 l 0
 168.188 149.975 164.393 135.954 164.372 135.701 c 1
 171.428 126.781 204.256 89 252.693 89 c 0
 281.694 89 311.283 102.629 331.766 126.22 c 1
 359.259 157.139 367.872 197.739 375.012 238.234 c 0
 443.028 624 l 1
 304.028 624 l 1
EndSplineSet
EndChar

StartChar: K
Encoding: 75 75 84
Width: 600
Flags: W
TeX: 75 0
LayerCount: 2
Fore
SplineSet
44 0 m 1
 171.484 723 l 1
 296.727 723 l 1
 296.052 709.861 l 2
 295.249 694.229 283.355 684.268 281.082 681.812 c 0
 280.146 680.855 280.068 680.71 280.068 680.71 c 2
 279.781 679.393 279.779 679.303 279.55 678 c 2
 232.892 413.388 l 1
 570.51 729.753 l 1
 578.925 727.552 l 2
 596.286 723.011 614.788 722 634.309 722 c 2
 697.365 722 l 1
 354.869 407.101 l 1
 584.881 -1 l 1
 555.823 -1 l 2
 499.315 -1 453.42 -4.94434 453.42 -4.94434 c 1
 444.572 -5.69727 l 1
 262.351 351.975 l 1
 214.336 308.153 l 1
 160 0 l 1
 44 0 l 1
EndSplineSet
EndChar

StartChar: P
Encoding: 80 80 85
Width: 600
Flags: W
TeX: 80 0
LayerCount: 2
Fore
SplineSet
406.617 616 m 0
 285.56 616 l 1
 247.472 405 l 1
 378.412 405 l 0
 406.195 405 431.343 406.066 457.913 417.526 c 0
 497.083 434.42 522.715 469.101 529.521 507.699 c 0
 536.486 547.203 522.592 584.642 486.595 602.511 c 1
 462.034 615.004 436.465 616 406.617 616 c 0
63 0 m 1
 190.308 722 l 1
 425.308 722 l 0
 472.314 722 519.618 721.144 564.666 696.243 c 1
 631.85 659.656 656.417 586.506 643.2 511.552 c 0
 629.99 436.631 579.763 363.474 500.541 327.752 c 1
 448.909 304.785 402.676 304 357.604 304 c 0
 230.604 304 l 1
 177 0 l 1
 63 0 l 1
EndSplineSet
EndChar

StartChar: question
Encoding: 63 63 86
Width: 600
Flags: W
TeX: 113 0
LayerCount: 2
Fore
SplineSet
338.559 148.002 m 0
 384.61 148.002 415.675 111.571 407.727 66.4932 c 0
 399.775 21.4014 355.859 -15.0459 309.788 -15.0459 c 0
 263.794 -15.0459 232.722 21.3789 240.68 66.5088 c 0
 248.625 111.57 292.518 148.002 338.559 148.002 c 0
176.112 632.61 m 1
 184.825 643.166 l 2
 252.626 725.311 351.685 771.06 443.36 771.06 c 0
 583.399 771.06 645.807 666.753 625.509 551.639 c 0
 604.88 434.645 512.064 385.253 470.694 353.464 c 0
 419.598 314.202 413.562 286.751 406.553 247 c 0
 404.674 236.344 l 1
 298.674 236.344 l 1
 300.553 247 l 0
 309.884 299.917 322.659 346.954 386.968 406.113 c 0
 431.193 446.798 492.982 490.038 504.915 557.709 c 0
 515.572 618.15 477.947 665.153 416.918 665.153 c 0
 364.922 665.153 301.278 629.765 256.786 572.302 c 0
 244.452 556.372 l 1
 176.112 632.61 l 1
EndSplineSet
EndChar

StartChar: at
Encoding: 64 64 87
Width: 600
Flags: W
TeX: 97 0
LayerCount: 2
Fore
SplineSet
541.89 44.8877 m 1
 528.602 37.3242 l 2
 471.62 4.89258 409.703 -13 349.708 -13 c 0
 196.377 -13 48.3428 98.3584 95.1553 363.845 c 0
 140.833 622.896 318.016 733 453.248 733 c 0
 542.78 733 617.947 685.035 642.438 599.734 c 1
 658.756 541.906 649.479 484.776 640.024 431.158 c 0
 597.104 187.737 l 1
 497.104 187.737 l 1
 501.265 211.34 l 1
 468.116 189.678 431.468 178 394.386 178 c 0
 303.07 178 242.4 251.806 258.656 344 c 0
 270.692 412.258 324.55 479.726 407.557 510.941 c 1
 460.329 530.259 508.514 530 552.453 530 c 0
 553.687 530 l 1
 557.126 593.123 507.353 641 434.025 641 c 0
 344.903 641 226.825 560.467 192.667 366.745 c 0
 156.003 158.813 269.32 83 372.635 83 c 0
 414.731 83 456.86 95.1094 495.484 118.429 c 0
 510.685 127.606 l 1
 541.89 44.8877 l 1
538.233 421 m 0
 541.937 442 l 1
 537.937 442 l 0
 496.628 442 451.374 441.229 413.265 417.717 c 1
 382.623 398.39 365.572 371.881 361.186 347 c 0
 353.876 305.544 381.924 272 424.961 272 c 0
 452.567 272 483.959 287.071 504.479 316.785 c 1
 523.266 344.562 531.011 380.039 538.233 421 c 0
EndSplineSet
EndChar

StartChar: bar
Encoding: 124 124 88
Width: 600
Flags: W
TeX: 98 0
LayerCount: 2
Fore
SplineSet
209.853 -205 m 1
 379.303 756 l 1
 487.303 756 l 1
 317.853 -205 l 1
 209.853 -205 l 1
EndSplineSet
EndChar

StartChar: asciitilde
Encoding: 126 126 89
Width: 600
Flags: W
TeX: 97 0
LayerCount: 2
Fore
SplineSet
199.891 403.178 m 0
 189.489 389.97 l 1
 116.155 444.292 l 1
 125.591 456.615 l 0
 169.464 501.262 239.16 538.051 312.026 538.051 c 0
 417.745 538.051 442.682 480.999 494.077 480.999 c 0
 523.163 480.999 549.336 494.027 587.586 519.887 c 0
 599.271 532.703 l 1
 669.081 499.953 l 1
 659.694 488.734 l 0
 620.393 441.764 548.161 375.377 466.725 375.377 c 0
 361.52 375.377 344.973 437.595 289.335 437.595 c 0
 264.281 437.595 232.278 427.712 199.891 403.178 c 0
EndSplineSet
EndChar

StartChar: asciicircum
Encoding: 94 94 90
Width: 600
Flags: W
TeX: 97 0
LayerCount: 2
Fore
SplineSet
250.82 392.647 m 1
 173.188 433.611 l 1
 413.786 722 l 1
 456.331 722 l 1
 574.185 434.095 l 1
 477.848 392.468 l 1
 405.413 585.42 l 1
 250.82 392.647 l 1
EndSplineSet
EndChar

StartChar: cent
Encoding: 162 162 91
Width: 600
Flags: W
TeX: 99 0
LayerCount: 2
Fore
SplineSet
415.526 596.609 m 1
 454.675 724.418 l 1
 557.508 713.677 l 1
 556.698 701.977 l 0
 555.833 689.473 548.282 680.269 546.428 677.824 c 0
 542.002 671.986 542.423 673.526 540.613 667.749 c 0
 515.979 589.051 l 1
 574.547 573.732 612.652 541.005 633.581 499.177 c 0
 637.889 490.567 l 1
 557.064 407.907 l 1
 546.736 415.777 l 0
 535.781 424.126 538.828 437.381 539.074 438.777 c 0
 539.992 443.983 540.722 446.402 540.722 446.402 c 1
 540.585 446.722 540.512 446.877 540.165 447.374 c 0
 531.23 460.171 511.725 478.917 485.114 490.441 c 1
 373.634 134.289 l 1
 421.034 138.376 468.699 158.656 508.083 191.875 c 0
 522.448 203.992 l 1
 568.821 126.904 l 1
 558.906 118.06 l 0
 497.295 63.1016 418.893 34.5635 342.033 33.334 c 1
 302.598 -92.6514 l 1
 207.938 -81.1055 l 1
 247.351 47.5645 l 1
 139.318 83.8496 83.8818 186.48 106.728 316.045 c 0
 133.729 469.185 257.751 583.66 415.526 596.609 c 1
220.528 326.544 m 0
 205.147 239.311 230.647 177.484 278.715 147.3 c 1
 387.73 508.714 l 1
 307.126 495.741 239.312 433.075 220.528 326.544 c 0
EndSplineSet
EndChar

StartChar: euro
Encoding: 8364 8364 92
Width: 600
Flags: W
TeX: 78 0
LayerCount: 2
Fore
SplineSet
675.144 660.541 m 0
 680.639 653.768 l 1
 622.104 546.051 l 1
 608.141 559.387 l 0
 593.469 573.401 600.667 585.226 600.667 585.226 c 1
 598.517 588.319 566.825 631.167 498.047 631.167 c 0
 434.931 631.167 351.84 599.089 301.688 497.874 c 0
 301.229 496.948 300.735 495.936 300.28 495 c 1
 588.889 495 l 1
 535.591 398 l 1
 268.199 398 l 1
 264.259 381.548 260.688 364.502 257.182 344.613 c 0
 256.639 341.534 255.894 337.093 255.553 335 c 1
 500.98 335 l 1
 446.234 238 l 1
 248.688 238 l 1
 251.229 202.676 259.444 175.879 274.448 152.285 c 0
 303.973 105.855 354.749 86.791 404.239 86.791 c 0
 446.773 86.791 489.906 102.171 525.911 130.147 c 0
 541.966 142.622 l 1
 575.291 57.7471 l 1
 564.61 49.6865 l 0
 510.211 8.62988 445.87 -13.127 381.918 -13.127 c 0
 284.181 -13.127 144.626 38.4023 144.087 238 c 1
 71.2363 238 l 1
 110.057 335 l 1
 153.396 335 l 1
 153.698 336.755 153.783 337.237 154.005 338.496 c 0
 157.507 358.356 161.672 378.359 166.468 398 c 1
 99.4482 398 l 1
 138.269 495 l 1
 197.511 495 l 1
 212.948 531.406 231.412 564.312 255.432 594.847 c 0
 335.889 697.129 443.299 727.394 519.615 727.394 c 0
 584.326 727.394 639.6 704.349 675.144 660.541 c 0
EndSplineSet
EndChar

StartChar: sterling
Encoding: 163 163 93
Width: 600
Flags: W
TeX: 115 0
LayerCount: 2
Fore
SplineSet
620.349 659.055 m 0
 628.993 649.596 l 1
 545.091 563.383 l 1
 534.972 571.903 l 0
 521.66 583.113 522.486 596.623 521.787 597.577 c 0
 519.736 600.373 494.49 626.128 451.751 626.128 c 0
 397.852 626.128 336.831 590.096 322.386 508.175 c 0
 319.226 490.253 318.652 471.923 319.277 453 c 1
 436.876 453 l 1
 419.949 357 l 1
 324.537 357 l 1
 326.11 326.236 325.958 297.297 320.151 264.365 c 0
 311.895 217.537 293.219 173.195 266.438 134.103 c 1
 269.817 134.156 268.999 134.144 270.716 134.144 c 0
 354.525 134.144 395.644 88.916 454.037 88.916 c 0
 482.236 88.916 510.815 99.4473 534.945 117.395 c 0
 551.505 129.712 l 1
 581.38 41.9316 l 1
 570.376 34.2588 l 0
 539.276 12.5723 487.105 -17.1631 431.114 -17.1631 c 0
 349.283 -17.1631 310.981 34.666 233.785 34.666 c 0
 212.347 34.666 170.025 31.0801 90.7295 -7.26172 c 0
 75.3408 -14.7021 l 1
 48.5264 75.7158 l 1
 63.1201 81.7256 l 0
 122.471 106.166 131.773 109.023 152.143 133.126 c 0
 182.633 169.204 203.809 213.212 212.188 260.736 c 0
 217.879 293.007 217.047 326.577 214.943 357 c 1
 135.949 357 l 1
 152.876 453 l 1
 210.153 453 l 1
 210.14 471.76 211.269 489.648 214.648 508.816 c 0
 237.75 639.836 355.451 722.006 470.68 722.006 c 0
 529.678 722.006 583.187 699.711 620.349 659.055 c 0
EndSplineSet
EndChar

StartChar: Y
Encoding: 89 89 94
Width: 600
Flags: W
TeX: 89 0
LayerCount: 2
Fore
SplineSet
300.184 284.606 m 1
 146.064 723 l 1
 271.72 723 l 1
 380.392 391.628 l 1
 589.672 722 l 1
 708.913 722 l 1
 418.222 284.822 l 1
 368 0 l 1
 250 0 l 1
 300.184 284.606 l 1
EndSplineSet
EndChar

StartChar: yen
Encoding: 165 165 95
Width: 600
Flags: W
TeX: 121 0
LayerCount: 2
Fore
SplineSet
313.57 337.842 m 1
 153.679 723 l 1
 278.305 723 l 1
 386.651 437.851 l 1
 582.133 722 l 1
 702.27 722 l 1
 422.61 338.066 l 1
 421.717 333 l 1
 577.717 333 l 1
 560.789 237 l 1
 404.789 237 l 1
 397.207 194 l 1
 553.207 194 l 1
 536.456 99 l 1
 380.456 99 l 1
 363 0 l 1
 254 0 l 1
 271.456 99 l 1
 109.456 99 l 1
 126.207 194 l 1
 288.207 194 l 1
 295.789 237 l 1
 133.789 237 l 1
 150.717 333 l 1
 312.717 333 l 1
 313.57 337.842 l 1
EndSplineSet
EndChar

StartChar: Z
Encoding: 90 90 96
Width: 600
Flags: W
TeX: 90 0
LayerCount: 2
Fore
SplineSet
176.146 619 m 1
 194.308 722 l 1
 670.573 722 l 1
 656.404 649.233 l 1
 214.325 101 l 1
 528.809 101 l 0
 536.827 101 542.234 108 561.043 108 c 0
 580.043 108 l 1
 560.823 -1 l 1
 52.8232 -1 l 1
 65.6455 71.7178 l 1
 514.338 619 l 1
 176.146 619 l 1
EndSplineSet
EndChar

StartChar: Q
Encoding: 81 81 97
Width: 600
Flags: W
TeX: 81 0
LayerCount: 2
Fore
SplineSet
527.854 525.979 m 1
 508.323 601.49 455.286 626 410.381 626 c 0
 343.121 626 238.439 569.62 203.814 373.253 c 0
 166.172 159.77 249.361 94 321.575 94 c 0
 373.449 94 485.346 126.729 524.475 348.641 c 0
 534.552 405.79 541.752 470.306 527.854 525.979 c 1
630.365 589.405 m 1
 656.507 511.913 645.79 424.157 634.156 358.177 c 0
 623.19 295.989 602.957 208.266 549.498 130.789 c 1
 496.583 54.8418 425.725 10.3174 357.816 -4.99609 c 1
 355.21 -37.8799 360.513 -65 416.539 -65 c 0
 441.028 -65 472.815 -61.0547 510.783 -59.0215 c 0
 527.153 -58.1455 l 1
 505.002 -168 l 1
 424.377 -168 l 0
 377.233 -168 340.55 -166.198 308.171 -148.443 c 1
 257.229 -121.109 246.603 -67.5938 256.104 -5.54395 c 1
 148.912 17.0684 50.1572 119.99 92.832 362.009 c 0
 142.023 640.985 315.813 730 432.719 730 c 0
 517.39 730 597.652 684.477 630.365 589.405 c 1
EndSplineSet
EndChar

StartChar: thorn
Encoding: 254 254 98
Width: 600
Flags: W
TeX: 116 0
LayerCount: 2
Fore
SplineSet
30.9688 -193 m 1
 200.771 770 l 1
 322.771 770 l 1
 319.774 753 l 0
 315.877 730.896 307.54 728.987 305.427 717 c 0
 263.027 476.542 l 1
 311.01 518.242 368.501 541 426.393 541 c 0
 539.326 541 641.125 454.41 608.717 270.615 c 0
 575.197 80.5166 438.937 -14 321.531 -14 c 0
 266.824 -14 218.512 8.31152 187.751 43.959 c 1
 145.969 -193 l 1
 30.9688 -193 l 1
488.777 253.947 m 0
 518.744 423.895 418.644 440 378.584 440 c 0
 329.777 440 282.647 416.11 258.33 377.432 c 1
 243.903 355.536 236.911 328.433 229.624 287.105 c 0
 217.068 215.896 211.007 177.949 219.042 148.847 c 1
 230.355 110.963 270.501 90 315.869 90 c 0
 360.738 90 463.376 109.886 488.777 253.947 c 0
EndSplineSet
EndChar

StartChar: plusminus
Encoding: 177 177 100
Width: 600
Flags: W
TeX: 112 0
LayerCount: 2
Fore
SplineSet
48.8818 5 m 1
 67.043 108 l 1
 574.043 108 l 1
 555.882 5 l 1
 48.8818 5 l 1
EndSplineSet
Refer: 28 43 N 1 0 0 1 10.5796 60 2
EndChar

StartChar: R
Encoding: 82 82 101
Width: 600
Flags: W
TeX: 82 0
LayerCount: 2
Fore
SplineSet
60 0 m 1
 187.308 722 l 1
 415.308 722 l 0
 462.028 722 510.627 721.173 555.702 697.126 c 0
 621.535 662.007 647.484 591.752 634.388 517.476 c 0
 618.162 425.453 547.293 345.123 458.036 315.073 c 1
 572.677 0 l 1
 447.742 0 l 1
 341.346 304 l 1
 225.604 304 l 1
 172 0 l 1
 60 0 l 1
396.617 616 m 0
 280.617 616 l 1
 243.412 405 l 1
 368.412 405 l 0
 396.812 405 421.311 405.795 447.636 417.275 c 0
 486.771 434.339 512.723 469.128 519.521 507.686 c 0
 526.466 547.067 512.256 584.62 476.221 603.016 c 0
 452.44 615.155 426.708 616 396.617 616 c 0
EndSplineSet
EndChar

StartChar: X
Encoding: 88 88 102
Width: 600
Flags: W
TeX: 88 0
LayerCount: 2
Fore
SplineSet
381.959 464.76 m 1
 567.556 723 l 1
 682.142 723 l 1
 429.539 369.967 l 1
 577.439 0 l 1
 452.216 0 l 1
 348.344 270.047 l 1
 154.949 0 l 1
 31.9355 0 l 1
 302.256 367.877 l 1
 163.222 723 l 1
 284.319 723 l 1
 381.959 464.76 l 1
EndSplineSet
EndChar

StartChar: six
Encoding: 54 54 103
Width: 600
Flags: W
TeX: 115 0
LayerCount: 2
Fore
SplineSet
201.56 548.371 m 1
 269.67 674.584 379.266 730 471.719 730 c 0
 533.811 730 590.988 704.436 627.913 659.607 c 0
 636.217 649.526 l 1
 547.054 566.934 l 1
 537.542 574.869 l 0
 522.688 587.262 523.611 602.393 523.611 602.393 c 0
 521.598 604.839 496.376 628 453.733 628 c 0
 411.896 628 309.519 607.77 260.318 425.367 c 1
 302.18 460.618 354.26 481 405.813 481 c 0
 517.053 481 602.692 389.572 575.862 237.411 c 0
 549.224 86.3398 430.275 -12 310.884 -12 c 0
 241.844 -12 177.919 21.3057 144.764 86.7686 c 0
 108.538 158.167 116.695 247.811 131.217 330.166 c 0
 143.046 397.252 163.447 479.489 201.56 548.371 c 1
466.018 232.623 m 0
 485.896 345.363 429.048 380 380.004 380 c 0
 334.715 380 279.549 348.819 239.094 297.622 c 1
 237.063 289.845 236.077 284.003 234.729 276.361 c 0
 215.02 164.58 262.535 90 331.869 90 c 0
 383.972 90 448.208 131.617 466.018 232.623 c 0
EndSplineSet
EndChar

StartChar: nine
Encoding: 57 57 104
Width: 600
Flags: W
TeX: 110 0
LayerCount: 2
Fore
SplineSet
528.062 158.839 m 1
 461.451 42.8818 354.13 -12 259.884 -12 c 0
 195.849 -12 139.618 13.6367 101.793 58.2695 c 0
 93.251 68.3486 l 1
 182.113 150.663 l 1
 191.619 143.481 l 0
 208.674 130.597 206.294 115.019 206.413 114.892 c 1
 209.472 112.447 236.732 92 280.222 92 c 0
 327.166 92 384.696 112.935 423.738 173.741 c 1
 431.636 187.183 452.35 222.724 471.45 297.859 c 1
 429.104 264.82 380.193 247 330.553 247 c 0
 216.33 247 134.149 341.127 159.107 482.666 c 0
 184.182 624.873 301.911 729 424.542 729 c 0
 505.938 729 586.256 680.406 606.404 568.387 c 1
 615.511 519.072 612.719 457.777 597.162 369.553 c 0
 576.892 254.594 546.456 192.001 528.062 158.839 c 1
268.625 485.602 m 0
 251.784 390.096 301.755 348 356.361 348 c 0
 401.164 348 453.896 376.186 491.714 421.779 c 1
 494.69 433.093 496.871 441.629 498.434 450.49 c 0
 518.652 565.159 467.787 627 404.557 627 c 0
 348.832 627 285.257 579.928 268.625 485.602 c 0
EndSplineSet
EndChar

StartChar: seven
Encoding: 55 55 105
Width: 600
Flags: W
TeX: 115 0
LayerCount: 2
Fore
SplineSet
194.441 615 m 1
 213.308 722 l 1
 652.309 722 l 1
 641.619 661.381 l 1
 639.875 658.621 l 0
 572.263 551.654 507.582 443.355 445.938 333.903 c 0
 385.74 227.029 328.44 119.052 274.117 10.1426 c 0
 269.059 0 l 1
 146.26 0 l 1
 156.065 18.7812 l 0
 220.796 142.753 288.578 265.709 359.331 387.497 c 0
 403.565 463.636 449.792 540.669 495.795 615 c 1
 194.441 615 l 1
EndSplineSet
EndChar

StartChar: W
Encoding: 87 87 106
Width: 600
Flags: W
TeX: 87 0
LayerCount: 2
Fore
SplineSet
132.322 -5 m 1
 139.725 722 l 1
 245.102 722 l 1
 237.994 291.015 l 1
 405.438 669 l 1
 453.475 669 l 1
 487.826 293.197 l 1
 621.193 722 l 1
 719.843 722 l 1
 472.949 -5 l 1
 416.52 -5 l 1
 380.321 427.827 l 1
 189.67 -5 l 1
 132.322 -5 l 1
EndSplineSet
EndChar

StartChar: acute
Encoding: 180 180 107
Width: 600
Flags: W
TeX: 78 0
LayerCount: 2
Fore
SplineSet
334.743 619.888 m 1
 487.184 816.25 l 1
 574.667 749.645 l 1
 408.395 570.15 l 1
 334.743 619.888 l 1
EndSplineSet
EndChar

StartChar: oslash
Encoding: 248 248 123
Width: 600
Flags: W
TeX: 111 0
LayerCount: 2
Fore
SplineSet
417.451 433.452 m 1
 404.18 438.258 392.617 440.103 379.36 440.103 c 0
 308.535 440.103 226.42 376.773 204.562 252.806 c 0
 196.885 209.269 199.518 171.694 208.438 143.076 c 1
 417.451 433.452 l 1
559.354 475.891 m 1
 601.347 428.037 620.946 356.348 604.454 262.814 c 0
 573.877 89.4023 436.789 -14 302.5 -14 c 0
 267.276 -14 233.013 -5.82422 205.726 7.27344 c 1
 143.18 -79.0439 l 1
 64.459 -34.2959 l 1
 134.109 58.8018 l 1
 92.082 108.594 73.2949 178.23 87.752 260.22 c 0
 116.354 422.438 258.665 541.005 402.834 541.005 c 0
 431.488 541.005 458.92 535.78 483.953 525.842 c 1
 541.815 606.229 l 1
 622.039 559.105 l 1
 559.354 475.891 l 1
492.453 273.844 m 0
 501.542 325.39 497.888 365.559 487.081 395.556 c 1
 272.386 99.2656 l 1
 288.514 91.293 303.43 87.9932 321.13 87.9932 c 0
 388.458 87.9932 469.995 146.478 492.453 273.844 c 0
EndSplineSet
EndChar

StartChar: uni02CB
Encoding: 715 715 130
Width: 600
Flags: W
TeX: 78 0
LayerCount: 2
Fore
SplineSet
329.698 749.645 m 1
 440.67 816.25 l 1
 523.863 619.888 l 1
 432.671 570.15 l 1
 329.698 749.645 l 1
EndSplineSet
EndChar

StartChar: dotlessi
Encoding: 305 305 136
Width: 600
Flags: W
TeX: 78 0
LayerCount: 2
Fore
SplineSet
324.589 432 m 1
 196.587 432 l 1
 213.866 530 l 1
 456.331 530 l 1
 388.018 168.007 l 1
 386.117 156.273 384.309 143.517 384.27 133.08 c 0
 384.19 111.019 388.19 103 407.806 103 c 0
 431.086 103 451.649 106.897 482.349 108.966 c 0
 501.842 110.28 l 1
 480.185 0 l 1
 413.954 0 l 0
 376.715 0 337.979 0.963807 310.238 19.3776 c 1
 266.37 47.8565 262.138 100.821 273.561 161.399 c 0
 273.912 163.259 274.088 164.198 274.442 166.072 c 0
 324.589 432 l 1
EndSplineSet
EndChar

StartChar: circumflex
Encoding: 710 710 137
Width: 600
Flags: W
TeX: 78 0
LayerCount: 2
Fore
SplineSet
308.465 554.131 m 1
 252.866 614.324 l 1
 426.746 794 l 1
 466.324 794 l 1
 576.22 612.104 l 1
 487.699 554.107 l 1
 420.75 669.54 l 1
 308.465 554.131 l 1
EndSplineSet
EndChar

StartChar: tilde
Encoding: 732 732 138
Width: 600
Flags: W
TeX: 78 0
LayerCount: 2
Fore
SplineSet
294.907 653.097 m 0
 284.09 639.511 l 1
 217.108 694.009 l 1
 226.808 706.012 l 0
 279.32 755.858 330.947 783.268 384.141 783.268 c 0
 438.562 783.268 468.822 757.643 481.544 747.815 c 0
 498.578 734.654 511.492 726.93 524.835 726.93 c 0
 542.392 726.93 553.913 734.98 584.533 751.93 c 0
 597.801 766.393 l 1
 655.159 727.743 l 1
 645.228 717.606 l 0
 596.847 668.221 555.031 629.754 503.692 629.754 c 0
 423.656 629.754 398.838 687.432 364.057 687.432 c 0
 343.925 687.432 328.313 678.065 294.907 653.097 c 0
EndSplineSet
EndChar

StartChar: dieresis
Encoding: 168 168 139
Width: 600
Flags: W
TeX: 78 0
LayerCount: 2
Fore
SplineSet
461.396 695.534 m 0
 468.646 736.658 507.908 770.034 549.031 770.034 c 0
 590.156 770.034 617.646 736.658 610.396 695.534 c 0
 603.145 654.41 563.883 621.034 522.759 621.034 c 0
 481.635 621.034 454.145 654.41 461.396 695.534 c 0
234.885 695.519 m 0
 242.136 736.643 281.397 770.019 322.521 770.019 c 0
 363.646 770.019 391.136 736.643 383.885 695.519 c 0
 376.634 654.395 337.372 621.019 296.248 621.019 c 0
 255.124 621.019 227.634 654.395 234.885 695.519 c 0
EndSplineSet
EndChar

StartChar: germandbls
Encoding: 223 223 144
Width: 600
Flags: W
TeX: 103 0
LayerCount: 2
Fore
SplineSet
168 0 m 1
 59 0 l 1
 144.062 482.414 l 0
 152.957 532.855 162.864 586.455 197.463 640.755 c 0
 250.576 726.9 339.22 775.004 423.953 775.004 c 0
 547.62 775.004 631.22 674.94 610.267 556.108 c 0
 599.969 497.704 562.312 444.676 510.669 411.725 c 1
 582.342 375.922 615.725 298.98 600.47 212.466 c 0
 578.091 85.5498 460.663 -12.0293 333.291 -12.0293 c 0
 287.721 -12.0293 245.367 1.33008 211.445 26.4521 c 0
 200.536 34.5312 l 1
 274.446 126.107 l 1
 285.71 115.772 l 0
 302.487 100.379 325.217 91.9658 350.26 91.9658 c 0
 415.166 91.9658 481.642 144.673 494.287 216.391 c 0
 503.486 268.557 481.52 314.259 446.314 337.376 c 0
 420.096 354.592 393.189 356.947 355.939 356.947 c 0
 305.939 356.947 l 1
 321.843 447.142 l 1
 369.843 447.142 l 0
 386.938 447.142 400.465 447.591 418.222 454.541 c 0
 458.408 470.27 493.356 511.783 501.527 558.125 c 0
 513.661 626.94 471.287 678.194 411.35 678.194 c 0
 378.292 678.194 340.257 662.301 309.606 626.86 c 0
 272.629 585.673 261.963 532.889 253.314 483.844 c 0
 168 0 l 1
EndSplineSet
EndChar

StartChar: paragraph
Encoding: 182 182 145
Width: 600
Flags: W
TeX: 112 0
LayerCount: 2
Fore
SplineSet
495.948 771 m 0
 675.948 771 l 1
 526.07 -79 l 1
 429.07 -79 l 1
 562.021 675 l 1
 484.021 675 l 1
 351.07 -79 l 1
 252.07 -79 l 1
 329.197 358.411 l 1
 213.764 372.167 140.213 460.909 158.756 566.072 c 0
 171.892 640.568 230.241 711.16 318.361 745.449 c 0
 381.988 771.045 442.249 771 495.948 771 c 0
EndSplineSet
EndChar

StartChar: section
Encoding: 167 167 146
Width: 600
Flags: W
TeX: 115 0
LayerCount: 2
Fore
SplineSet
618.899 668.414 m 0
 623.031 657.877 l 1
 526.695 583.602 l 1
 518.172 591.032 l 0
 504.833 602.66 509.419 621.547 509.396 621.676 c 0
 505.492 642.865 482.252 679.915 428.239 679.915 c 0
 373.535 679.915 331.816 645.518 325.341 608.794 c 0
 322.199 590.979 324.57 562.042 366.35 538.715 c 0
 394.166 523.182 436.354 513.474 480.823 491.266 c 0
 558.432 452.509 579.508 398.873 571.271 352.157 c 0
 563.083 305.722 526.008 265.877 479.324 241.764 c 1
 514.848 206.571 526.46 160.413 518.468 115.084 c 0
 501.549 19.1318 398.613 -63.0205 274.662 -63.0205 c 0
 192.941 -63.0205 120.012 -25.4287 80.4658 41.8955 c 0
 74.792 51.5557 l 1
 166.353 139.979 l 1
 175.64 135.883 l 0
 193.973 127.799 188.5 107.131 188.5 107.131 c 1
 190.558 99.5986 216.434 43.7598 293.739 43.7598 c 0
 358.666 43.7598 399.446 80.6221 405.866 117.033 c 0
 409.546 137.904 403.507 163.597 371.729 183.675 c 0
 332.615 208.389 266.852 212.813 211.424 247.78 c 0
 161.858 279.051 143.772 323.794 151.541 367.849 c 0
 160.325 417.671 201.299 459.441 251.294 482.997 c 1
 213.4 517.972 203.26 563.499 210.698 605.681 c 0
 227.31 699.889 329.834 778.269 445.166 778.269 c 0
 527.018 778.269 592.37 736.05 618.899 668.414 c 0
406.188 411.302 m 0
 382.441 424.136 349.736 432.442 317.194 445.745 c 1
 293.13 436.295 274.076 414.66 269.632 389.457 c 0
 266.036 369.064 270.57 339.009 311.02 317.35 c 0
 338.622 302.57 375.721 296.472 413.63 281.161 c 1
 433.233 292.601 447.402 311.633 451.297 333.72 c 0
 455.009 354.772 451.066 387.045 406.188 411.302 c 0
EndSplineSet
EndChar

StartChar: copyright
Encoding: 169 169 147
Width: 600
Flags: W
TeX: 99 0
LayerCount: 2
Fore
SplineSet
184.17 319.43 m 0
 203.083 426.69 301.461 506.091 402.857 506.091 c 0
 482.209 506.091 536.308 456.075 540.909 387.549 c 0
 541.771 374.72 l 1
 453.801 343.133 l 1
 448.401 351.453 l 0
 438.764 366.306 446.129 381.058 446.129 381.058 c 0
 445.887 384.572 438.615 418.152 389.847 418.152 c 0
 341.297 418.152 291.687 389.557 280.654 326.991 c 0
 269.446 263.426 304.553 216.947 355.487 216.947 c 0
 386.211 216.947 417.471 233.971 436.824 261.098 c 0
 447.193 275.633 l 1
 515.273 224.2 l 1
 504.856 211.74 l 0
 460.92 159.186 396.667 125.974 334.343 125.974 c 0
 230.988 125.974 165.795 215.219 184.17 319.43 c 0
655.49 303.262 m 0
 624.894 129.739 466.837 -8.1123 304.787 -8.1123 c 0
 142.58 -8.1123 33.5967 129.577 64.0654 302.375 c 0
 94.6855 476.032 252.777 614.02 415.034 614.02 c 0
 576.861 614.02 686.03 476.463 655.49 303.262 c 0
402.477 535 m 0
 286.838 535 170.355 434.589 147.117 302.799 c 0
 124.091 172.206 204.659 71.9102 320.506 71.9102 c 0
 435.955 71.9102 552.356 172.13 575.553 303.685 c 0
 598.686 434.875 517.936 535 402.477 535 c 0
EndSplineSet
EndChar

StartChar: registered
Encoding: 174 174 148
Width: 600
Flags: W
TeX: 114 0
LayerCount: 2
Fore
SplineSet
375.82 430 m 2
 333.82 430 l 1
 321.125 358 l 1
 366.125 358 l 2
 385.448 358 404.839 358.749 419.477 367.481 c 2
 420.004 367.796 l 1
 420.547 368.074 l 2
 432.688 374.287 438.663 383.739 440.473 394 c 0
 442.156 403.545 439.281 414.388 427.105 421.888 c 0
 415.039 429.319 395.03 430 375.82 430 c 2
263.167 500.021 m 1
 206.758 458.101 163.319 393.128 150.072 318 c 0
 127.057 187.472 207.405 87 323.341 87 c 0
 376.88 87 430.827 108.81 475.527 145.408 c 1
 406.309 135.591 l 1
 359.425 282 l 1
 307.725 282 l 1
 282.51 139 l 1
 199.51 139 l 1
 263.167 500.021 l 1
655.427 303 m 0
 624.792 129.259 466.403 -8 304.59 -8 c 0
 142.748 -8 33.7979 129.291 64.251 302 c 0
 94.8691 475.646 252.375 614 415.265 614 c 0
 577.129 614 686.05 476.67 655.427 303 c 0
402.335 535 m 0
 356.403 535 310.489 519.23 270.347 492 c 1
 385.753 492 l 2
 411.737 492 440.969 492.317 469.433 479.823 c 0
 510.582 460.392 528.073 420.088 520.828 379 c 0
 513.374 336.729 480.976 298.975 441.794 281.869 c 1
 488.684 144.329 l 1
 532.081 185.421 564.524 241.169 575.604 304 c 0
 598.619 434.528 518.27 535 402.335 535 c 0
EndSplineSet
EndChar

StartChar: uni00B9
Encoding: 185 185 149
Width: 600
Flags: W
TeX: 117 0
LayerCount: 2
Fore
SplineSet
500.248 733 m 1
 422.664 293 l 1
 318.664 293 l 1
 376.608 621.621 l 1
 267.101 594.505 l 1
 246.171 654.054 l 1
 431.404 733 l 1
 500.248 733 l 1
EndSplineSet
EndChar

StartChar: guilsinglleft
Encoding: 8249 8249 150
Width: 600
Flags: W
TeX: 78 0
LayerCount: 2
Fore
SplineSet
215.781 299.34 m 1
 438.191 474.641 l 1
 491.367 404.827 l 1
 328.942 278.416 l 1
 450.163 127.138 l 1
 371.247 60.0518 l 1
 208.856 260.064 l 1
 215.781 299.34 l 1
EndSplineSet
EndChar

StartChar: guilsinglright
Encoding: 8250 8250 152
Width: 600
Flags: W
TeX: 78 0
LayerCount: 2
Fore
SplineSet
474.781 299.34 m 1
 467.856 260.064 l 1
 234.931 60.0518 l 1
 179.673 127.138 l 1
 354.242 278.416 l 1
 236.396 404.827 l 1
 314.193 474.641 l 1
 474.781 299.34 l 1
EndSplineSet
EndChar

StartChar: guillemotright
Encoding: 187 187 153
Width: 600
Flags: W
TeX: 103 0
LayerCount: 2
Fore
SplineSet
384.781 299.34 m 1
 377.856 260.064 l 1
 144.931 60.0518 l 1
 89.6729 127.138 l 1
 264.242 278.416 l 1
 146.397 404.827 l 1
 224.193 474.641 l 1
 384.781 299.34 l 1
594.781 299.34 m 1
 587.856 260.064 l 1
 354.931 60.0518 l 1
 299.673 127.138 l 1
 474.242 278.416 l 1
 356.396 404.827 l 1
 434.193 474.641 l 1
 594.781 299.34 l 1
EndSplineSet
EndChar

StartChar: logicalnot
Encoding: 172 172 154
Width: 600
Flags: W
TeX: 108 0
LayerCount: 2
Fore
SplineSet
156.366 314 m 1
 174.528 417 l 1
 578.528 417 l 1
 534.446 167 l 1
 430.446 167 l 1
 456.366 314 l 1
 156.366 314 l 1
EndSplineSet
EndChar

StartChar: degree
Encoding: 176 176 156
Width: 600
Flags: W
TeX: 100 0
LayerCount: 2
Fore
SplineSet
436.919 740.008 m 0
 531.656 740.008 596.183 670.242 581.056 584.452 c 0
 565.929 498.662 476.802 428.902 382.066 428.902 c 0
 287.371 428.902 222.827 498.653 237.96 584.475 c 0
 253.084 670.25 342.197 740.008 436.919 740.008 c 0
482.427 586.094 m 0
 488.795 622.208 460.102 649.001 422.072 649.001 c 0
 383.998 649.001 345.684 622.177 339.277 585.845 c 0
 332.908 549.722 361.604 522.878 399.789 522.878 c 0
 437.695 522.878 476.002 549.657 482.427 586.094 c 0
EndSplineSet
EndChar

StartChar: uni00B2
Encoding: 178 178 157
Width: 600
Flags: W
TeX: 117 0
LayerCount: 2
Fore
SplineSet
228.729 622.306 m 1
 237.871 634.476 l 2
 286.979 699.845 363.937 738.288 439.277 738.288 c 0
 537.815 738.288 599.086 681.033 586.567 610.039 c 0
 576.881 555.105 528.44 518.67 509.017 504.804 c 0
 459.753 465.748 401.922 438.627 338.242 386 c 1
 514.062 386 l 0
 514.591 386 515.087 386.015 515.262 386.019 c 1
 516.16 386.622 516.142 386.615 516.86 387.152 c 0
 517.94 387.961 532.243 400.938 548.416 395.236 c 0
 558.09 391.826 l 1
 540.664 293 l 1
 186.664 293 l 1
 199.157 363.855 l 1
 202.696 367.789 l 0
 283.596 450.628 379.995 502.903 417.934 527.582 c 0
 455.683 552.137 480.393 574.381 484.653 598.542 c 0
 488.969 623.017 470.391 648.917 421.298 648.917 c 0
 382.022 648.917 344.418 628.104 322.738 605.68 c 0
 318.844 601.651 319.354 598.38 309.247 584.008 c 0
 298.9 569.294 l 1
 228.729 622.306 l 1
EndSplineSet
EndChar

StartChar: eth
Encoding: 240 240 158
Width: 600
Flags: W
TeX: 101 0
LayerCount: 2
Fore
SplineSet
491.325 268.385 m 0
 516.216 409.545 435.593 440.011 382.813 440.011 c 0
 313.68 440.011 228.465 388.305 207.396 268.814 c 0
 186.409 149.799 248.858 87.9971 321.613 87.9971 c 0
 378.124 87.9971 466.236 126.099 491.325 268.385 c 0
647.988 664.05 m 1
 550.755 637.798 l 1
 603.235 559.135 637.243 447.612 610.182 294.138 c 0
 599.489 233.501 579.43 159.937 528.383 96.6846 c 0
 470.412 24.8545 386.204 -14.0059 304.214 -14.0059 c 0
 161.395 -14.0059 59.4268 100.09 87.3252 258.309 c 0
 115.014 415.341 254.715 541.31 393.466 541.31 c 0
 429.029 541.31 461.31 532.109 488.105 515.968 c 1
 475.354 550.391 459.32 580.32 439.815 607.844 c 1
 280.478 564.825 l 1
 263.363 648.107 l 1
 376.075 677.494 l 1
 350.541 699.199 324.029 716.528 293.792 731.323 c 0
 254.665 750.467 l 1
 404.998 779.808 l 1
 409.378 777.071 l 0
 435.29 760.874 466.649 737.328 494.865 708.466 c 1
 631.326 744.045 l 1
 647.988 664.05 l 1
EndSplineSet
EndChar

StartChar: Eth
Encoding: 208 208 159
Width: 600
Flags: W
TeX: 69 0
LayerCount: 2
Fore
SplineSet
161.997 431 m 1
 213.308 722 l 1
 390.308 722 l 0
 454.047 722 507.577 715.965 554.432 677.906 c 1
 635.843 612.219 650.542 485.131 629.328 364.821 c 0
 602.744 214.06 518.357 74.9141 390.121 21.4707 c 1
 342.66 1.88965 300.257 -1 248.823 -1 c 0
 85.8232 -1 l 1
 144.894 334 l 1
 88.8936 334 l 1
 105.997 431 l 1
 161.997 431 l 1
370.894 334 m 1
 249.894 334 l 1
 207.928 96 l 1
 261.928 96 l 0
 302.609 96 337.476 97.8047 379.055 121.924 c 0
 449.158 162.498 501.07 249.938 519.644 355.269 c 0
 532.853 430.18 530.135 511.573 498.433 564.524 c 0
 463.724 622.708 412.473 624 368.028 624 c 0
 301.028 624 l 1
 266.997 431 l 1
 387.997 431 l 1
 370.894 334 l 1
EndSplineSet
EndChar

StartChar: Thorn
Encoding: 222 222 160
Width: 600
Flags: W
TeX: 84 0
LayerCount: 2
Fore
SplineSet
63 0 m 1
 190.308 722 l 1
 307.055 722 l 1
 308.717 711.824 l 0
 309.24 708.796 309.208 705.636 308.65 702.474 c 0
 306.463 690.069 297.462 682.084 295.964 680.263 c 0
 293.989 677.864 294.821 679.541 294.195 675.988 c 0
 278.923 589.377 l 1
 401.923 589.377 l 0
 448.587 589.377 496.415 588.377 540.924 563.909 c 0
 608.319 526.861 632.808 452.521 619.48 376.936 c 0
 606.121 301.175 555.695 228.251 476.831 192.366 c 0
 425.312 168.923 378.675 168 333.623 168 c 0
 204.623 168 l 1
 175 0 l 1
 63 0 l 1
385.282 495 m 0
 262.282 495 l 1
 222.432 269 l 1
 354.432 269 l 0
 382.831 269 407.34 269.852 433.81 282.147 c 0
 473.158 300.425 499.546 337.688 506.828 378.986 c 0
 514.267 421.168 500.527 461.388 464.723 481.092 c 0
 441.096 494.095 415.372 495 385.282 495 c 0
EndSplineSet
EndChar

StartChar: ring
Encoding: 730 730 161
Width: 600
Flags: W
TeX: 78 0
LayerCount: 2
Fore
SplineSet
448.502 803.005 m 0
 510.746 803.005 552.251 755.673 542.081 697.997 c 0
 531.909 640.312 473.738 592.958 411.479 592.958 c 0
 349.357 592.958 307.818 640.271 318.009 698.062 c 0
 328.169 755.689 386.307 803.005 448.502 803.005 c 0
439.035 743.012 m 0
 416.741 743.012 393.656 724.463 389.129 698.785 c 0
 384.703 673.686 400.851 654.896 423.471 654.896 c 0
 445.774 654.896 468.78 673.439 473.298 699.061 c 0
 477.741 724.26 461.59 743.012 439.035 743.012 c 0
EndSplineSet
EndChar

StartChar: circumflex.cap
Encoding: 65536 -1 190
Width: 600
Flags: W
TeX: 78 0
LayerCount: 2
Fore
SplineSet
275.099 585.488 m 1
 234.295 646.404 l 1
 425.442 774 l 1
 460.688 774 l 1
 597.863 648.054 l 1
 529.229 582.058 l 1
 421.012 666.137 l 1
 275.099 585.488 l 1
EndSplineSet
EndChar

StartChar: ae
Encoding: 230 230 192
Width: 600
Flags: W
TeX: 97 0
LayerCount: 2
Fore
SplineSet
144.629 -10.6829 m 0
 66.7422 2.1196 17.402 70.0068 32.4695 150.189 c 0
 43.9563 211.32 91.6187 275.108 175.157 307.928 c 1
 224.172 326.782 267.77 328.687 296.225 329.634 c 1
 310.283 330.138 l 1
 313.471 347.102 l 0
 317.114 366.488 319.141 383.411 316.079 398.368 c 1
 310.121 428.981 287.663 446 257.932 446 c 0
 231.585 446 197.639 429.508 173.523 401.261 c 0
 160.264 385.731 l 1
 111.109 464.055 l 1
 119.401 472.505 l 0
 162.311 516.237 219.957 541 275.393 541 c 0
 326.917 541 370.157 518.285 393.81 482.411 c 1
 430.903 519.665 478.395 541 528.218 541 c 0
 537.076 541 545.615 540.285 553.794 538.882 c 0
 631.885 526.317 669.565 456.721 654.772 378.027 c 0
 643.937 320.387 628.04 283.217 554.233 262.854 c 0
 503.983 248.991 439.45 248.215 411.486 247.285 c 1
 394.959 246.638 l 1
 387.566 207.311 l 0
 382.659 181.207 380.243 162.17 385.889 142.086 c 1
 396.138 106.232 427.915 85 466.698 85 c 0
 496.267 85 525.981 98.0751 548.049 122.138 c 0
 560.874 136.123 l 1
 611.089 62.0406 l 1
 602.128 53.2763 l 0
 559.765 11.8428 504.206 -13 448.708 -13 c 0
 392.726 -13 343.957 12.0606 314.831 54.9868 c 1
 277.17 12.1155 225.653 -13 171.708 -13 c 0
 162.411 -13 153.362 -12.2126 144.629 -10.6829 c 0
198.939 222.399 m 1
 163.205 205.573 141.811 173.427 136.87 145.398 c 0
 136.057 140.789 135.66 136.333 135.634 132.056 c 0
 135.421 97.3116 158.822 73 192.227 73 c 0
 218.752 73 248.868 88.0875 265.514 119.06 c 1
 273.272 133.718 277.213 149.975 281.027 171.605 c 0
 292.782 238.273 l 1
 286.156 238.01 l 1
 255.789 237.003 228.402 235.937 198.939 222.399 c 1
415.772 356.895 m 0
 414.667 350.63 413.158 343.25 412.243 338.738 c 1
 418.502 338.987 l 1
 498.435 342.513 502.98 342.873 522.806 348.441 c 0
 536.111 352.178 560.6 369.558 563.088 382.775 c 0
 564 387.621 564.434 392.297 564.448 396.774 c 0
 564.55 430.839 540.966 455 507.699 455 c 0
 481.174 455 451.058 439.913 434.412 408.94 c 1
 425.885 392.828 419.317 377.001 415.772 356.895 c 0
EndSplineSet
EndChar

StartChar: oe
Encoding: 339 339 193
Width: 600
Flags: W
TeX: 111 0
LayerCount: 2
Fore
SplineSet
185.708 -13 m 0
 134.618 -13 73.5992 12.3516 48.9609 86.1591 c 0
 29.7555 145.61 39.6943 217.58 50.5414 275.93 c 0
 59.9974 326.796 75.4675 388.977 116.038 442.921 c 1
 163.868 507.79 231.647 540 292.217 540 c 0
 333.333 540 370.129 523.878 393.717 494.609 c 1
 430.293 524.3 473.585 540 517.217 540 c 0
 576.386 540 639.512 509.47 654.34 433.06 c 0
 657.734 415.363 657.798 389.29 654.678 375.179 c 0
 641.768 316.782 620.195 279.14 566.008 260.864 c 0
 517.203 244.404 469.401 241 440 241 c 0
 371.926 241 l 1
 361.503 178.436 360.007 152.18 366.648 130.396 c 1
 376.398 93.4472 407.65 78.5556 446.521 78.5556 c 0
 477.422 78.5556 516.425 87.9889 549.156 117.188 c 0
 562.29 128.905 l 1
 611.285 57.0171 l 1
 601.476 48.9711 l 0
 552.992 9.20003 492.638 -14 432.531 -14 c 0
 385.443 -14 340.963 1.89746 308.131 29.5088 c 1
 271.632 3.26352 227.914 -13 185.708 -13 c 0
152.025 280.951 m 0
 145.238 245.486 137.669 193.814 144.076 154.385 c 1
 151.215 101.869 181.743 88 208.227 88 c 0
 233.477 88 257.171 101.225 260.39 118.044 c 0
 262.109 127.03 257.662 182.183 275.541 275.615 c 0
 290.796 355.34 308.942 397.904 311.286 410.148 c 0
 314.721 428.102 303.15 440 278.874 440 c 0
 252.708 440 217.607 422.482 191.689 384.624 c 1
 167.347 350.187 157.754 310.886 152.025 280.951 c 0
413.38 392.203 m 1
 409.679 384.391 398.612 363.624 389.973 322.81 c 1
 459.999 325.853 497.161 327.727 513.944 332.441 c 0
 526.585 335.992 555.85 357.977 558.259 370.775 c 0
 559.017 374.803 559.393 378.754 559.425 382.616 c 0
 559.724 418.084 530.903 447 497.108 447 c 0
 471.814 447 437.043 434.326 413.38 392.203 c 1
EndSplineSet
EndChar

StartChar: acute.cap
Encoding: 65538 -1 194
Width: 600
Flags: W
TeX: 78 0
LayerCount: 2
Fore
SplineSet
312.341 695.476 m 1
 530.88 784.645 l 1
 579.123 704.951 l 1
 340.109 623.568 l 1
 312.341 695.476 l 1
EndSplineSet
EndChar

StartChar: grave.cap
Encoding: 65539 -1 195
Width: 600
Flags: W
TeX: 78 0
LayerCount: 2
Fore
SplineSet
306.48 704.951 m 1
 382.828 784.645 l 1
 569.921 695.476 l 1
 516.794 623.568 l 1
 306.48 704.951 l 1
EndSplineSet
EndChar

StartChar: ordfeminine
Encoding: 170 170 196
Width: 600
Flags: W
TeX: 111 0
LayerCount: 2
Fore
SplineSet
245.344 641.238 m 1
 255.479 650.878 l 2
 310.301 703.023 377.231 721 435.132 721 c 0
 501.834 721 556.793 694.13 573.8 636.335 c 1
 582.222 606.805 577.773 577.186 572.451 547 c 0
 527.736 293.409 l 1
 424.736 293.409 l 1
 428.553 315.055 l 1
 391.372 293.864 352.397 283 313.9 283 c 0
 226.705 283 173.321 342.099 185.477 411.037 c 0
 192.702 452.012 224.852 497.32 282.305 524.2 c 1
 333.678 549.464 387.728 551.093 436.446 551.093 c 0
 446.926 551.093 457.189 551 467.156 551 c 0
 469.156 551 l 1
 472.892 572.261 474.972 586.138 467.541 601.825 c 0
 460.31 617.094 443.918 629 411.91 629 c 0
 374.331 629 335.132 615.332 307.174 584.218 c 0
 293.099 568.553 l 1
 245.344 641.238 l 1
455.537 456.75 m 0
 456.287 461 l 1
 452.287 461 l 0
 438.666 461 423.661 461.395 408.604 461.395 c 0
 389.846 461.395 370.816 460.821 355.418 458.691 c 1
 309.421 451.964 293.793 429.843 291.198 415.127 c 0
 287.837 396.066 303.85 376 342.299 376 c 0
 372.548 376 404.629 388.875 424.845 403.164 c 1
 448.385 419.342 451.502 433.863 455.537 456.75 c 0
111.389 161 m 1
 127.787 254 l 1
 562.787 254 l 1
 546.389 161 l 1
 111.389 161 l 1
EndSplineSet
EndChar

StartChar: ordmasculine
Encoding: 186 186 197
Width: 600
Flags: W
TeX: 111 0
LayerCount: 2
Fore
SplineSet
192.868 493.637 m 0
 216.588 628.158 322.638 721.011 428.96 721.011 c 0
 521.308 721.011 599.388 648.118 574.517 507.065 c 0
 547.776 355.418 437.928 281.94 344.312 281.94 c 0
 243.232 281.94 170.159 364.845 192.868 493.637 c 0
406.586 626 m 0
 364.64 626 309.752 588.486 293.961 498.929 c 0
 278.786 412.869 321.727 378.925 363.209 378.925 c 0
 402.982 378.925 458.374 410.452 473.974 498.922 c 0
 489.697 588.098 448.872 626 406.586 626 c 0
111.389 161 m 1
 127.787 254 l 1
 562.787 254 l 1
 546.389 161 l 1
 111.389 161 l 1
EndSplineSet
EndChar

StartChar: uni02C9
Encoding: 713 713 198
Width: 600
Flags: W
TeX: 78 0
LayerCount: 2
Fore
SplineSet
248.204 625 m 1
 264.955 720 l 1
 588.955 720 l 1
 572.204 625 l 1
 248.204 625 l 1
EndSplineSet
EndChar

StartChar: cedilla
Encoding: 184 184 201
Width: 600
Flags: W
TeX: 78 0
LayerCount: 2
Fore
SplineSet
273.589 -111 m 1
 307.736 0 l 1
 369.69 0 l 1
 354.435 -52.2812 l 1
 367.027 -52.9131 l 1
 381.95 -53.8633 397.556 -54.7383 412.684 -61.9697 c 1
 434.749 -73.3389 444.381 -94.251 440.178 -118.088 c 0
 432.607 -161.023 379.776 -205 292.853 -205 c 0
 247.705 -205 198.889 -191.705 160.192 -160.921 c 0
 156.151 -157.706 l 1
 201.956 -99.0195 l 1
 206.545 -103.327 l 0
 236.379 -131.34 277.077 -143 310.785 -143 c 0
 354.239 -143 359.892 -131.055 360.606 -127 c 0
 361.211 -123.573 359.304 -119.192 352.585 -116.269 c 0
 352.388 -116.183 l 1
 352.203 -116.085 l 0
 343.142 -111.281 327.563 -111 314.428 -111 c 0
 273.589 -111 l 1
EndSplineSet
EndChar

StartChar: uni00B3
Encoding: 179 179 204
Width: 600
Flags: W
TeX: 117 0
LayerCount: 2
Fore
SplineSet
260.223 661.688 m 0
 310.652 711.015 376.054 739.11 438.87 739.11 c 0
 531.232 739.11 595.992 684.994 584.175 617.976 c 0
 578.681 586.815 556.755 559.182 528.008 541.884 c 1
 562.948 521.213 580.214 483.268 572.526 439.669 c 0
 557.052 351.906 453.157 290.99 356.213 290.99 c 0
 288.649 290.99 229.628 320.359 194.151 371.121 c 0
 187.15 381.139 l 1
 275.416 463.147 l 1
 284.494 451.282 l 0
 298.304 433.234 291.224 423.419 294.591 419.448 c 0
 298.637 414.679 325.267 385.987 374.139 385.987 c 0
 426.606 385.987 466.973 416.944 472.098 446.009 c 0
 474.422 459.191 476.288 495.101 393.937 495.101 c 0
 382.537 495.101 371.599 494.408 360.77 493.111 c 0
 343.586 491.053 l 1
 359.711 582.502 l 1
 375.861 580.932 l 0
 382.916 580.246 390.042 579.894 397.223 579.894 c 0
 468.641 579.894 482.254 599.536 484.252 610.867 c 0
 487.219 627.69 465.383 648.038 419.308 648.038 c 0
 384.953 648.038 345.022 630.945 314.442 599.628 c 0
 301.514 586.388 l 1
 249.576 651.276 l 1
 260.223 661.688 l 0
EndSplineSet
EndChar

StartChar: divide
Encoding: 247 247 205
Width: 600
Flags: W
TeX: 100 0
LayerCount: 2
Fore
SplineSet
131.838 311 m 1
 150.705 418 l 1
 597.705 418 l 1
 578.838 311 l 1
 131.838 311 l 1
410.544 593.01 m 0
 447.547 593.01 472.267 562.971 465.746 525.992 c 0
 459.227 489.013 423.914 458.972 386.909 458.972 c 0
 349.92 458.972 325.187 489.001 331.708 525.99 c 0
 338.23 562.979 373.552 593.01 410.544 593.01 c 0
350.229 251.04 m 0
 387.233 251.04 411.978 220.998 405.453 183.993 c 0
 398.928 146.989 363.591 116.943 326.584 116.943 c 0
 289.576 116.943 264.83 146.983 271.355 183.992 c 0
 277.881 221 313.22 251.04 350.229 251.04 c 0
EndSplineSet
EndChar

StartChar: Oslash
Encoding: 216 216 206
Width: 600
Flags: W
TeX: 79 0
LayerCount: 2
Fore
SplineSet
485.721 593.969 m 1
 462.493 616.062 436.139 624.01 410.391 624.01 c 0
 345.019 624.01 239.157 568.188 202.036 357.659 c 0
 189.301 285.433 189.725 228.717 197.827 187.226 c 1
 485.721 593.969 l 1
629.487 591.714 m 0
 657.043 513.956 646.001 425.305 634.439 359.737 c 0
 623.575 298.122 603.601 209.47 549.674 131.33 c 0
 482.602 34.1426 386.175 -11.0146 302.543 -11.0146 c 0
 261.312 -11.0146 217.75 0.667969 179.985 28.0107 c 1
 104.476 -78.1123 l 1
 25.75 -33.3604 l 1
 118.515 93.9424 l 1
 84.9395 154.098 71.3428 240.139 92.7578 361.591 c 0
 141.98 640.746 315.881 730 432.479 730 c 0
 476.584 730 518.968 717.162 554.508 691.154 c 1
 623.973 789.293 l 1
 704.185 742.177 l 1
 616.243 622.177 l 1
 622.041 610.998 625.572 602.762 629.487 591.714 c 0
524.25 363.897 m 0
 533.499 416.351 540.602 473.96 534.062 525.645 c 1
 249.447 125.635 l 1
 271.635 105.72 296.961 97.9873 322.111 97.9873 c 0
 364.857 97.9873 419.557 121.701 462.219 187.158 c 0
 500.37 245.693 516.009 317.159 524.25 363.897 c 0
EndSplineSet
EndChar

StartChar: multiply
Encoding: 215 215 207
Width: 600
Flags: W
TeX: 109 0
LayerCount: 2
Fore
SplineSet
556.959 593.019 m 1
 621.412 521.572 l 1
 444.885 376.799 l 1
 564.908 220.603 l 1
 476.462 146.601 l 1
 357.653 300.66 l 1
 187.022 151.726 l 1
 126.339 223.688 l 1
 299.559 375.992 l 1
 178.515 519.679 l 1
 268.152 593.512 l 1
 384.825 442.18 l 1
 556.959 593.019 l 1
EndSplineSet
EndChar

StartChar: AE
Encoding: 198 198 208
Width: 600
Flags: W
TeX: 65 0
LayerCount: 2
Fore
SplineSet
-5.43164 0 m 1
 358.473 723 l 1
 713.484 723 l 1
 695.499 621 l 1
 494.626 621 l 1
 462.519 429 l 1
 631.645 429 l 1
 613.307 325 l 1
 445.418 325 l 1
 407.873 102 l 1
 600.985 102 l 1
 583 0 l 1
 287 0 l 1
 318.915 181 l 1
 193.903 181 l 1
 99.9873 0 l 1
 -5.43164 0 l 1
336.019 278 m 1
 391.774 594.203 l 1
 237.409 278 l 1
 336.019 278 l 1
EndSplineSet
EndChar

StartChar: OE
Encoding: 338 338 209
Width: 600
Flags: W
TeX: 79 0
LayerCount: 2
Fore
SplineSet
337.071 732 m 0
 366.095 732 392.437 722.948 412.754 707.516 c 1
 415.484 723 l 1
 713.484 723 l 1
 695.499 621 l 1
 499.499 621 l 1
 465.645 429 l 1
 631.645 429 l 1
 613.307 325 l 1
 447.307 325 l 1
 407.985 102 l 1
 600.985 102 l 1
 583 0 l 1
 287 0 l 1
 289.981 16.9072 l 1
 263.671 0.587891 234.58 -8 205.59 -8 c 0
 141.245 -8 73.3496 34.7588 57.9355 143.602 c 1
 56.2178 157.799 46.5225 229.814 69.8301 362 c 0
 86.3936 455.936 108.888 538.668 154.075 611.764 c 0
 210.111 702.057 284.062 732 337.071 732 c 0
230.39 557.259 m 1
 219.771 538.896 196.405 490.03 176.188 375.371 c 0
 170.725 344.387 151.316 230.745 169.099 159.94 c 0
 183.408 103.247 214.248 93 233.398 93 c 0
 264.5 93 297.623 119.559 315.701 162.774 c 1
 383.883 549.448 l 1
 377.598 588.177 357.867 635 319.968 635 c 0
 295.443 635 260.857 614.949 230.39 557.259 c 1
EndSplineSet
EndChar

StartChar: currency
Encoding: 164 164 210
Width: 600
Flags: W
TeX: 78 0
LayerCount: 2
Fore
SplineSet
471.208 392.5 m 0
 480.303 444.075 442.407 486 386.695 486 c 0
 330.86 486 277.274 443.915 268.208 392.5 c 0
 259.143 341.085 297.887 299 353.722 299 c 0
 409.434 299 462.114 340.925 471.208 392.5 c 0
221.119 489.988 m 1
 165.743 555.081 l 1
 238.831 617.213 l 1
 294.006 550.227 l 1
 328.914 569.363 365.377 580 403.27 580 c 0
 440.167 580 473.187 569.447 500.202 551.22 c 1
 577.831 617.213 l 1
 629.074 555 l 1
 552.138 491.895 l 1
 566.666 461.841 571.519 428.285 565.117 391.986 c 0
 558.722 355.712 540.97 320.936 517.952 293.019 c 1
 571.659 229.852 l 1
 498.762 168.787 l 1
 444.431 233.278 l 1
 410.813 214.538 374.605 205 337.147 205 c 0
 298.399 205 264.487 216.294 238.116 234.328 c 1
 159.762 168.787 l 1
 108.33 229.932 l 1
 186.521 294.067 l 1
 172.822 323.322 168.777 356.028 175.118 391.988 c 0
 181.476 428.046 198.148 462.008 221.119 489.988 c 1
EndSplineSet
EndChar

StartChar: brokenbar
Encoding: 166 166 211
Width: 600
Flags: W
TeX: 78 0
LayerCount: 2
Fore
SplineSet
301.014 312 m 1
 379.303 756 l 1
 487.303 756 l 1
 409.014 312 l 1
 301.014 312 l 1
396.671 242 m 1
 320.498 -190 l 1
 212.498 -190 l 1
 288.671 242 l 1
 396.671 242 l 1
EndSplineSet
EndChar

StartChar: ogonek
Encoding: 731 731 214
Width: 600
Flags: W
TeX: 78 0
LayerCount: 2
Fore
SplineSet
417.94 -1.37207 m 0
 419.845 0 l 1
 514.659 0 l 1
 501.164 -10.4639 l 0
 456.845 -42.2617 423.268 -71.0215 411.753 -81.1064 c 0
 402.142 -89.5234 390.249 -100.944 387.921 -114.147 c 0
 385.544 -127.628 393.688 -138.797 411.474 -138.797 c 0
 417.696 -138.797 425.772 -137.343 438.346 -133.041 c 0
 456.88 -126.698 469.231 -119.132 477.177 -113.382 c 0
 488.446 -105.226 l 1
 476.365 -173.74 l 1
 473.978 -175.534 l 0
 446.195 -196.419 414.703 -204.002 384.929 -204.002 c 0
 322.632 -204.002 293.795 -171.589 300.883 -131.394 c 0
 307.644 -93.0498 349.282 -48.3877 417.94 -1.37207 c 0
EndSplineSet
EndChar

StartChar: dotaccent
Encoding: 729 729 222
Width: 600
Flags: W
TeX: 78 0
LayerCount: 2
Fore
SplineSet
350.872 685.5 m 0
 358.123 726.624 397.385 760 438.509 760 c 0
 479.633 760 507.123 726.624 499.872 685.5 c 0
 492.621 644.376 453.359 611 412.235 611 c 0
 371.111 611 343.621 644.376 350.872 685.5 c 0
EndSplineSet
EndChar

StartChar: breve
Encoding: 728 728 241
Width: 600
Flags: W
LayerCount: 2
Fore
SplineSet
304.365 759.888 m 1
 312.515 742.018 l 2
 331.821 710.581 369.701 681.993 419.574 681.993 c 0
 461.565 681.993 511.385 703.107 555.997 742.174 c 0
 571.444 758.445 l 1
 610.219 690.79 l 1
 602.485 682.903 l 0
 552.051 631.462 479.797 591.983 403.881 591.983 c 0
 335.203 591.983 273.997 625.333 235.13 678.67 c 0
 228.867 687.265 l 1
 304.365 759.888 l 1
EndSplineSet
EndChar

StartChar: eng
Encoding: 331 331 242
Width: 600
Flags: W
LayerCount: 2
Fore
SplineSet
186.587 0 m 1
 71.1237 0 l 1
 139.822 368.593 l 0
 152.806 438.26 145.301 489.449 134.989 508.078 c 0
 124.924 526.26 l 1
 257.033 542.389 l 1
 260.842 530.618 l 0
 263.098 523.643 267.829 500.617 266.984 459.482 c 1
 315.233 505.412 380.581 542.003 445.526 542.003 c 0
 511.852 542.003 566.855 505.46 584.489 442.282 c 0
 596.898 397.824 588.646 353.805 581.373 314.475 c 0
 536.233 70.3627 l 0
 527.753 24.5007 518.347 -24.5319 488.076 -74.0512 c 0
 439.538 -157.318 357.042 -203.685 278.198 -203.685 c 0
 233.963 -203.685 192.858 -188.93 161.893 -161.169 c 0
 152.065 -152.357 l 1
 219.075 -55.1191 l 1
 228.986 -57.3737 l 0
 245.311 -61.0874 246.428 -78.311 246.613 -79.8709 c 1
 252.383 -85.0625 269.417 -96.182 293.764 -96.182 c 0
 320.775 -96.182 352.504 -82.8146 377.585 -52.2142 c 0
 406.734 -18.6954 415.119 23.698 422.397 62.6009 c 0
 469.476 314.25 l 0
 476.193 350.148 481.807 388.187 463.483 414.334 c 0
 451.585 431.311 432.647 439.58 410.141 439.58 c 0
 361.799 439.58 304.732 398.952 281.116 375.098 c 0
 256.038 349.767 248.633 329.401 242.551 297.118 c 0
 186.587 0 l 1
EndSplineSet
EndChar

StartChar: dcaron
Encoding: 271 271 245
Width: 600
Flags: W
LayerCount: 2
Fore
SplineSet
502.701 29.6289 m 0
 494.718 0.0171795 l 1
 375.669 -5.68536 l 1
 374.649 9.02755 l 1
 374.572 10.1584 372.957 35.8221 372.948 71.0114 c 1
 325.26 24.5858 258.933 -11.7422 198.432 -11.7422 c 0
 187.868 -11.7422 177.523 -10.9007 167.478 -9.16766 c 0
 69.0711 6.91451 12.273 100.933 43.9476 271.098 c 0
 84.4046 488.446 306.455 530 362.17 530 c 0
 390.964 530 426.77 519.757 445.997 513.739 c 1
 491.362 771 l 1
 609.889 771 l 1
 607.838 754.183 l 0
 606.171 740.52 597.486 732.01 595.116 729.132 c 0
 590.813 723.904 591.774 725.386 590.905 720.416 c 0
 569.201 601.256 511.858 286.024 489.6 163.843 c 1
 476.58 92.9532 494.099 47.6796 502.701 29.6289 c 0
346.921 448.13 m 0
 296 448.13 177 404 156.772 295.126 c 0
 150.903 263.537 148.701 236.379 148.64 213.366 c 0
 148.374 113.255 190.839 91.8096 230.769 91.8096 c 0
 279.522 91.8096 336.177 125.084 365.432 183.895 c 0
 378.678 210.522 392.045 238.29 398.819 276.167 c 0
 426 432 l 1
 406.304 438.308 370.936 448.13 346.921 448.13 c 0
EndSplineSet
Refer: 56 8217 N 0.8 0 0 0.8 339.381 186.393 2
EndChar

StartChar: eogonek
Encoding: 281 281 246
Width: 600
Flags: W
LayerCount: 2
Fore
SplineSet
97.0195 262.555 m 0
 132.097 451.195 270.185 542 385.319 542 c 0
 493.074 542 527.719 525.722 556.694 500.603 c 0
 591.793 470.172 606.015 426.024 597.715 381.106 c 0
 585.896 317.142 534.61 282.601 445.185 252.697 c 0
 374.904 229.542 297.312 229 224.432 229 c 2
 207.023 229 l 1
 184.465 95 276.884 85 336.698 85 c 0
 386.642 85 466.719 106.208 504.054 140.977 c 2
 515.568 151.7 l 1
 572.751 84.1005 l 1
 562.898 74.3425 l 1
 562.811 74.256 l 2
 562.543 73.991 562.275 73.726 562.008 73.4609 c 2
 507.857 18.2188 l 2
 458.708 -31.9219 418.242 -67.4336 412.898 -97.7432 c 0
 408.844 -120.738 422.167 -136.942 445.218 -136.942 c 0
 450.408 -136.942 468.672 -136.639 504.872 -115.879 c 2
 515.354 -109.866 l 1
 501.461 -181.523 l 1
 498.114 -183.197 l 2
 473.438 -195.535 443.83 -204.69 415.171 -204.69 c 0
 354.523 -204.69 320.519 -163.537 329.524 -112.461 c 0
 334.236 -85.7389 373.001 -37.3302 407.925 -1.60774 c 1
 376.645 -8.57171 345.539 -12 317.884 -12 c 0
 299.532 -12 281.848 -10.5207 264.978 -7.54701 c 0
 142.405 12.9417 68.5026 109.204 97.0195 262.555 c 0
222.884 322.952 m 1
 241.256 322.898 260.203 322.626 279.743 322.626 c 0
 319.125 322.626 359.41 323.873 389.407 329.775 c 0
 458.666 344.155 478.149 355.515 483.29 381.555 c 0
 483.996 385.13 484.346 388.653 484.354 392.092 c 0
 484.423 420.747 461.233 448 403.034 448 c 0
 339.426 448 249.812 414.944 222.884 322.952 c 1
EndSplineSet
EndChar

StartChar: dotlessj
Encoding: 567 567 259
Width: 600
Flags: W
LayerCount: 2
Fore
SplineSet
216.997 431 m 1
 234.453 530 l 1
 545.453 530 l 1
 460.024 45.5107 l 0
 452.326 1.85059 443.406 -42.6279 410.97 -88.2031 c 0
 358.598 -164.44 272.04 -202.181 192.049 -202.181 c 0
 122.204 -202.181 64.6895 -173.161 32.7363 -122.413 c 0
 27.0186 -113.331 l 1
 114.005 -19.4268 l 1
 124.36 -29.4326 l 0
 135.805 -40.4902 133.134 -54.0156 133.309 -54.418 c 0
 135.205 -58.7705 159.088 -100.016 215.381 -100.016 c 0
 254.854 -100.016 294.502 -79.377 318.455 -41.9336 c 0
 334.015 -18.6777 338.845 4.79004 343.528 31.3516 c 0
 413.997 431 l 1
 216.997 431 l 1
EndSplineSet
EndChar

StartChar: kgreenlandic
Encoding: 312 312 260
Width: 600
Flags: W
LayerCount: 2
Fore
SplineSet
183.409 -1 m 1
 68.9469 -1 l 1
 137.645 367.593 l 0
 150.63 437.262 143.124 488.449 132.813 507.078 c 0
 122.749 525.26 l 1
 254.857 541.389 l 1
 258.665 529.618 l 0
 262.022 519.245 270.304 465.591 259.048 397.965 c 1
 243.092 307.468 l 1
 526.299 533.39 l 1
 533.542 531.527 l 0
 551.13 527.004 570.907 526 590.748 526 c 0
 663.195 526 l 1
 380.624 310.081 l 1
 592.437 -1.1803 l 1
 564.725 -0.999681 l 0
 561.857 -0.980991 559.816 -0.975742 556.381 -0.972948 c 1
 517.571 -1.02891 487.887 -2.76914 471.118 -3.90575 c 0
 456 -8.50391 l 1
 283.914 257.768 l 1
 220.054 206.811 l 1
 183.409 -1 l 1
EndSplineSet
EndChar

StartChar: uparrow
Encoding: 8593 8593 266
Width: 600
Flags: W
LayerCount: 2
Fore
SplineSet
139.21 465.752 m 1
 418.58 742 l 1
 458.467 742 l 1
 623.799 462.242 l 1
 531.135 406.538 l 1
 451.662 548.199 l 1
 348.123 -39 l 1
 241.123 -39 l 1
 345.315 551.905 l 1
 201.738 405.812 l 1
 139.21 465.752 l 1
EndSplineSet
EndChar

StartChar: visiblespace
Encoding: 9251 9251 268
Width: 600
Flags: W
LayerCount: 2
Fore
SplineSet
32.3096 -106 m 1
 65.2822 81 l 1
 149.282 81 l 1
 130.769 -24 l 1
 458.769 -24 l 1
 477.282 81 l 1
 563.282 81 l 1
 530.31 -106 l 1
 32.3096 -106 l 1
EndSplineSet
EndChar

StartChar: r.serif
Encoding: 65540 -1 269
Width: 600
Flags: W
LayerCount: 2
Fore
SplineSet
146.173 432 m 1
 163.277 529 l 1
 352.725 529 l 1
 339.494 464.695 l 1
 387.407 511.697 448.406 541.496 511.761 541.496 c 0
 565.127 541.496 614.938 519.893 648.168 479.614 c 0
 654.409 472.049 l 1
 582.708 364.038 l 1
 570.349 378.118 l 0
 561.288 388.441 558.727 398.505 554.815 405.26 c 0
 545.911 420.642 524.738 439.759 488.777 439.759 c 0
 454.768 439.759 409.54 423.955 360.732 372.215 c 0
 311.922 320.47 307.559 292.404 303.063 266.911 c 0
 272.222 92 l 1
 383.222 92 l 1
 366.823 -1 l 1
 67.8232 -1 l 1
 84.2217 92 l 1
 159.222 92 l 1
 219.173 432 l 1
 146.173 432 l 1
EndSplineSet
EndChar

StartChar: hungarumlaut.cap
Encoding: 65541 -1 270
Width: 600
Flags: W
LayerCount: 2
Fore
SplineSet
461.661 781.572 m 1
 665.071 946.694 l 1
 720.162 845.365 l 1
 508.577 741.555 l 1
 461.661 781.572 l 1
235.661 781.572 m 1
 439.071 946.694 l 1
 494.162 845.365 l 1
 282.577 741.555 l 1
 235.661 781.572 l 1
EndSplineSet
EndChar

StartChar: uni2074
Encoding: 8308 8308 271
Width: 600
Flags: W
LayerCount: 2
Fore
SplineSet
195.197 466.164 m 1
 483.694 743 l 1
 551.011 743 l 1
 506.224 489 l 1
 579.224 489 l 1
 564.236 404 l 1
 491.236 404 l 1
 471.487 292 l 1
 375.487 292 l 1
 395.412 405 l 1
 184.412 405 l 1
 195.197 466.164 l 1
411.224 489 m 1
 431.156 602.042 l 1
 321.319 489 l 1
 411.224 489 l 1
EndSplineSet
EndChar

StartChar: fraction
Encoding: 8260 8260 274
Width: 600
Flags: W
LayerCount: 2
Fore
SplineSet
149.15 -54.96 m 1
 76.7354 -10.3604 l 1
 591.02 776.062 l 1
 664.468 731.868 l 1
 149.15 -54.96 l 1
EndSplineSet
EndChar

StartChar: lslash
Encoding: 322 322 275
Width: 600
Flags: W
LayerCount: 2
Fore
SplineSet
295.831 302.45 m 1
 199.405 272.998 l 1
 218.677 377.621 l 1
 315.26 407.937 l 1
 364.082 673 l 1
 214.082 673 l 1
 231.184 770 l 1
 495.647 770 l 1
 436.747 450.333 l 1
 492.557 467.844 l 0
 503.835 471.382 511.047 475.103 523.101 482.537 c 0
 551.962 500.339 l 1
 529.435 378.093 l 1
 417.117 343.798 l 1
 385.016 169.58 l 1
 383.115 157.561 381.307 144.498 381.268 133.808 c 0
 381.188 111.213 385.188 103 404.804 103 c 0
 428.084 103 448.647 106.897 479.347 108.966 c 0
 498.84 110.28 l 1
 477.183 0 l 1
 410.952 0 l 0
 373.713 0 334.978 0.986675 307.236 19.8389 c 1
 263.368 48.9958 259.136 103.221 270.559 165.241 c 0
 270.91 167.146 271.086 168.107 271.44 170.026 c 0
 295.831 302.45 l 1
EndSplineSet
EndChar

StartChar: Lslash
Encoding: 321 321 276
Width: 600
Flags: W
LayerCount: 2
Fore
SplineSet
144.17 363.928 m 1
 207.308 722 l 1
 329.204 722 l 1
 328.89 709.249 l 0
 328.858 707.44 328.678 705.63 328.361 703.838 c 0
 324.165 680.037 313.908 680.034 312.127 669.933 c 0
 264.762 401.309 l 1
 446.547 454.774 l 0
 457.463 457.984 466.271 460.499 476.771 464.695 c 0
 499.543 473.798 l 1
 481.364 370.701 l 1
 247.4 302.851 l 1
 211.456 99 l 1
 559.456 99 l 1
 541.823 -1 l 1
 79.8232 -1 l 1
 126.774 265.27 l 1
 61.4082 246.182 l 1
 78.7539 344.554 l 1
 144.17 363.928 l 1
EndSplineSet
EndChar

StartChar: Eng
Encoding: 330 330 277
Width: 600
Flags: W
LayerCount: 2
Fore
SplineSet
169 0 m 1
 54 0 l 1
 181.308 722 l 1
 296.308 722 l 1
 284.807 656.771 l 1
 337.945 704.828 405.189 735 471.601 735 c 0
 548.068 735 610.759 695.273 631.79 624.661 c 0
 645.961 577.192 638.507 530.304 630.695 486 c 0
 581.873 209.12 l 0
 575.082 170.606 566.913 129.217 539.048 87.6533 c 1
 497.155 23.5752 424.94 -12 352.884 -12 c 0
 314.387 -12 278.27 -2.33301 248.373 18.2109 c 0
 237.327 25.8008 l 1
 310.171 123.477 l 1
 321.9 116.024 l 0
 329.812 110.996 332.67 103.111 333.31 101.83 c 1
 337.744 98.8242 353.083 90 372.869 90 c 0
 400.241 90 426.953 103.602 444.359 130.136 c 1
 459.418 152.136 464.707 179.818 469.253 205.601 c 0
 518.04 482.287 l 0
 523.76 514.726 529.409 548.62 518.528 578.315 c 1
 507.039 613.534 477.051 632 438.438 632 c 0
 384.038 632 320.09 588.682 290.462 556.922 c 1
 266.019 529.655 258.215 505.962 251.99 470.659 c 0
 169 0 l 1
EndSplineSet
EndChar

StartChar: dcroat
Encoding: 273 273 278
Width: 600
Flags: W
LayerCount: 2
Fore
SplineSet
408.621 440.965 m 0
 340.004 440.1 218.004 382.1 199.566 295.503 c 0
 194.207 270.331 193.047 247.666 192.979 228.108 c 0
 192.588 117.807 251.467 91.8096 294.768 91.8096 c 0
 343.693 91.8096 402.838 125.359 431.955 183.896 c 0
 444.707 209.528 454.893 237.437 461.816 276.152 c 1
 486.004 426.1 l 1
 470.945 432.191 443.797 441.408 408.621 440.965 c 0
566.701 29.3932 m 0
 558.718 0.0171795 l 1
 439.669 -5.68536 l 1
 438.649 9.02755 l 1
 438.572 10.1584 436.957 35.8221 436.948 71.0114 c 1
 389.26 24.5858 322.933 -11.7422 262.432 -11.7422 c 0
 251.413 -11.7422 240.458 -10.8267 229.693 -8.95685 c 0
 130.195 7.41373 54.8508 100.14 86.7963 271.761 c 0
 127.407 489.925 371.254 530 426.17 530 c 0
 461.277 530 492.332 521.108 510.188 514.819 c 1
 525.208 600 l 1
 437.209 600 l 1
 453.433 692 l 1
 541.432 692 l 1
 555.364 771 l 1
 673.889 771 l 1
 671.838 754.183 l 0
 670.171 740.52 661.486 732.01 659.116 729.132 c 0
 654.813 723.904 655.774 725.386 654.905 720.417 c 0
 649.936 692 l 1
 700.896 692 l 1
 684.672 600 l 1
 633.846 600 l 1
 607.293 455.371 570.511 254.614 553.591 162.486 c 1
 540.591 92.2704 558.108 47.2815 566.701 29.3932 c 0
EndSplineSet
EndChar

StartChar: bullet
Encoding: 8226 8226 287
Width: 600
Flags: W
LayerCount: 2
Fore
SplineSet
386.703 455.001 m 0
 449.372 455.001 491.421 405.042 480.568 343.496 c 0
 469.719 281.961 410.068 231.968 347.363 231.968 c 0
 284.726 231.968 242.679 281.929 253.536 343.507 c 0
 264.383 405.022 324.02 455.001 386.703 455.001 c 0
EndSplineSet
EndChar

StartChar: florin
Encoding: 402 402 288
Width: 600
Flags: W
LayerCount: 2
Fore
SplineSet
703.361 713.588 m 0
 708.266 706.096 l 1
 645.213 611.964 l 1
 635.854 612 l 0
 625.811 612.039 615.738 619.45 615.397 632.952 c 0
 615.181 641.496 616.295 640.632 615.406 643.62 c 0
 609.942 662.02 589.749 684.31 558.678 684.31 c 0
 535.326 684.31 505.449 671.622 482.267 634.776 c 0
 461.881 602.372 452.662 559.93 443.136 522.8 c 0
 423.546 447.552 l 1
 564.915 447.552 l 1
 548.751 355.878 l 1
 399.678 355.878 l 1
 316.094 34.8311 l 0
 303.208 -14.6621 288.013 -65.4072 250.518 -112.832 c 0
 204.127 -173.637 142.773 -203.002 89.5068 -203.002 c 0
 49.3008 -203.002 14.0762 -186.349 -7.73242 -157.18 c 0
 -14.0703 -148.702 l 1
 63.1084 -53.5898 l 1
 74.1357 -59.5479 l 0
 85.8135 -65.8564 87.9248 -77.8047 88.8438 -79.9043 c 0
 91.6562 -86.333 100.598 -94.9648 115.175 -94.9648 c 0
 128.361 -94.9648 147.692 -88.3027 167.319 -61.1133 c 0
 190.156 -30.6289 200.911 8.54297 209.438 41.9473 c 0
 289.854 356.998 l 1
 150.948 356.998 l 1
 167.066 448.406 l 1
 313.187 448.406 l 1
 335.575 536.124 l 0
 346.562 579.81 358.673 627.386 390.266 674.14 c 0
 436.711 742.871 507.693 780 574.292 780 c 0
 628.461 780 675.857 755.59 703.361 713.588 c 0
EndSplineSet
EndChar

StartChar: dagger
Encoding: 8224 8224 289
Width: 600
Flags: W
LayerCount: 2
Fore
SplineSet
341.922 544 m 1
 379.303 756 l 1
 487.303 756 l 1
 449.922 544 l 1
 641.922 544 l 1
 624.466 445 l 1
 432.466 445 l 1
 320.498 -190 l 1
 212.498 -190 l 1
 324.466 445 l 1
 130.466 445 l 1
 147.922 544 l 1
 341.922 544 l 1
EndSplineSet
EndChar

StartChar: daggerdbl
Encoding: 8225 8225 290
Width: 600
Flags: W
LayerCount: 2
Fore
SplineSet
341.922 544 m 1
 379.303 756 l 1
 487.303 756 l 1
 449.922 544 l 1
 641.922 544 l 1
 624.466 445 l 1
 432.466 445 l 1
 381.331 155 l 1
 573.331 155 l 1
 555.874 56 l 1
 363.874 56 l 1
 320.498 -190 l 1
 212.498 -190 l 1
 255.874 56 l 1
 61.874 56 l 1
 79.3311 155 l 1
 273.331 155 l 1
 324.466 445 l 1
 130.466 445 l 1
 147.922 544 l 1
 341.922 544 l 1
EndSplineSet
EndChar

StartChar: trademark
Encoding: 8482 8482 291
Width: 600
VWidth: 1157
Flags: W
LayerCount: 2
Fore
SplineSet
145.292 735.33 m 1
 431.211 735.33 l 1
 417.753 659.01 l 1
 313.533 659.01 l 1
 262.672 370.56 l 1
 180.562 370.56 l 1
 231.423 659.01 l 1
 131.835 659.01 l 1
 145.292 735.33 l 1
434.793 735.33 m 1
 499.621 735.33 l 1
 547.651 585.344 l 1
 560.788 604.067 566.251 612.066 587.49 643.156 c 0
 616.34 685.384 616.548 685.681 645.872 727.331 c 0
 651.505 735.33 l 1
 713.763 735.33 l 1
 649.443 370.56 l 1
 570.808 370.56 l 1
 607.195 576.922 l 1
 604.064 572.69 601.402 569.091 597.674 564.054 c 0
 574.073 532.158 574.326 532.507 552.773 502.354 c 0
 546.728 493.896 l 1
 510.507 496.185 l 1
 484.724 572.537 l 1
 449.109 370.56 l 1
 370.474 370.56 l 1
 434.793 735.33 l 1
EndSplineSet
EndChar

StartChar: zero.noslash
Encoding: 65542 -1 292
Width: 600
Flags: W
LayerCount: 2
Fore
SplineSet
428.146 727.004 m 0
 562.852 727.004 633.951 578.052 595.109 357.768 c 0
 557.532 144.661 435.396 -13.0205 295.228 -13.0205 c 0
 167.88 -13.0205 89.0547 120.432 128.131 342.043 c 0
 167.861 567.366 286.956 727.004 428.146 727.004 c 0
486.662 551.776 m 0
 469.265 616.64 432.83 626.004 409.586 626.004 c 0
 389.382 626.004 351.071 618.407 314.254 562.509 c 0
 283.319 515.542 253.908 447.702 237.044 352.062 c 0
 225.014 283.833 227.407 211.781 238.392 170.01 c 0
 256.396 101.528 294.413 90.9814 318.819 90.9814 c 0
 340.294 90.9814 375.894 99.2207 412.89 149.031 c 0
 452.848 202.829 478.1 289.09 487.668 343.355 c 0
 500.197 414.414 499.592 503.567 486.662 551.776 c 0
EndSplineSet
EndChar

StartChar: alpha
Encoding: 945 945 294
Width: 600
Flags: W
LayerCount: 2
Fore
SplineSet
435.954 271.96 m 0
 456.395 387.886 429.077 443 345.113 443 c 0
 275.825 443 207.372 410.444 182.468 269.201 c 0
 159.747 140.348 221.87 100 283.633 100 c 0
 301.633 100 l 0
 343.396 100 405.837 101.158 435.954 271.96 c 0
576.508 31.8418 m 0
 591.036 9 l 1
 458.713 9 l 1
 455.812 16.7773 l 0
 455.757 16.9238 448.187 37.4775 443.513 58.2119 c 1
 393.765 11.9482 316.153 -5 266.118 -5 c 0
 201.547 -5 32.4736 30.7988 72.9434 266.228 c 1
 74.7881 276.691 l 0
 119.665 531.2 318.681 545.997 363.272 547 c 1
 447.116 547 488.756 510.041 507.985 481.666 c 1
 527.654 536.221 l 1
 625.485 513.469 l 1
 567.796 375.577 l 1
 552.59 341.891 540.827 303.853 534.028 265.291 c 0
 527.25 226.849 525.614 188.419 530.679 155.137 c 0
 540.963 87.5615 576.508 31.8418 576.508 31.8418 c 0
EndSplineSet
EndChar

StartChar: beta
Encoding: 946 946 295
Width: 600
Flags: W
LayerCount: 2
Fore
SplineSet
491.841 388.688 m 1
 558.962 355.134 591.212 284.768 577.186 205.218 c 0
 557.281 92.3359 431.473 3.03711 322.325 1 c 1
 319.177 1 l 0
 247.949 1 201.878 38.3652 178.361 64.4316 c 1
 139.493 -156 l 1
 32.4932 -156 l 1
 139.849 452.845 l 0
 148.007 499.111 157.711 549.723 190.151 600.166 c 1
 240.899 680.761 325.336 725 405.837 725 c 0
 523.623 725 603.422 631.906 583.866 521 c 0
 574.516 467.967 540.224 419.569 491.841 388.688 c 1
332.985 102 m 0
 339.985 102 l 2
 401.729 102 457.574 145.041 469.041 210.072 c 0
 477.368 257.293 456.544 296.043 422.202 317.355 c 1
 396.606 333.765 377.558 336 342.246 336 c 0
 250.246 336 l 1
 267.526 434 l 1
 357.526 434 l 0
 442.628 434 466.277 489.304 472.219 523 c 0
 483.316 585.935 449.183 622 391.676 622 c 0
 358.105 622 326.727 614.077 299.061 583.289 c 1
 264.996 546.454 256.427 501.491 248.387 455.894 c 1
 194.836 163.182 l 1
 225.621 147.029 278.903 102 332.985 102 c 0
EndSplineSet
EndChar

StartChar: gamma
Encoding: 947 947 296
Width: 600
Flags: W
LayerCount: 2
Fore
SplineSet
224.936 -169 m 1
 260.449 14.1846 l 1
 128.957 529 l 1
 268.852 529 l 1
 267.821 515.493 l 0
 266.536 498.667 258.379 489.717 258.229 489.055 c 1
 258.214 488.7 258.409 486.65 258.637 485.16 c 1
 336.598 132.575 l 1
 467.674 378.978 l 1
 491.597 424.617 514.546 471.021 531.553 517.764 c 0
 536.004 530 l 1
 655.763 530 l 1
 646.554 511.647 l 0
 621.729 462.169 594.976 413.499 567.625 366.199 c 1
 366.654 9.53516 l 1
 361.625 1.05273 357.149 -16.1689 353.123 -39 c 0
 347.24 -72.3652 341.762 -114.775 334.846 -154 c 0
 332.201 -169 l 1
 224.936 -169 l 1
EndSplineSet
EndChar

StartChar: delta
Encoding: 948 948 297
Width: 600
Flags: W
LayerCount: 2
Fore
SplineSet
483.551 264 m 0
 506.063 391.676 443.773 443 380.113 443 c 0
 311.707 443 235.014 385.727 214.961 272 c 0
 194.669 156.917 251.533 93 322.398 93 c 0
 386.744 93 462.947 147.156 483.551 264 c 0
621.701 610.803 m 1
 563.911 655 l 1
 505.566 655 l 1
 335.55 653.384 l 1
 509.335 488.392 l 1
 589.649 425.835 603.603 321.01 591.998 255.199 c 0
 563.611 94.2061 433.058 -3 304.471 -3 c 0
 168.759 -3 71.5801 105.371 97.8389 254.292 c 0
 121.47 388.31 214.375 495.418 331.675 512.179 c 1
 295.188 547.337 226.073 611.892 175.396 656.245 c 0
 170.602 660.662 l 1
 184.84 749 l 1
 646.069 749 l 1
 621.701 610.803 l 1
EndSplineSet
EndChar

StartChar: epsilon
Encoding: 949 949 298
Width: 600
Flags: W
LayerCount: 2
Fore
SplineSet
494.812 169.81 m 0
 509.278 179.881 l 1
 547.834 102.58 l 1
 537.814 93.8379 l 0
 470.884 35.4395 403.127 -0.0322266 315.225 -0.0322266 c 0
 190.953 -0.0322266 80.4326 61.2285 97.7852 159.636 c 0
 106.053 206.528 133.607 254.733 183.633 278.991 c 1
 150.555 298.46 130.797 330.156 138.242 372.382 c 0
 153.268 457.596 262.37 532.959 381.731 532.959 c 0
 461.383 532.959 541.204 506.244 586.564 447.621 c 0
 593.644 438.471 l 1
 522.946 361.58 l 1
 512.828 373.864 l 0
 479.166 414.73 423.235 426.132 361.912 426.132 c 0
 297.381 426.132 257.479 399.886 252.505 371.672 c 0
 249.074 352.218 251.302 328.04 372.093 328.04 c 0
 383.861 328.04 396.24 328.053 408.415 328.958 c 0
 424.755 330.171 l 1
 404.748 216.705 l 1
 388.511 218.41 l 0
 368.921 220.467 372.281 221.212 353.256 221.212 c 0
 217.022 221.212 214.367 177.646 211.192 159.641 c 0
 207.115 136.521 263.765 105.732 332.847 104.874 c 1
 415.805 104.874 451.841 139.896 494.812 169.81 c 0
EndSplineSet
EndChar

StartChar: zeta
Encoding: 950 950 299
Width: 600
Flags: W
LayerCount: 2
Fore
SplineSet
350.611 -95.4229 m 1
 361.297 -83.6699 354.271 -91.3662 361.065 -80.1328 c 0
 378.693 -50.6826 400.365 -11.7354 411.694 8.85254 c 1
 343.014 16.2988 81.7041 55.0332 115.842 248.638 c 0
 116.188 250.601 l 1
 156.693 470.773 343.83 588.911 447.779 642.001 c 1
 384.487 642.036 288.892 643 236.704 643 c 1
 216.018 642.107 233.42 629 204.91 629 c 0
 189.746 629 l 1
 212.584 751 l 1
 654.422 751 l 1
 635.719 644.93 l 1
 624.52 641.653 l 1
 616.102 639.238 292.756 543.887 237.981 249.429 c 1
 237.653 247.571 l 0
 206.806 72.6221 511.824 134.994 532.752 100.302 c 1
 540.769 86.4736 541.49 70.834 538.898 56.1357 c 0
 528.42 -3.28906 464.832 -70.1445 451.18 -117.598 c 1
 426.693 -114.924 389.829 -134 357.372 -134 c 0
 357.372 -134 320.353 -145.453 325.193 -118 c 0
 325.52 -116.153 l 1
 326.283 -114.362 l 0
 334.304 -95.5469 349.921 -96.0195 350.611 -95.4229 c 1
EndSplineSet
EndChar

StartChar: eta
Encoding: 951 951 300
Width: 600
Flags: W
LayerCount: 2
Fore
SplineSet
82 0 m 1
 165.489 473.49 l 1
 153.816 529 l 1
 290.277 529 l 1
 278.9 464.478 l 1
 328.207 509.458 390.466 542 453.569 542 c 0
 519.192 542 573.771 506.978 591.068 444.217 c 1
 603.731 399.715 595.577 354.895 588.671 315.725 c 0
 505.493 -156 l 1
 393.493 -156 l 1
 475.753 310.518 l 0
 482.056 346.262 488.115 385.171 468.286 412.729 c 1
 455.338 431.458 435.472 440 412.584 440 c 0
 364.593 440 309.238 399.986 286.361 376.343 c 1
 262.379 352.036 255.602 332.348 249.823 299.574 c 0
 197 0 l 1
 82 0 l 1
EndSplineSet
EndChar

StartChar: theta
Encoding: 952 952 301
Width: 600
Flags: W
LayerCount: 2
Fore
SplineSet
124.621 377.826 m 0
 161.514 587.053 253.629 746 406.54 746 c 0
 565.825 746 613.027 578.627 578.299 381.671 c 0
 551.023 226.983 491.726 2.04102 278.26 1 c 0
 277.784 0.998047 277.308 0.996094 276.834 0.996094 c 0
 81.5469 0.996094 95.0654 210.21 124.621 377.826 c 0
243.763 417.021 m 1
 300.35 417.159 412.239 417.866 472.508 417.984 c 1
 495.217 570.602 444.934 642 389.202 642 c 0
 340.682 642 276.507 578.7 243.763 417.021 c 1
297.572 111 m 0
 394.442 111 435.387 210.252 457.03 329 c 1
 227.319 329 l 1
 209.229 207.152 214.711 111 297.572 111 c 0
EndSplineSet
EndChar

StartChar: iota
Encoding: 953 953 302
Width: 600
Flags: W
LayerCount: 2
Fore
SplineSet
176.056 421.7 m 1
 193.615 532 l 1
 457.883 532 l 1
 388.797 151.975 l 1
 380.879 107.068 390.367 110 430.396 110 c 0
 445.21 110 l 1
 427.189 0 l 1
 412 0 l 0
 398.702 0 384.58 -1 370.823 -1 c 0
 304.749 -1 253.764 19.1885 275.59 145.128 c 1
 276.248 154.905 278.733 168.625 281.154 182.355 c 0
 286.347 211.801 293.076 244.296 293.076 244.296 c 1
 326.526 434 l 1
 211.526 434 l 0
 208.273 434 205.456 431.165 204.91 430.515 c 1
 176.056 421.7 l 1
EndSplineSet
EndChar

StartChar: kappa
Encoding: 954 954 303
Width: 600
Flags: W
LayerCount: 2
Fore
SplineSet
71.8232 -1 m 1
 165.277 529 l 1
 290.277 529 l 1
 287.279 512 l 0
 284.927 498.657 275.415 490.555 272.875 487.812 c 1
 271.05 485.944 272.045 487.987 271.342 484 c 0
 239.849 305.391 l 1
 525.734 533.45 l 1
 533.208 531.592 l 0
 551.105 527.144 578.294 526 597.748 526 c 0
 665.803 526 l 1
 385.392 311.74 l 1
 596.141 -1 l 1
 457.682 -1 l 1
 292.557 258.751 l 1
 222.672 207.974 l 1
 185.823 -1 l 1
 71.8232 -1 l 1
EndSplineSet
EndChar

StartChar: lambda
Encoding: 955 955 304
Width: 600
Flags: W
LayerCount: 2
Fore
SplineSet
463.179 633.688 m 1
 467.852 624.032 473.071 619.883 502.229 253.907 c 1
 524.847 110.099 535.706 113 555.925 113 c 0
 562.925 113 l 0
 594.036 113 565.337 18.9248 564.116 12 c 0
 561.471 -3 l 1
 546.471 -3 l 0
 387.038 -3 405.285 91.1006 382.329 363.332 c 1
 123.989 0 l 1
 -0.649414 0 l 1
 346.696 482.515 l 1
 349.678 518.866 360.909 568.024 349.682 593.445 c 1
 333.771 633.077 302.741 642 274.202 642 c 0
 245.111 642 227.264 632 215.438 632 c 0
 200.8 632 l 1
 217.817 744 l 1
 233.188 744 l 0
 251.655 744 267.687 745 283.363 745 c 0
 386.238 745 429.326 723.576 463.179 633.688 c 1
EndSplineSet
EndChar

StartChar: mu
Encoding: 956 956 305
Width: 600
Flags: W
LayerCount: 2
Fore
SplineSet
412.225 75 m 0
 414.659 88.8066 l 1
 378.827 47.0166 322.958 0 252 0 c 0
 227.152 0 196.785 8.20312 174.639 31.9766 c 1
 139.377 -168 l 1
 27.377 -168 l 1
 150.101 528 l 1
 259.101 528 l 1
 210.928 254.797 l 0
 189.758 134.735 226.581 114 271.102 114 c 0
 328.027 114 433.623 196.356 449.024 283.703 c 0
 492.101 528 l 1
 602.101 528 l 1
 528.423 110.152 l 2
 525.878 95.7178 530.458 98 535.28 98 c 0
 557.247 98 l 1
 555.785 84.0684 l 0
 554.158 68.5615 544.697 15.2969 544.646 15.002 c 0
 542.002 0 l 1
 453 0 l 0
 427.371 0 403.507 25.5596 412.225 75 c 0
EndSplineSet
EndChar

StartChar: nu
Encoding: 957 957 306
Width: 600
Flags: W
LayerCount: 2
Fore
SplineSet
255.007 -4 m 1
 129.348 540 l 1
 263.25 540 l 1
 263.788 528.254 l 0
 264.423 514.419 256.09 503.278 255.656 502.3 c 1
 256.441 493.517 266.851 435.764 333.721 128.667 c 1
 481.515 292.139 525.659 389.383 535.466 445 c 0
 543.809 492.315 529.229 507.455 525.235 517.558 c 0
 516.368 540 l 1
 650.272 540 l 1
 651.683 529.439 l 0
 651.79 528.727 656.677 497.242 649.602 457.112 c 0
 645.093 431.544 638.676 395.074 615.406 353.056 c 1
 518.885 174.965 343.563 2.18848 343.065 1.69629 c 0
 337.557 -4 l 1
 255.007 -4 l 1
EndSplineSet
EndChar

StartChar: xi
Encoding: 958 958 307
Width: 600
Flags: W
LayerCount: 2
Fore
SplineSet
325.09 -120.006 m 0
 350.899 -77.8496 388.845 -34.9053 391.229 -21.3896 c 1
 382.146 13.6816 86.6465 -13.3477 124.534 201.525 c 0
 141.385 297.089 217.54 371.597 290.961 394.077 c 1
 249.652 427.404 236.629 462.94 242.91 498.566 c 0
 251.598 547.835 296.042 590.26 335.67 617 c 1
 233.105 617 l 1
 210.975 616.085 228.832 603 200.325 603 c 0
 185.161 603 l 1
 207.999 725 l 1
 649.837 725 l 1
 630.441 615 l 1
 534.336 615 l 1
 460.072 606.791 372.462 547.064 365.178 505.754 c 0
 361.396 484.308 378.59 458.698 455.996 447 c 1
 566.818 447 l 1
 545.863 328.16 l 1
 437.741 327 l 1
 417.659 327 l 0
 327.146 327 254.637 298.519 239.275 211.402 c 0
 238.125 204.875 l 1
 220.428 89.124 416.786 152.192 498.124 53.2734 c 1
 508.352 41.5234 517.335 24.584 514.058 6 c 0
 505.534 -42.3398 459.659 -83.7686 442.041 -128.223 c 0
 437.426 -139.867 l 1
 312.08 -141.257 l 1
 325.09 -120.006 l 0
EndSplineSet
EndChar

StartChar: omicron
Encoding: 959 959 308
Width: 600
Flags: W
LayerCount: 2
Fore
SplineSet
402.393 541 m 0
 531.206 541 636.003 442.379 604.211 262.077 c 0
 573.765 89.4053 436.472 -14 302.531 -14 c 0
 160.426 -14 59.8955 101.491 88.0439 261.128 c 0
 116.665 423.447 258.156 541 402.393 541 c 0
489.738 259.393 m 0
 512.345 387.604 445.723 440 379.584 440 c 0
 308.653 440 227.371 382.083 207.2 267.686 c 0
 186.814 152.07 248.067 88 321.517 88 c 0
 388.495 88 469.073 142.197 489.738 259.393 c 0
EndSplineSet
EndChar

StartChar: pi
Encoding: 960 960 309
Width: 600
Flags: W
LayerCount: 2
Fore
SplineSet
100.173 432 m 1
 119.393 541 l 1
 670.393 541 l 1
 651.173 432 l 1
 586.173 432 l 1
 528.867 107 l 1
 536.654 107 l 1
 568.358 133.952 l 1
 561.143 97.1807 l 1
 560.688 94.8662 551.231 46.6816 545.645 15 c 0
 543 0 l 1
 456 0 l 0
 410.256 0 403.502 31.2041 407.068 51.4287 c 0
 474.173 432 l 1
 280.173 432 l 1
 204 0 l 1
 88 0 l 1
 164.173 432 l 1
 100.173 432 l 1
EndSplineSet
EndChar

StartChar: rho
Encoding: 961 961 310
Width: 600
Flags: W
LayerCount: 2
Fore
SplineSet
27.0254 -193 m 1
 117.289 330.572 l 2
 138.623 451.566 225.696 541 384.393 541 c 0
 531.562 541 618.493 439.488 586.235 256.544 c 0
 552.337 64.2959 401.224 -8 286.59 -8 c 0
 230.265 -8 192.59 15.2148 172.732 32.5117 c 1
 132.969 -193 l 1
 27.0254 -193 l 1
475.823 254.203 m 0
 505.748 423.917 405.644 440 365.584 440 c 0
 316.777 440 269.653 416.142 245.346 377.518 c 1
 230.924 355.653 223.938 328.586 216.661 287.316 c 0
 204.099 216.07 199.553 188.017 207.734 158.445 c 1
 219.432 119.363 252.46 96 303.928 96 c 0
 349.721 96 450.531 110.767 475.823 254.203 c 0
EndSplineSet
EndChar

StartChar: sigma
Encoding: 963 963 311
Width: 600
Flags: W
LayerCount: 2
Fore
SplineSet
562.502 438 m 1
 588.592 392.682 598.638 332.552 585.648 258.888 c 0
 555.554 88.2109 418.472 -14 284.531 -14 c 0
 142.426 -14 41.8955 101.491 70.0439 261.128 c 0
 98.1426 420.483 236.225 537.952 378.221 541 c 1
 672.393 541 l 1
 654.231 438 l 1
 562.502 438 l 1
472.109 261.5 m 0
 492.574 377.562 453.084 435.032 360.568 443.5 c 1
 289.85 443.117 211.541 394.389 189.696 270.5 c 0
 167.572 145.03 230.067 88 303.517 88 c 0
 370.495 88 449.684 134.316 472.109 261.5 c 0
EndSplineSet
EndChar

StartChar: tau
Encoding: 964 964 312
Width: 600
Flags: W
LayerCount: 2
Fore
SplineSet
93.877 414 m 1
 156.245 532 l 1
 651.806 532 l 1
 634.35 433 l 1
 425.257 433 l 1
 373.597 150.838 l 1
 367.68 117.279 411.612 106 459.69 106 c 0
 484.569 106 504.579 109.742 504.579 109.742 c 0
 522.686 113.036 l 1
 505.866 9.61621 l 1
 493.084 7.26465 l 0
 492.536 7.16309 464.78 2 429.353 2 c 0
 357.397 2 239.76 22.5146 260.615 145.268 c 1
 261.263 154.971 263.602 167.876 266.179 182.495 c 0
 271.369 211.932 278.098 244.417 278.098 244.417 c 1
 311.544 434.103 l 1
 275.426 434.279 240.455 435 211.702 435 c 0
 175.434 435 148.659 432.454 142.21 429.043 c 0
 93.877 414 l 1
EndSplineSet
EndChar

StartChar: upsilon
Encoding: 965 965 313
Width: 600
Flags: W
LayerCount: 2
Fore
SplineSet
92.3496 448.255 m 1
 127.516 529 l 1
 275.277 529 l 1
 223.31 234.279 l 0
 213.565 179.014 200.089 93 308.398 93 c 0
 372.468 93 442.211 154.322 457.465 240.828 c 0
 508.277 529 l 1
 622.277 529 l 1
 571.146 239.021 l 0
 559.264 171.631 525.715 109.299 487.315 71.0303 c 1
 415.683 0.0117188 349.019 -14 284.531 -14 c 0
 210.965 -14 128.661 23.7715 106.572 97.5811 c 1
 92.0166 143.624 100.82 191.802 108.482 235.261 c 1
 145.977 442.552 l 1
 133.87 443.997 120.674 445.525 109.26 446.626 c 0
 92.3496 448.255 l 1
EndSplineSet
EndChar

StartChar: Xi
Encoding: 926 926 322
Width: 600
Flags: W
LayerCount: 2
Fore
SplineSet
275.666 105 m 1
 275.973 104.994 324.503 104 356.338 104 c 2
 520.338 104 l 1
 501.823 -1 l 1
 96.8232 -1 l 1
 115.515 105 l 1
 275.666 105 l 1
629.309 722 m 1
 610.794 617 l 1
 205.794 617 l 1
 224.308 722 l 1
 629.309 722 l 1
189.307 325 m 1
 207.82 430 l 1
 544.82 430 l 1
 526.307 325 l 1
 189.307 325 l 1
EndSplineSet
EndChar

StartChar: tonos
Encoding: 900 900 328
Width: 600
VWidth: 0
LayerCount: 2
Fore
SplineSet
388.577 750 m 1
 548.735 750 l 1
 384.673 602 l 1
 277.192 602 l 1
 388.577 750 l 1
EndSplineSet
EndChar

StartChar: sigma1
Encoding: 962 962 346
Width: 600
Flags: W
LayerCount: 2
Fore
SplineSet
196.831 79.8467 m 1
 155.238 109.356 106.786 197.282 122.205 284.729 c 0
 141.233 386.651 233.251 496.664 339.284 523.453 c 0
 399.039 539.276 478.879 541 525.393 541 c 0
 562.393 541 l 0
 587.331 541 574.514 519 574.514 519 c 0
 571.862 503.963 565.682 468.878 560 442.423 c 0
 556.956 428.251 l 1
 542.731 428.002 l 0
 498.186 427.223 451.531 426 428.115 426 c 0
 323.386 426 258.616 383.47 239.368 274.308 c 0
 230.416 223.539 269.517 162.651 304.803 147.08 c 1
 374.079 117.519 522.117 125.434 502.875 16.3037 c 1
 491.269 -43.166 430.411 -103.176 422.05 -121.764 c 0
 417.213 -132.87 l 1
 294.865 -134.242 l 1
 305.811 -113.898 l 0
 333.989 -61.5254 383.888 -17.6484 386.823 -1 c 0
 394.529 42.6982 299.636 8.95215 196.831 79.8467 c 1
EndSplineSet
EndChar

StartChar: chi
Encoding: 967 967 347
Width: 600
Flags: W
LayerCount: 2
Fore
SplineSet
355.516 282.482 m 1
 515.733 530.28 l 1
 628.55 530.28 l 1
 397.744 182.256 l 1
 487.595 -76.165 l 1
 492.209 -90.3125 506.153 -92.8398 515.132 -92.8398 c 0
 538.111 -92.8398 l 1
 520.719 -191.48 l 1
 495.745 -191.48 l 0
 471.386 -191.48 403.73 -188.374 380.292 -134.375 c 0
 380.022 -133.751 l 1
 317.561 69.3359 l 1
 150.198 -191.48 l 1
 28.0273 -191.48 l 1
 274.58 171.64 l 1
 191.919 377.524 l 1
 192.178 377.648 150.757 431.64 150.757 431.64 c 0
 120.794 431.64 l 1
 139.838 539.64 l 1
 181.771 539.64 l 0
 212.024 539.64 249.616 532.588 272.553 486.258 c 1
 278.959 473.666 312.495 414.048 355.516 282.482 c 1
EndSplineSet
EndChar

StartChar: psi
Encoding: 968 968 348
Width: 600
Flags: W
LayerCount: 2
Fore
SplineSet
163.632 514 m 1
 166.277 529 l 1
 275.277 529 l 1
 219.734 214 l 2
 211.107 165.076 202.234 94.1416 256.498 70.8818 c 1
 351.995 612.472 l 1
 468.051 652.485 l 1
 367.778 83.8145 l 1
 408.916 110.518 443.272 160.342 453.969 221 c 2
 508.277 529 l 1
 617.277 529 l 1
 566.188 239.256 l 2
 554.222 171.394 517.76 112.746 480.063 75.2021 c 0
 434.338 29.6875 394.574 5.31934 351.99 -5.72852 c 1
 319.674 -189 l 1
 210.674 -189 l 1
 242.307 -9.60352 l 1
 181.691 2.73828 129.731 38.8457 111.59 97.5596 c 0
 96.9893 143.608 105.788 191.62 113.439 235.016 c 0
 153.811 458.3 163.632 514 163.632 514 c 1
EndSplineSet
EndChar

StartChar: phi
Encoding: 966 966 349
Width: 600
Flags: W
LayerCount: 2
Fore
SplineSet
345.178 534.106 m 1
 354.996 589.791 l 1
 462.958 606.591 l 1
 450.189 534.173 l 1
 553.009 509.89 631.304 415.724 604.212 262.08 c 0
 578.092 113.948 467.271 17.5879 354.743 -7.12891 c 1
 322.146 -192 l 1
 217.146 -192 l 1
 249.535 -8.30469 l 1
 135.198 17.5088 63.6201 122.613 88.0391 261.1 c 0
 112.773 401.378 223.797 507.358 345.178 534.106 c 1
202.256 268 m 0
 185.933 175.43 219.045 108.922 265.522 82.3594 c 1
 329.871 447.303 l 1
 274.104 422.718 218.641 360.926 202.256 268 c 0
493.669 259 m 0
 510.778 356.031 475.901 416.07 434.031 442.538 c 1
 370.749 83.6445 l 1
 423.076 108.971 477.681 168.325 493.669 259 c 0
EndSplineSet
EndChar

StartChar: omega
Encoding: 969 969 350
Width: 600
Flags: W
LayerCount: 2
Fore
SplineSet
174.402 159.731 m 1
 181.377 117.376 191.443 104 207.338 104 c 0
 247.055 104 275.67 168.564 292.86 260.086 c 1
 316.297 393 l 1
 423.17 393 l 1
 400.855 260.062 l 1
 384.462 167.085 388.726 104 429.338 104 c 0
 446.282 104 459.91 117.168 481.919 159.712 c 1
 483.846 163.669 497.641 202.127 509.46 269.16 c 0
 520.004 328.958 529.084 414.045 528.34 522.473 c 0
 528.435 540 l 1
 638.802 540 l 1
 638.804 527.607 l 0
 639.124 495.92 644.7 389.618 624.542 275.293 c 0
 612.322 205.995 590.549 133.306 551.387 71.7803 c 1
 519.55 22.4922 457.478 -2 411.647 -2 c 0
 409.647 -2 l 0
 379.988 -2 338.616 14.3096 308.096 45.2549 c 1
 265.667 13.0908 219.094 -2 189.647 -2 c 0
 187.647 -2 l 0
 141.81 -2 88.3818 22.4941 73.9268 71.7803 c 1
 56.4639 133.308 60.3223 205.994 72.542 275.293 c 0
 92.7002 389.619 135.764 495.919 147.26 527.607 c 0
 151.632 540 l 1
 263.096 540 l 1
 256.884 522.393 l 0
 216.586 412.122 195.674 327.084 185.131 267.292 c 0
 173.352 200.488 173.928 163.215 174.402 159.731 c 1
EndSplineSet
EndChar

StartChar: Lambda
Encoding: 923 923 352
Width: 600
Flags: W
LayerCount: 2
Fore
SplineSet
475.645 0 m 1
 430.856 220.831 l 1
 377.887 517.244 l 1
 230.289 221.346 l 1
 117.668 -1 l 1
 5.75195 -1 l 1
 400.922 735 l 1
 430.95 735 l 1
 591.738 0 l 1
 475.645 0 l 1
EndSplineSet
EndChar

StartChar: Delta
Encoding: 916 916 353
Width: 600
Flags: W
LayerCount: 2
Fore
SplineSet
591.738 0 m 1
 5.91895 0 l 1
 400.928 735 l 1
 430.95 735 l 1
 591.738 0 l 1
378.056 517.835 m 1
 172.878 109 l 1
 453.843 109 l 1
 378.056 517.835 l 1
EndSplineSet
EndChar

StartChar: Gamma
Encoding: 915 915 355
Width: 600
Flags: W
LayerCount: 2
Fore
SplineSet
645.499 621 m 1
 279.499 621 l 1
 184.651 83.0898 l 1
 171.21 0 l 1
 63 0 l 1
 190.484 723 l 1
 663.484 723 l 1
 645.499 621 l 1
EndSplineSet
EndChar

StartChar: Theta
Encoding: 920 920 356
Width: 600
Flags: W
LayerCount: 2
Fore
SplineSet
499.002 397 m 1
 484.896 317 l 1
 232.896 317 l 1
 246.825 396 l 1
 252.102 425.924 l 1
 252.115 426 l 1
 267.076 426 l 2
 269.923 426.014 399.533 426.868 474.289 426.986 c 1
 474.292 427 l 1
 489.292 427 l 1
 504.292 427 l 1
 499.002 397 l 1
636.722 372.724 m 0
 610.184 222.224 541.847 0 303 0 c 0
 73.3926 0 68.1885 222.249 94.5518 371.764 c 0
 128.537 564.502 225.443 732 431.071 732 c 0
 614.89 732 674.608 587.594 636.722 372.724 c 0
526.693 372.565 m 0
 549.816 503.704 547.304 626 411.381 626 c 0
 268.405 626 231.412 507.082 207.526 371.62 c 0
 176.584 196.135 224.712 104 325.338 104 c 0
 417.264 104 492.374 177.932 526.693 372.565 c 0
EndSplineSet
EndChar

StartChar: Pi
Encoding: 928 928 357
Width: 600
Flags: W
LayerCount: 2
Fore
SplineSet
538.499 621 m 1
 279.499 621 l 1
 184.651 83.0898 l 1
 171.21 0 l 1
 63 0 l 1
 190.484 723 l 1
 663.484 723 l 1
 536 0 l 1
 429 0 l 1
 538.499 621 l 1
EndSplineSet
EndChar

StartChar: Phi
Encoding: 934 934 358
Width: 600
Flags: W
LayerCount: 2
Fore
SplineSet
63.2178 386.88 m 0
 97.9492 583.852 267.72 720 428.955 720 c 0
 578.284 720 707.837 583.215 673.726 389.76 c 0
 640.469 201.153 479.105 108.409 368.269 80.9238 c 1
 354 0 l 1
 249 0 l 1
 263.071 79.8037 l 1
 153.313 108.132 32.1348 210.603 63.2178 386.88 c 0
171.768 390 m 0
 150.578 269.831 217.008 207.641 276.574 179.066 c 1
 355.488 626.608 l 1
 286.24 595.04 192.938 510.064 171.768 390 c 0
568.12 392 m 0
 590.317 517.888 522.717 591.345 468.053 624.138 c 1
 389.709 179.833 l 1
 457.598 210.098 547.431 274.665 568.12 392 c 0
EndSplineSet
EndChar

StartChar: Chi
Encoding: 935 935 359
Width: 600
Flags: W
LayerCount: 2
Fore
SplineSet
379.181 473.442 m 1
 544.959 722 l 1
 659.178 722 l 1
 421.162 370.862 l 1
 555.859 1 l 1
 431.023 1 l 1
 342.629 262.553 l 1
 168.536 1 l 1
 47.9648 1 l 1
 301.865 366.699 l 1
 175.823 722 l 1
 295.471 722 l 1
 379.181 473.442 l 1
EndSplineSet
EndChar

StartChar: Sigma
Encoding: 931 931 362
Width: 600
Flags: W
LayerCount: 2
Fore
SplineSet
60.6504 43.3867 m 1
 300.271 354.064 l 1
 186.508 649.031 l 1
 198.043 722 l 1
 674.309 722 l 1
 656.146 619 l 1
 315.934 619 l 1
 410.441 367.996 l 1
 417.888 367.996 l 1
 415.513 354.528 l 2
 415.748 353.904 415.982 353.281 416.217 352.658 c 2
 414.871 350.888 l 1
 412.877 339.581 l 1
 406.276 339.581 l 1
 209.718 81 l 1
 525.282 81 l 2
 533.301 81 538.708 88 557.517 88 c 2
 576.517 88 l 1
 557.297 -21 l 1
 49.2969 -21 l 1
 60.6504 43.3867 l 1
EndSplineSet
EndChar

StartChar: Psi
Encoding: 936 936 363
Width: 600
Flags: W
LayerCount: 2
Fore
SplineSet
298.441 286.067 m 1
 369.312 688 l 1
 479.312 688 l 1
 408.821 288.22 l 1
 474.328 313.626 501.145 392.138 509.76 441 c 0
 559.484 723 l 1
 671.484 723 l 1
 624.08 454.155 l 0
 614.833 401.713 602.392 355.504 560.451 304.484 c 1
 513.039 246.566 450.806 220.342 394.854 209.004 c 1
 358 0 l 1
 248 0 l 1
 284.443 206.68 l 1
 225.74 217.432 177.866 243.46 147.08 304.167 c 1
 123.08 351.892 127.66 400.734 136.407 450.342 c 1
 185.54 723 l 1
 296.484 723 l 1
 246.76 441 l 0
 238.649 395.002 241.912 311.079 298.441 286.067 c 1
EndSplineSet
EndChar

StartChar: Omega
Encoding: 937 937 364
Width: 600
Flags: W
LayerCount: 2
Fore
SplineSet
68.5146 105 m 1
 161.311 105 l 1
 121.525 167.23 96.8027 265.432 108.705 332.935 c 0
 168.604 672.636 300.037 723 428.484 723 c 0
 551.223 723 666.938 668.856 608.042 334.843 c 0
 594.222 256.465 544.892 166.715 486.38 105 c 1
 568.515 105 l 1
 550 0 l 1
 338 0 l 1
 354.07 91.1367 l 1
 359.583 95.3799 l 0
 388.945 117.979 484.104 250.129 498.211 330.128 c 0
 535.414 541.122 515 624 411.028 624 c 0
 305.807 624 254.532 541.788 217.379 331.083 c 0
 203.343 251.479 257.521 118.451 279.896 96.6641 c 0
 284.29 92.3857 l 1
 268 0 l 1
 50 0 l 1
 68.5146 105 l 1
EndSplineSet
EndChar

StartChar: anoteleia
Encoding: 903 903 366
Width: 600
Flags: W
LayerCount: 2
Fore
SplineSet
381.393 541 m 0
 427.446 541 458.51 504.569 450.562 459.491 c 0
 442.61 414.399 398.694 377.952 352.623 377.952 c 0
 306.629 377.952 275.556 414.377 283.514 459.507 c 0
 291.459 504.568 335.352 541 381.393 541 c 0
EndSplineSet
EndChar

StartChar: afii10018
Encoding: 1041 1041 368
Width: 600
Flags: W
LayerCount: 2
Fore
SplineSet
270 0 m 0
 51 0 l 1
 178.484 722.998 l 1
 651.484 723 l 1
 633.499 621 l 1
 270.499 621 l 1
 238.231 438 l 1
 336.231 438 l 0
 415.681 438 470.251 438.039 525.426 396.797 c 0
 580.685 355.494 605.839 293.296 590.762 207.787 c 0
 577.08 130.197 517.739 56.3984 428.494 22.207 c 0
 371.457 0.354492 319.101 0 270 0 c 0
220.951 340 m 1
 178.809 101 l 1
 301.809 101 l 0
 332.979 101 360.903 101.681 390.834 113.489 c 0
 438.268 132.201 469.712 172.207 477.399 215.805 c 0
 485.167 259.856 467.473 303.115 423.141 324.605 c 0
 393.123 339.158 360.394 340 323.951 340 c 0
 220.951 340 l 1
EndSplineSet
EndChar

StartChar: afii10021
Encoding: 1044 1044 371
Width: 600
Flags: W
LayerCount: 2
Fore
SplineSet
11.4697 -167 m 1
 58.1963 98 l 1
 113.736 98 l 1
 114.262 98.8867 113.997 98.4307 114.513 99.3213 c 0
 124.361 116.319 138.273 142.41 145.733 161.093 c 0
 205.798 311.505 256.816 530.678 280.405 640.509 c 0
 286.868 670.601 284.286 705.343 284.286 705.343 c 0
 282.953 723 l 1
 663.484 723 l 1
 553.28 98 l 1
 612.364 98 l 1
 565.461 -168 l 1
 453.461 -168 l 1
 482.907 -1 l 1
 154.739 -1 l 1
 125.47 -167 l 1
 11.4697 -167 l 1
242.641 122.167 m 0
 239.364 114.479 235.266 105.345 231.761 98 c 1
 446.28 98 l 1
 538.499 621 l 1
 385.942 621 l 1
 355.383 496.139 299.486 255.624 242.641 122.167 c 0
EndSplineSet
EndChar

StartChar: afii10024
Encoding: 1046 1046 373
Width: 600
Flags: W
LayerCount: 2
Fore
SplineSet
16.999 0 m 0
 -6.99316 0 l 1
 277.657 416.36 l 1
 146.449 723 l 1
 202.493 723 l 0
 222.333 723 242.452 723.982 261.891 728.562 c 0
 273.418 731.28 l 1
 343.24 551.477 l 1
 373.308 722 l 1
 483.581 722 l 1
 486.264 713.708 l 0
 487.478 709.959 487.711 705.833 486.977 701.663 c 0
 483.304 680.837 476.477 683.254 475.726 679 c 0
 454.633 559.376 l 1
 578.302 731.328 l 1
 589.057 728.562 l 0
 606.873 723.982 626.646 723 646.484 723 c 0
 702.113 723 l 1
 472.624 421.56 l 1
 605.674 0 l 1
 582 0 l 0
 525.492 0 479.597 -3.94434 479.597 -3.94434 c 0
 468.239 -4.91113 l 1
 406.274 285.121 l 1
 356 0 l 1
 246 0 l 1
 294.728 276.347 l 1
 128.796 -4.89062 l 1
 118.012 -3.94434 l 0
 118.012 -3.94434 73.5068 0 16.999 0 c 0
EndSplineSet
EndChar

StartChar: afii10025
Encoding: 1047 1047 374
Width: 600
Flags: W
LayerCount: 2
Fore
SplineSet
47.5586 129.644 m 0
 41.9873 141.715 l 1
 154.712 212.441 l 1
 161.476 201.033 l 0
 174.722 178.693 163.496 168.294 166.121 163.26 c 0
 169.312 157.139 207.986 91.2617 292.406 91.2617 c 0
 402.734 91.2617 471.522 150.347 483.037 215.652 c 0
 495.159 284.4 433.669 330.579 301.174 330.579 c 0
 284.815 330.579 268.313 329.737 251.805 328.078 c 0
 234.979 326.387 l 1
 251.215 418.459 l 1
 266.194 418.482 l 0
 359.169 418.622 404.402 430.32 421.442 435.233 c 0
 487.271 454.212 510.938 492.903 517.425 529.696 c 0
 525.819 577.302 489.578 622.425 392.304 622.425 c 0
 337.336 622.425 267.885 582.79 230.849 547.328 c 0
 218.648 535.646 l 1
 157.454 603.161 l 1
 167.135 613.94 l 0
 235.985 690.601 330.181 724.29 415.204 724.29 c 0
 563.344 724.29 646.693 638.733 628.243 534.101 c 0
 617.328 472.198 577.356 415.709 509.203 384.19 c 1
 578.955 348.929 603.539 280.877 590.122 204.787 c 0
 569.529 87.999 454.419 -12.1904 275.65 -12.1904 c 0
 178.99 -12.1904 81.1396 56.8877 47.5586 129.644 c 0
EndSplineSet
EndChar

StartChar: afii10026
Encoding: 1048 1048 375
Width: 600
Flags: W
LayerCount: 2
Fore
SplineSet
141.307 0 m 1
 53 0 l 1
 180.308 722 l 1
 294.578 722 l 1
 297.262 713.708 l 0
 298.476 709.959 298.709 705.833 297.975 701.663 c 0
 294.303 680.84 287.477 683.256 286.726 679 c 0
 209.407 240.505 l 1
 566.559 722 l 1
 670.307 722 l 1
 542.822 -1 l 1
 433.798 -1 l 1
 527.673 526.153 l 1
 141.307 0 l 1
EndSplineSet
EndChar

StartChar: afii10029
Encoding: 1051 1051 378
Width: 600
Flags: W
LayerCount: 2
Fore
SplineSet
13.2949 40.5752 m 0
 10.0303 46.7295 l 1
 67.7822 149.074 l 1
 80.9521 129.911 l 0
 87.6885 120.11 85.457 108.907 85.5693 107.649 c 1
 87.9814 101.492 101.29 86.959 107.665 86.3672 c 1
 108.935 87.6387 111.002 90.334 113.776 95.1455 c 0
 123.645 112.256 137.588 138.523 145.069 157.331 c 0
 205.312 308.749 256.59 529.39 280.308 639.957 c 0
 286.807 670.25 284.266 705.225 284.266 705.225 c 0
 282.953 723 l 1
 663.484 723 l 1
 536 0 l 1
 429 0 l 1
 538.499 621 l 1
 385.942 621 l 1
 355.18 494.986 298.891 252.247 241.828 117.558 c 0
 229.433 88.3018 213.438 55.0508 191.212 28.3105 c 0
 165.292 -2.87695 115.831 -8.17969 91.6611 -8.17969 c 0
 57.7012 -8.17969 29.8105 9.43359 13.2949 40.5752 c 0
EndSplineSet
EndChar

StartChar: afii10037
Encoding: 1059 1059 386
Width: 600
Flags: W
LayerCount: 2
Fore
SplineSet
311.541 229.482 m 1
 143.35 723 l 1
 293.743 723 l 1
 292.143 708.935 l 0
 290.221 692.052 282.563 683.748 282.471 683.226 c 0
 282.406 682.857 282.418 681.979 282.809 680.084 c 1
 387.666 348.197 l 1
 506.73 572.026 l 0
 530.817 617.304 553.718 663.488 570.547 710.663 c 0
 574.948 723 l 1
 694.659 723 l 1
 685.576 704.441 l 0
 660.995 654.217 633.808 605.08 606.165 556.532 c 0
 367.146 136.755 l 0
 350.717 107.901 333.637 78.8477 303.704 51.6738 c 0
 258.786 10.8994 209.474 -8.17969 169.058 -8.17969 c 0
 122.115 -8.17969 80.417 8.01855 52.5117 40.166 c 0
 45.4678 48.2812 l 1
 120.595 148.496 l 1
 132.354 137.808 l 0
 143.793 127.411 141.454 114.151 141.454 114.151 c 1
 143.032 110.391 155.52 90.2275 186.16 90.2275 c 0
 195.686 90.2275 208.678 96.25 234.425 118.448 c 0
 251.617 133.269 265.272 153.325 277.651 172.885 c 1
 311.541 229.482 l 1
EndSplineSet
EndChar

StartChar: afii10040
Encoding: 1062 1062 389
Width: 600
Flags: W
LayerCount: 2
Fore
SplineSet
486 0 m 1
 38 0 l 1
 165.308 722 l 1
 279.578 722 l 1
 282.262 713.708 l 0
 283.507 710.133 283.774 706.2 283.073 702.224 c 0
 279.572 682.369 272.727 684.673 272.011 680.615 c 0
 169.456 99 l 1
 422.456 99 l 1
 532.309 722 l 1
 643.806 722 l 1
 646.889 714.711 l 0
 648.522 711.025 648.967 706.818 648.215 702.55 c 0
 644.341 680.582 636.677 684.392 636.274 682.108 c 0
 531.91 90.2305 l 1
 612.908 90.2227 l 1
 567.377 -168 l 1
 456.377 -168 l 1
 486 0 l 1
EndSplineSet
EndChar

StartChar: afii10041
Encoding: 1063 1063 390
Width: 600
Flags: W
LayerCount: 2
Fore
SplineSet
143.006 340.665 m 0
 123.429 392.333 131.175 443.35 139.925 492.977 c 2
 180.308 722 l 1
 296.181 722 l 1
 298.486 712.932 l 0
 299.458 709.342 299.596 705.481 298.908 701.586 c 0
 296.574 688.346 286.42 680.148 284.319 677.854 c 0
 281.294 674.544 282.193 675.979 281.42 671.59 c 0
 250.021 493.519 l 0
 243.94 459.036 239.372 428.14 248.953 397.157 c 0
 263.793 349.174 307.962 323 360.021 323 c 0
 411.209 323 464.438 348.571 496.857 396.397 c 0
 518.563 428.418 525.206 460.552 531.531 496.417 c 0
 571.309 722 l 1
 678.309 722 l 1
 551 0 l 1
 444 0 l 1
 490.464 263.508 l 1
 443.246 236.69 391.52 224.006 340.959 224.006 c 0
 251.514 224.006 172.452 262.948 143.006 340.665 c 0
EndSplineSet
EndChar

StartChar: afii10042
Encoding: 1064 1064 391
Width: 600
Flags: W
LayerCount: 2
Fore
SplineSet
2.64453 15 m 2
 30.8125 15 l 1
 155.477 722 l 1
 269.746 722 l 1
 272.43 713.708 l 2
 273.675 710.133 273.942 706.2 273.241 702.224 c 0
 269.74 682.369 262.895 684.673 262.179 680.615 c 2
 159.624 99 l 1
 267.456 99 l 1
 377.308 722 l 1
 488.806 722 l 1
 491.889 714.711 l 2
 493.532 711.077 493.986 706.929 493.245 702.721 c 0
 489.426 681.061 481.752 684.818 481.354 682.566 c 2
 378.456 99 l 1
 481.624 99 l 1
 591.477 722 l 1
 702.975 722 l 1
 706.058 714.711 l 2
 707.696 711.051 708.146 706.879 707.399 702.644 c 0
 703.555 680.843 695.886 684.624 695.486 682.358 c 2
 575.168 0 l 1
 28.168 0 l 1
 28.5938 2.41602 53.9678 15 2.64453 15 c 2
EndSplineSet
EndChar

StartChar: afii10043
Encoding: 1065 1065 392
Width: 600
Flags: W
LayerCount: 2
Fore
SplineSet
486 0 m 1
 3 0 l 1
 130.308 722 l 1
 244.578 722 l 1
 247.262 713.708 l 0
 248.507 710.133 248.774 706.2 248.073 702.224 c 0
 244.572 682.369 237.727 684.673 237.011 680.615 c 0
 134.456 99 l 1
 242.454 99 l 1
 352.306 722 l 1
 463.804 722 l 1
 466.887 714.711 l 0
 468.53 711.077 468.984 706.929 468.242 702.721 c 0
 464.424 681.061 456.75 684.818 456.353 682.566 c 0
 353.454 99 l 1
 456.456 99 l 1
 566.309 722 l 1
 677.806 722 l 1
 680.889 714.711 l 0
 682.532 711.077 682.986 706.929 682.245 702.721 c 0
 678.426 681.061 670.752 684.818 670.354 682.566 c 0
 567.456 99 l 1
 614.456 99 l 1
 567.377 -168 l 1
 456.377 -168 l 1
 486 0 l 1
EndSplineSet
EndChar

StartChar: afii10044
Encoding: 1066 1066 393
Width: 600
Flags: W
LayerCount: 2
Fore
SplineSet
250.147 619.005 m 1
 140.147 619.005 l 1
 158.308 722 l 1
 378.317 722 l 1
 328.231 438 l 1
 336.231 438 l 0
 415.696 438 484.07 438.502 539.864 396.797 c 0
 595.122 355.494 620.278 293.296 605.2 207.787 c 0
 591.52 130.197 532.179 56.3975 442.933 22.207 c 0
 385.896 0.354492 333.54 0 284.438 0 c 0
 141 0 l 1
 250.147 619.005 l 1
310.951 340 m 1
 268.809 101 l 1
 316.247 101 l 0
 347.417 101 375.341 101.681 405.273 113.489 c 0
 452.706 132.201 484.149 172.207 491.837 215.805 c 0
 499.604 259.856 481.91 303.115 437.579 324.605 c 0
 407.561 339.158 374.831 340 338.389 340 c 0
 310.951 340 l 1
EndSplineSet
EndChar

StartChar: afii10045
Encoding: 1067 1067 394
Width: 600
Flags: W
LayerCount: 2
Fore
SplineSet
160.201 0 m 0
 41 0 l 1
 168.308 722 l 1
 278.587 722 l 1
 281.268 713.702 l 0
 282.503 710.111 282.77 706.156 282.062 702.149 c 0
 278.539 682.162 271.692 684.482 270.973 680.4 c 0
 227.654 434.727 l 1
 298.267 434.724 346.396 434.577 394.513 393.316 c 0
 442.684 352.006 463.245 290.454 448.395 206.234 c 0
 434.977 130.135 381.861 56.7412 301.527 22.3262 c 0
 250.206 0.339844 203.398 0 160.201 0 c 0
210.951 340 m 1
 168.809 101 l 1
 190.33 101 l 0
 217.776 101 235.471 101.497 259.974 113.015 c 0
 298.303 131.033 326.367 171.004 334.268 215.805 c 0
 342.242 261.032 328.118 304.301 293.236 325.114 c 0
 269.423 339.324 246.992 340 214.873 340 c 0
 210.951 340 l 1
554.562 0 m 1
 444.562 0 l 1
 571.87 722 l 1
 682.144 722 l 1
 684.827 713.708 l 0
 686.066 710.11 686.329 706.151 685.624 702.149 c 0
 682.1 682.163 675.255 684.483 674.535 680.4 c 0
 554.562 0 l 1
EndSplineSet
EndChar

StartChar: afii10046
Encoding: 1068 1068 395
Width: 600
Flags: W
LayerCount: 2
Fore
SplineSet
270 0 m 0
 51 0 l 1
 178.308 722 l 1
 288.587 722 l 1
 291.268 713.702 l 0
 292.511 710.154 292.785 706.245 292.087 702.284 c 0
 288.604 682.535 281.757 684.827 281.045 680.79 c 0
 238.231 438 l 1
 336.231 438 l 0
 415.682 438 470.252 438.039 525.427 396.797 c 0
 580.684 355.494 605.839 293.296 590.762 207.787 c 0
 577.08 130.197 517.739 56.3984 428.494 22.207 c 0
 371.457 0.354492 319.101 0 270 0 c 0
220.951 340 m 1
 178.809 101 l 1
 301.809 101 l 0
 332.979 101 360.903 101.681 390.834 113.489 c 0
 438.268 132.201 469.712 172.207 477.399 215.805 c 0
 485.167 259.856 467.473 303.115 423.141 324.605 c 0
 393.123 339.158 360.394 340 323.951 340 c 0
 220.951 340 l 1
EndSplineSet
EndChar

StartChar: afii10047
Encoding: 1069 1069 396
Width: 600
Flags: W
LayerCount: 2
Fore
SplineSet
67.9336 139.888 m 0
 64.3799 153.064 l 1
 170.809 201.383 l 1
 177.187 196.281 l 0
 188.03 187.607 184.912 173.889 184.689 172.623 c 0
 183.882 168.044 182.881 165.154 182.675 163.982 c 0
 182.351 162.147 182.147 163.234 183.794 159.146 c 0
 202.392 112.955 245.183 82.8301 295.69 82.8301 c 0
 381.434 82.8301 479.153 164.936 515.65 325 c 1
 232.289 325 l 1
 250.627 429 l 1
 529.186 429 l 1
 531.162 561.514 465.598 628.004 385.046 628.004 c 0
 334.152 628.004 276.059 598.183 236.3 547.241 c 0
 225.943 533.973 l 1
 150.476 589.377 l 1
 160.291 601.828 l 0
 222.159 680.302 315.879 728 407.223 728 c 0
 534.751 728 679.735 633.681 631.327 359.145 c 0
 581.16 74.6318 396.727 -12.002 276.232 -12.002 c 0
 174.44 -12.002 92.8789 47.3994 67.9336 139.888 c 0
EndSplineSet
EndChar

StartChar: afii10048
Encoding: 1070 1070 397
Width: 600
Flags: W
LayerCount: 2
Fore
SplineSet
124.502 0 m 1
 14.502 0 l 1
 141.811 722 l 1
 252.082 722 l 1
 254.766 713.708 l 0
 256.013 710.146 256.283 706.227 255.584 702.266 c 0
 252.096 682.482 245.247 684.778 244.534 680.737 c 0
 200.146 429 l 1
 252.915 429 l 1
 309 652.715 428.996 730 514.557 730 c 0
 581.755 730 639.918 682.712 660.698 589.958 c 0
 677.992 512.771 665.934 424.922 654.398 359.504 c 0
 643.561 298.04 624.812 210.159 581.073 132.594 c 0
 526.902 36.541 451.253 -11.0146 384.442 -11.0146 c 0
 292.503 -11.0146 199.255 78.3535 232.973 325 c 1
 181.809 325 l 1
 124.502 0 l 1
493.305 624.01 m 0
 460.091 624.01 386.574 576.055 350.599 372.03 c 0
 312.094 153.654 367.531 97.9873 403.425 97.9873 c 0
 424.839 97.9873 460.239 116.381 492.188 180.398 c 0
 520.26 236.647 534.296 305.212 542.114 349.55 c 0
 552.243 406.994 561.111 471.371 555.773 526.652 c 0
 548.352 603.486 515.839 624.01 493.305 624.01 c 0
EndSplineSet
EndChar

StartChar: afii10049
Encoding: 1071 1071 398
Width: 600
Flags: W
LayerCount: 2
Fore
SplineSet
152.258 0 m 1
 27.3232 0 l 1
 253.076 315.073 l 1
 173.276 345.558 131.973 426.001 148.103 517.477 c 0
 161.199 591.753 211.924 662.006 290.141 697.126 c 0
 343.697 721.173 392.588 722 439.308 722 c 0
 667.309 722 l 1
 540 0 l 1
 428 0 l 1
 481.604 304 l 1
 365.861 304 l 1
 152.258 0 l 1
336.435 603.016 m 0
 293.907 584.618 266.46 547.07 259.516 507.686 c 0
 252.717 469.128 266.4 434.339 299.518 417.275 c 0
 321.795 405.795 346.014 405 374.412 405 c 0
 499.412 405 l 1
 536.617 616 l 1
 420.617 616 l 0
 390.526 616 364.496 615.155 336.435 603.016 c 0
EndSplineSet
EndChar

StartChar: afii10066
Encoding: 1073 1073 400
Width: 600
Flags: W
LayerCount: 2
Fore
SplineSet
379.36 440.103 m 0
 308.179 440.103 227.789 384.467 207.686 270.454 c 0
 188.659 162.554 233.209 87.9941 321.118 87.9941 c 0
 388.46 87.9941 469.186 141.887 489.88 259.253 c 0
 512.545 387.789 445.899 440.103 379.36 440.103 c 0
114.521 85.3906 m 0
 78.1318 155.865 86.0859 244.352 100.42 325.642 c 0
 112.096 391.861 132.31 473.035 170.266 541.028 c 1
 239.275 672.343 349.266 730 441.719 730 c 0
 470.398 730 515.33 745.872 527.854 752.427 c 1
 529.835 756.74 533.391 766.53 544.224 773.987 c 0
 559.752 784.677 l 1
 599.538 684.461 l 1
 589.632 676.346 l 0
 547.563 641.884 469.51 628 423.733 628 c 0
 388.925 628 321.386 614.668 268.849 505.523 c 1
 311.514 528.526 357.021 541.005 402.834 541.005 c 0
 531.967 541.005 636.126 442.432 604.375 262.365 c 0
 573.848 89.2354 436.789 -14 302.5 -14 c 0
 214.31 -14 147.982 20.4678 114.521 85.3906 c 0
EndSplineSet
Substitution2: "Macedonian-Serbian Italic subtable" afii10066.mkd
EndChar

StartChar: afii10067
Encoding: 1074 1074 401
Width: 600
Flags: W
LayerCount: 2
Fore
SplineSet
157.661 57.8515 m 0
 110.557 108.834 91.2581 183.218 106.94 267.385 c 0
 124.596 362.159 181.518 441.55 260.039 489.85 c 0
 297.968 513.181 341.538 530 381.176 530 c 0
 416.414 530 455.787 529.702 500.908 515.257 c 0
 571.937 492.517 591.666 441.219 582.271 390.793 c 0
 574.219 347.574 542.725 308.298 498.423 284.872 c 1
 563.453 256.957 575.456 203.262 565.647 150.613 c 0
 555.029 93.6204 511.89 39.9791 425.16 15.7088 c 0
 370.437 0.395626 326.586 0 277.5 0 c 0
 224.737 0 190.278 22.5475 157.661 57.8515 c 0
316.055 237.68 m 0
 220.136 237.68 l 1
 216.947 172.854 240.015 125.085 278.246 99.4599 c 0
 294.031 88.8794 356.876 86.4913 386.669 94.1428 c 0
 434.052 106.312 447.868 129.731 452.376 155.299 c 0
 457.434 183.983 451.405 221.98 411.814 230.354 c 0
 378.644 237.37 352.551 237.68 316.055 237.68 c 0
331.307 431.042 m 0
 295.481 411.06 264.805 378.441 244.625 336.273 c 1
 323.149 336.273 l 0
 355.359 336.273 380.32 336.344 413.281 342.902 c 0
 453.215 350.85 466.503 378.21 469.929 397.636 c 0
 472.871 414.323 471.825 429.216 431.737 438.913 c 0
 417.916 442.256 405.531 444.001 392.236 444.99 c 0
 380.148 445.89 357.089 445.422 331.307 431.042 c 0
EndSplineSet
EndChar

StartChar: afii10068
Encoding: 1075 1075 402
Width: 600
Flags: W
LayerCount: 2
Fore
SplineSet
237.495 -7.32649 m 0
 125.337 11.1206 74.5078 86.7367 88.276 160.005 c 0
 95.4733 198.304 122.177 247.395 195.015 282.303 c 0
 263.869 315.302 352.17 326.746 402.531 347.789 c 0
 446.192 366.033 455.495 386.274 457.655 397.763 c 0
 458.022 399.715 458.202 401.572 458.223 403.351 c 0
 458.492 426.007 427.453 449.074 373.634 449.074 c 0
 304.419 449.074 247.866 405.365 224.734 381.045 c 0
 224.734 381.045 224.574 379.857 224.227 377.809 c 0
 221.897 364.08 211.238 357.778 205.102 356.377 c 0
 193.567 353.742 l 1
 147.209 447.41 l 1
 155.461 455.024 l 0
 216.652 511.484 295.74 542.004 377.773 542.004 c 0
 396.484 542.004 414.096 540.483 430.518 537.589 c 0
 526.715 521.694 583.697 459.581 569.988 386.695 c 0
 551.767 289.819 436.143 257.146 407.002 247.862 c 0
 358.346 232.363 297.561 219.101 257.296 202.781 c 0
 213.845 185.168 203.882 163.216 201.398 150.014 c 0
 200.925 147.499 200.705 145.105 200.704 142.813 c 0
 200.694 114.911 239.139 88 307.962 88 c 0
 392.621 88 457.483 139.829 476.262 157.612 c 0
 476.64 157.97 476.715 158.068 476.715 158.068 c 1
 476.927 159.516 476.922 159.637 477.105 161.04 c 0
 477.223 161.951 478.087 177.294 493.082 183.77 c 0
 507.208 189.872 l 1
 550.474 82.2435 l 1
 541.757 75.2804 l 0
 466.621 15.2585 377.757 -12 294.121 -12 c 0
 273.785 -12 254.914 -10.3798 237.495 -7.32649 c 0
EndSplineSet
Substitution2: "Macedonian-Serbian Italic subtable" afii10068.mkd
EndChar

StartChar: afii10072
Encoding: 1078 1078 405
Width: 600
Flags: W
LayerCount: 2
Fore
SplineSet
18.5744 92.5577 m 0
 17.6698 99.8901 l 1
 113.42 181.176 l 1
 114.407 150.013 l 1
 114.383 139.092 111.518 129.936 110.777 123.736 c 1
 110.871 119.581 114.388 97.5014 118.201 87.5181 c 1
 135.632 107.798 166.835 169.452 183.085 256.866 c 0
 199.253 343.843 192.783 410.837 183.86 434.889 c 1
 178.019 427.435 171.719 415.864 165.258 396.331 c 0
 157.899 374.085 l 1
 83.5601 443.705 l 1
 89.3278 453.216 l 0
 120.415 504.478 148.236 540.028 201.086 540.028 c 0
 274.316 540.028 297.686 443.391 288.404 332 c 1
 305.309 332 l 1
 342.866 530 l 1
 442.379 530 l 1
 445.731 519.603 l 0
 447.073 515.749 447.259 511.774 446.54 507.984 c 0
 443.076 489.819 436.175 491.659 435.289 487.002 c 0
 405.772 332 l 1
 426.046 332 l 1
 459.046 448.701 517.895 540.028 589.624 540.028 c 0
 649.968 540.028 665.32 491.494 672.354 434.469 c 0
 673.259 427.137 l 1
 577.508 345.851 l 1
 576.54 376.425 l 0
 576.222 386.469 579.425 397.209 580.153 403.289 c 1
 580.058 407.448 576.541 429.525 572.728 439.51 c 1
 555.296 419.229 524.093 357.576 507.843 270.161 c 0
 491.022 179.669 499.087 110.317 507.98 89.8968 c 1
 516.11 95.3087 528.005 107.523 535.67 130.695 c 0
 543.028 152.942 l 1
 617.37 83.3222 l 1
 611.602 73.8113 l 0
 580.204 22.0407 551.639 -13.001 489.844 -13.001 c 0
 486.979 -13.001 484.14 -12.8189 481.343 -12.4531 c 0
 406.987 -3.27961 388.456 110.204 407.265 238 c 1
 389.197 238 l 1
 344.587 0 l 1
 244.124 0 l 1
 288.734 238 l 1
 274.898 238 l 1
 244.544 98.4257 180.299 -13.001 101.306 -13.001 c 0
 36.9721 -13.001 25.519 36.2659 18.5744 92.5577 c 0
EndSplineSet
EndChar

StartChar: afii10073
Encoding: 1079 1079 406
Width: 600
Flags: W
LayerCount: 2
Fore
SplineSet
94.6287 94.9566 m 0
 86.9643 104.616 l 1
 150.866 179.67 l 1
 162.339 169.085 l 0
 194.997 138.954 217.163 104.874 300.089 104.874 c 0
 414.688 104.874 459.723 135.075 465.071 161.948 c 0
 465.381 163.507 465.586 165.301 465.6 167.235 c 0
 465.706 182.598 454.242 221.212 328.537 221.212 c 0
 309.522 221.212 312.498 220.457 292.253 218.407 c 0
 272.527 216.41 l 1
 292.555 329.99 l 1
 306.108 328.957 l 0
 317.934 328.055 330.316 328.04 342.084 328.04 c 0
 462.383 328.04 476.811 352.793 481.108 373.931 c 0
 481.604 376.372 481.843 378.697 481.855 380.917 c 0
 481.991 404.172 454.306 426.132 394.79 426.132 c 0
 333.65 426.132 273.03 414.911 223.777 373.042 c 0
 209.957 361.294 l 1
 165.093 440.45 l 1
 174.167 448.506 l 0
 239.158 506.204 327.624 532.959 407.356 532.959 c 0
 422.369 532.959 436.773 531.712 450.465 529.348 c 0
 546.139 513.712 609.032 444.876 595.041 369.782 c 0
 587.182 327.599 555.659 296.859 517.073 278.275 c 1
 563.821 253.499 587.435 205.819 578.36 157.113 c 0
 560.666 62.1424 466.021 -0.00117689 285.903 -0.0322266 c 0
 197.869 -0.0482616 141.509 35.8762 94.6287 94.9566 c 0
EndSplineSet
EndChar

StartChar: afii10077
Encoding: 1083 1083 410
Width: 600
Flags: W
LayerCount: 2
Fore
SplineSet
11.4955 44.2648 m 0
 7.95592 51.3085 l 1
 64.9565 155.135 l 1
 78.6309 134.204 l 0
 86.0743 122.811 83.4753 110.554 83.5072 110.128 c 1
 86.9818 102.015 98.3099 90.2275 103.562 90.2275 c 0
 103.639 90.2275 103.674 90.2303 103.674 90.2303 c 1
 103.967 90.3749 107.197 92.8665 111.848 100.629 c 0
 121.894 117.394 136.064 143.046 143.765 161.573 c 0
 152.78 183.259 169.856 272.462 203.631 334.653 c 0
 236.805 395.734 272.705 438.954 314.384 473.761 c 0
 356.583 509.005 405.256 530 449.282 530 c 0
 598.41 530 566.842 501.107 615.937 488.838 c 0
 638.551 483.186 l 1
 623.702 466.108 l 1
 621.018 462.673 609.415 437.946 604.777 413.058 c 1
 558.459 160.375 l 1
 542.143 72.808 567.056 20.3379 567.152 20.1345 c 1
 576.329 1.09175 l 1
 436.879 -5.6854 l 1
 435.571 9.9336 l 1
 435.571 9.9336 429.914 73.7363 444.969 153.526 c 0
 490.382 395.771 l 1
 497.106 429.251 l 1
 493.408 432.068 482.202 438.055 453.417 438.055 c 0
 414.444 438.055 353.667 375.537 307.375 307.553 c 0
 264.226 244.184 265.234 170.197 240.116 113.126 c 0
 227.506 84.4767 211.272 52.039 189.261 26.3016 c 0
 164.621 -2.50905 116.373 -8.17969 91.6611 -8.17969 c 0
 57.4946 -8.17969 28.3214 10.7821 11.4955 44.2648 c 0
EndSplineSet
EndChar

StartChar: afii10078
Encoding: 1084 1084 411
Width: 600
Flags: W
LayerCount: 2
Fore
SplineSet
145.409 -1 m 1
 38.9469 -1 l 1
 137.797 529.6 l 1
 223.306 529.6 l 1
 352.592 291.559 l 1
 568.903 530.6 l 1
 654.435 530.6 l 1
 585.456 160.373 l 0
 569.145 72.8283 594.056 20.3415 594.155 20.1327 c 1
 603.304 1.14532 l 1
 468.882 -5.72121 l 1
 467.787 7.35216 l 1
 467.379 12.2274 461.766 77.3638 476.972 163.605 c 0
 511.342 358.528 l 1
 346.782 169.93 l 1
 299.561 169.93 l 1
 208.648 357.638 l 1
 145.409 -1 l 1
EndSplineSet
EndChar

StartChar: afii10079
Encoding: 1085 1085 412
Width: 600
Flags: W
LayerCount: 2
Fore
SplineSet
178.754 0 m 1
 64.2772 0 l 1
 138.405 395.88 l 1
 148.866 451.058 138.66 491.188 129.312 508.078 c 0
 119.253 526.254 l 1
 251.097 542.393 l 1
 254.907 530.618 l 0
 256.996 524.596 269.234 486.165 258.352 428.61 c 0
 238.358 323 l 1
 476.891 323 l 1
 515.807 528.7 l 1
 627.277 528.7 l 1
 558.456 160.34 l 0
 542.275 73.5091 568.099 21.2509 568.519 20.4024 c 1
 578.337 1.10067 l 1
 436.878 -5.67534 l 1
 435.71 8.2716 l 1
 435.476 10.8851 429.858 73.3634 444.976 153.531 c 0
 458.403 224 l 1
 220.897 224 l 1
 178.754 0 l 1
EndSplineSet
EndChar

StartChar: afii10088
Encoding: 1094 1094 421
Width: 600
Flags: W
LayerCount: 2
Fore
SplineSet
265.708 -13 m 0
 191.007 -13 125.813 26.7983 105.281 99.7712 c 0
 91.2729 147.132 100.278 194.287 108.497 237.701 c 0
 138.408 395.711 l 0
 148.864 450.947 138.658 491.147 129.312 508.054 c 0
 119.251 526.254 l 1
 251.097 542.393 l 1
 254.907 530.618 l 0
 256.861 524.959 270.047 486.029 259.151 428.131 c 0
 223.033 236.215 l 0
 216.641 202.255 210.49 166.58 221.402 136.255 c 1
 233.087 102.431 260.627 85 296.698 85 c 0
 341.225 85 390.704 113.843 420.288 152.236 c 0
 442.354 180.871 450.063 206.932 457.194 244.807 c 0
 510.69 529 l 1
 625.153 529 l 1
 556.457 160.35 l 0
 540.419 74.2868 573.261 22.5084 573.777 21.6947 c 1
 587.104 1.23318 l 1
 557.881 -0.166583 l 1
 537.365 -55.6201 490.087 -105.114 481.864 -123.99 c 0
 477.987 -132.89 l 1
 353.679 -134.284 l 1
 365.725 -111.893 l 0
 391.647 -63.712 439.81 -20.2854 446.386 -0.686725 c 1
 445.163 0.675315 l 1
 444.619 1.37796 l 0
 442.167 4.54315 440 9.71263 440 15 c 1
 440 15 436.717 47.2254 436.332 59.174 c 1
 386.183 16.9979 321.554 -13 265.708 -13 c 0
EndSplineSet
EndChar

StartChar: afii10089
Encoding: 1095 1095 422
Width: 600
Flags: W
LayerCount: 2
Fore
SplineSet
129.312 507.774 m 0
 119.253 526.254 l 1
 251.097 542.393 l 1
 254.907 530.618 l 0
 256.861 524.879 270.047 485.411 259.154 426.699 c 0
 254.015 399.034 l 0
 247.625 364.602 241.471 328.428 252.385 297.681 c 1
 264.07 263.385 291.61 245.711 327.681 245.711 c 0
 372.208 245.711 421.688 274.955 451.271 313.88 c 0
 473.336 342.913 481.046 369.336 488.176 407.737 c 0
 510.691 529 l 1
 625.153 529 l 1
 556.456 160.344 l 0
 540.146 72.8151 565.059 20.3298 565.152 20.1319 c 1
 574.336 1.07664 l 1
 433.378 -5.67534 l 1
 432.21 8.2716 l 1
 431.976 10.7994 426.358 71.163 441.478 148.635 c 1
 452.484 209.498 l 1
 408.022 170.698 351.899 147.711 296.69 147.711 c 0
 221.996 147.711 156.751 188.284 136.263 262.219 c 1
 122.247 310.339 131.397 358.189 139.473 402.243 c 1
 149.935 458.358 139.231 489.552 129.312 507.774 c 0
EndSplineSet
EndChar

StartChar: afii10090
Encoding: 1096 1096 423
Width: 600
Flags: W
LayerCount: 2
Fore
SplineSet
59.1565 34.7529 m 1
 41.1811 68.1819 47.7418 107.507 54.3558 143.036 c 0
 55.4776 149.064 56.6252 155.013 57.7282 160.938 c 0
 103.236 404.141 l 0
 113.688 459.354 102.985 490.109 93.0697 508.046 c 0
 83.093 526.094 l 1
 208.823 542.487 l 1
 212.664 530.618 l 0
 214.618 524.952 227.803 485.989 216.911 428.028 c 0
 166.447 160.9 l 0
 164.783 152.05 162.633 142.857 160.939 133.848 c 0
 158.105 118.773 157.13 104.324 159.556 94.8795 c 1
 163.859 82.2207 171.616 78 181.984 78 c 0
 204.182 78 228.558 103.024 240.581 117.544 c 1
 263.849 145.874 269.58 164.052 274.311 189.207 c 0
 338.212 529 l 1
 446.674 529 l 1
 383.48 168.533 l 0
 382.015 160.223 380.274 151.846 378.818 143.584 c 0
 376.269 129.125 374.706 115.049 376.239 103.084 c 1
 379.132 81.5 390.833 76.1387 403.313 76.1387 c 0
 417.505 76.1387 440.221 86.1445 463.757 118.871 c 1
 482.152 144.706 487.315 164.547 491.582 188.743 c 0
 551.212 529 l 1
 657.636 529 l 1
 589.781 160.365 l 1
 573.566 73.3809 603.797 21.3058 603.891 21.1427 c 1
 615.636 1.1737 l 1
 472.648 -5.67566 l 1
 471.485 8.28292 l 1
 471.372 9.64062 470.589 20.4101 470.376 35.4916 c 1
 438.717 6.69408 400.042 -13 360.229 -13 c 0
 318.167 -13 285.457 9.4764 271.479 43.6095 c 1
 238.166 8.04769 193.093 -13 147.229 -13 c 0
 114.954 -13 76.8033 -0.901738 59.1565 34.7529 c 1
EndSplineSet
EndChar

StartChar: afii10091
Encoding: 1097 1097 424
Width: 600
Flags: W
LayerCount: 2
Fore
SplineSet
471.439 8.83693 m 1
 471.439 8.83693 471.346 10.05 471.147 12.8795 c 0
 470.876 18.0755 470.498 27.271 470.376 35.4913 c 1
 438.717 6.69436 400.042 -13 360.229 -13 c 0
 318.167 -13 285.457 9.4764 271.479 43.6095 c 1
 238.166 8.04769 193.093 -13 147.229 -13 c 0
 114.954 -13 76.8033 -0.901738 59.1565 34.7529 c 1
 41.1811 68.1819 47.7418 107.507 54.3558 143.036 c 0
 55.4776 149.064 56.6252 155.013 57.7282 160.938 c 2
 103.236 404.141 l 2
 113.688 459.354 102.985 490.109 93.0697 508.046 c 2
 83.093 526.094 l 1
 208.823 542.487 l 1
 212.664 530.618 l 2
 214.618 524.952 227.803 485.989 216.911 428.028 c 2
 166.447 160.9 l 2
 164.783 152.05 162.633 142.857 160.939 133.848 c 0
 158.105 118.773 157.13 104.324 159.556 94.8795 c 0
 163.859 82.2207 171.616 78 181.984 78 c 0
 204.182 78 228.558 103.024 240.581 117.544 c 0
 263.849 145.874 269.58 164.052 274.311 189.207 c 2
 338.212 529 l 1
 446.674 529 l 1
 383.042 168.52 l 2
 381.576 160.209 379.836 151.832 378.379 143.57 c 0
 375.83 129.111 374.268 115.035 375.801 103.069 c 0
 378.693 81.4863 390.394 76.125 402.875 76.125 c 0
 417.066 76.125 439.781 86.1309 463.318 118.857 c 0
 481.714 144.691 486.876 164.533 491.143 188.729 c 2
 551.212 529 l 1
 657.636 529 l 1
 589.781 160.365 l 2
 573.566 73.3809 603.797 21.3058 603.891 21.1427 c 2
 615.636 1.17379 l 1
 588.903 -0.106881 l 1
 568.403 -55.5823 521.089 -105.107 512.864 -123.99 c 2
 508.987 -132.89 l 1
 384.679 -134.284 l 1
 396.725 -111.893 l 2
 420.513 -67.6785 464.168 -27.6222 475.352 -5.54645 c 1
 472.568 -5.67989 l 1
 471.439 8.83693 l 1
EndSplineSet
EndChar

StartChar: afii10092
Encoding: 1098 1098 425
Width: 600
Flags: W
LayerCount: 2
Fore
SplineSet
218.706 427.005 m 1
 108.706 427.005 l 1
 126.867 530 l 1
 347.339 530 l 1
 310.525 332.452 l 1
 420.603 332.226 474.842 325.801 510.01 297.599 c 0
 555.141 261.405 582.233 214.533 570.324 150.613 c 0
 559.039 90.0407 456.073 0 349.552 0 c 0
 247.947 0 228.563 20.2653 159.324 31.9928 c 0
 144.636 34.4808 l 1
 218.706 427.005 l 1
293.147 237.68 m 1
 269.084 113.628 l 1
 278.176 106.325 300.943 92 346.832 92 c 0
 407.23 92 449.493 141.789 453.616 162.99 c 0
 458.138 186.239 444.125 223.34 407.061 231.091 c 0
 377.786 237.213 335.887 237.68 299.555 237.68 c 0
 293.147 237.68 l 1
EndSplineSet
EndChar

StartChar: afii10093
Encoding: 1099 1099 426
Width: 600
Flags: W
LayerCount: 2
Fore
SplineSet
59.7156 32.5231 m 0
 45.741 35.4911 l 1
 137.866 530 l 1
 247.374 530 l 1
 250.73 519.61 l 0
 252.076 515.669 252.258 511.593 251.54 507.742 c 0
 248.079 489.197 241.179 491.075 240.292 486.317 c 0
 211.525 332.097 l 1
 321.605 331.842 355.706 324.32 389.458 297.28 c 0
 436.236 259.806 450.057 212.065 438.566 150.452 c 0
 427.672 92.0416 369.166 35.4509 303.29 15.8851 c 1
 281.676 9.59771 249.159 0 199.945 0 c 0
 148.12 0 102.488 23.4387 59.7156 32.5231 c 0
194.147 237.68 m 1
 169.41 110.156 l 1
 171.351 106.429 179.743 92 223.351 92 c 0
 278.158 92 317.565 140.915 321.858 162.989 c 0
 327.067 189.773 321.181 223.84 286.51 231.091 c 0
 256.095 237.452 237.142 237.68 200.555 237.68 c 0
 194.147 237.68 l 1
462.136 -5.69884 m 1
 460.92 8.81605 l 2
 460.713 11.1815 455.27 74.9655 470.23 155.191 c 0
 540.439 530 l 1
 649.93 530 l 1
 653.289 519.618 l 0
 654.645 515.658 654.815 511.577 654.1 507.745 c 0
 650.64 489.195 643.739 491.086 642.848 486.312 c 0
 581.772 160.191 l 0
 565.462 72.7476 590.375 20.3123 590.468 20.1149 c 1
 599.635 1.11191 l 1
 462.136 -5.69884 l 1
EndSplineSet
EndChar

StartChar: afii10094
Encoding: 1100 1100 427
Width: 600
Flags: W
LayerCount: 2
Fore
SplineSet
107.715 32.5231 m 0
 93.741 35.4911 l 1
 185.866 530 l 1
 295.374 530 l 1
 298.73 519.61 l 0
 300.076 515.757 300.258 511.772 299.54 508.006 c 0
 296.079 489.874 289.179 491.71 288.292 487.058 c 0
 259.526 336.273 l 1
 301.149 336.273 l 0
 412.493 336.273 455.399 328.869 491.197 301.24 c 0
 540.19 263.427 555.182 214.966 543.647 152.343 c 0
 532.735 93.0972 472.402 35.4598 403.154 15.8876 c 0
 378.289 8.86006 333.307 0 274.704 0 c 0
 213.904 0 159.936 21.4318 107.715 32.5231 c 0
242.147 237.68 m 1
 218.662 104.141 l 1
 233.898 96.5923 259.787 85.9784 279.125 85.9502 c 0
 313.29 85.9004 333.641 86.1742 364.669 94.1428 c 0
 412.052 106.312 425.868 129.731 430.376 155.299 c 0
 435.434 183.983 429.405 221.98 389.814 230.354 c 0
 356.644 237.37 330.551 237.68 294.055 237.68 c 0
 242.147 237.68 l 1
EndSplineSet
EndChar

StartChar: afii10095
Encoding: 1101 1101 428
Width: 600
Flags: W
LayerCount: 2
Fore
SplineSet
78.7559 91.5742 m 0
 73.96 101.054 l 1
 165.184 189.5 l 1
 174.95 181.001 l 0
 190.862 167.152 181.002 148.955 181.002 148.955 c 1
 184.163 141.492 214.432 87.9531 293.728 87.9531 c 0
 378.474 87.9531 456.197 143.855 479.512 238 c 1
 238.966 238 l 5
 255.541 332 l 5
 484.199 332 l 1
 470.568 395.217 418.957 434.049 347.778 434.049 c 0
 299.145 434.049 247.971 412.486 208.388 375.102 c 0
 194.695 362.171 l 1
 140.74 441.422 l 1
 151.567 451.229 l 0
 215.149 508.821 295.541 540.028 373.44 540.028 c 0
 531.99 540.028 628.21 420.867 600.298 262.57 c 0
 572.477 104.784 434.715 -13.001 270.656 -13.001 c 0
 181.141 -13.001 111.889 26.0791 78.7559 91.5742 c 0
EndSplineSet
EndChar

StartChar: afii10096
Encoding: 1102 1102 429
Width: 600
Flags: W
LayerCount: 2
Fore
SplineSet
153.576 0 m 1
 43.1135 0 l 1
 116.904 395.856 l 1
 127.369 451.061 117.161 491.18 107.812 508.072 c 0
 97.8149 526.135 l 1
 225.074 542.462 l 1
 228.907 530.618 l 0
 230.86 525.004 244.051 486.369 233.151 428.911 c 0
 214.764 332 l 1
 268.917 332 l 1
 310.37 454.212 394.829 541.005 482.381 541.005 c 0
 488.652 541.005 494.854 540.489 500.942 539.45 c 0
 586.259 525.639 634.389 422.608 604.136 259.855 c 0
 572.806 91.3071 478.192 -14 382.882 -14 c 0
 378.212 -14 373.598 -13.723 369.056 -13.1726 c 0
 277.644 -2.71884 230.41 104.896 248.337 238 c 1
 198.187 238 l 1
 153.576 0 l 1
466.116 440.103 m 0
 443.235 440.103 393.12 386.053 369.978 265.111 c 0
 363.772 232.676 360.992 203.909 360.991 179.455 c 0
 360.989 110.833 382.741 87.9932 395.299 87.9932 c 0
 416.564 87.9932 465.893 137.571 489.636 261.653 c 0
 496.415 297.081 499.377 327.087 499.455 351.801 c 0
 499.678 422.467 476.91 440.103 466.116 440.103 c 0
EndSplineSet
EndChar

StartChar: afii10097
Encoding: 1103 1103 430
Width: 600
Flags: W
LayerCount: 2
Fore
SplineSet
181.846 0 m 1
 51.0778 0 l 1
 244.008 209.976 l 1
 228.427 215.791 217.237 223.088 205.731 232.484 c 0
 159.742 270.043 146.331 317.788 157.806 379.387 c 0
 168.638 437.527 225.941 494.725 291.928 514.229 c 0
 322.627 523.3 370.615 530 406.645 530 c 0
 438.282 530 l 0
 587.331 530 554.373 500.975 602.937 488.838 c 0
 625.551 483.186 l 1
 610.702 466.108 l 1
 608.018 462.673 596.415 437.946 591.777 413.059 c 1
 545.459 160.376 l 1
 529.143 72.8089 554.056 20.339 554.152 20.1356 c 1
 563.319 1.11257 l 1
 425.88 -5.69929 l 1
 424.785 7.38072 l 1
 424.383 11.8251 418.772 72.1828 433.969 151.951 c 0
 441.877 193.727 l 1
 362.882 193.727 l 1
 181.846 0 l 1
328.439 421.716 m 0
 285.05 411.091 275.945 391.432 271.099 366.662 c 0
 265.601 338.568 267.975 305.987 303.013 298.885 c 0
 335.708 292.258 338.08 292.32 366.79 292.32 c 0
 459.149 292.32 l 1
 479.389 396.427 l 1
 484.576 420.588 l 1
 480.937 423.261 469.701 429.055 440.905 429.055 c 0
 383.165 429.1 l 0
 358.696 429.117 359.697 429.374 328.439 421.716 c 0
EndSplineSet
EndChar

StartChar: afii10051
Encoding: 1026 1026 433
Width: 600
Flags: W
LayerCount: 2
Fore
SplineSet
218.822 620 m 1
 108.822 620 l 1
 126.984 723 l 1
 522.484 723 l 1
 504.322 620 l 1
 330.822 620 l 1
 299.862 444.414 l 1
 349.407 484.887 412.639 506.421 463.863 506.421 c 0
 524.442 506.421 612.21 486.811 631.229 420.594 c 0
 644.081 375.842 633.884 319.77 627.171 281.699 c 0
 588.781 63.9775 l 0
 579.79 12.9893 568.045 -43.6787 528.376 -98.1572 c 1
 478.918 -166.401 392.227 -202 318.883 -202 c 0
 251.279 -202 190.65 -170.942 154.461 -116.669 c 0
 148.109 -107.144 l 1
 235.15 -19.623 l 1
 245.042 -29.6113 l 0
 254.364 -39.0244 250.567 -53.0459 250.547 -53.2988 c 1
 257.604 -62.2188 290.432 -100 338.868 -100 c 0
 369.029 -100 412.221 -83.6494 431.31 -60.6924 c 1
 458.929 -29.0645 467.703 12.4521 475.009 53.8896 c 0
 514.56 278.232 l 0
 520.648 312.768 526.142 349.783 509.092 376.082 c 0
 500.551 389.255 452.648 401.235 416.421 401.235 c 0
 383.96 401.235 320.618 376.423 303.948 358.289 c 0
 291.688 344.952 279.085 312.329 273.351 294.06 c 1
 221.323 -1 l 1
 109.323 -1 l 1
 218.822 620 l 1
EndSplineSet
EndChar

StartChar: afii10053
Encoding: 1028 1028 435
Width: 600
Flags: W
LayerCount: 2
Fore
SplineSet
328.993 -12.002 m 0
 201.466 -12.002 56.4814 82.3174 104.89 356.853 c 0
 155.057 641.366 339.49 728 459.984 728 c 0
 561.775 728 643.338 668.599 668.283 576.11 c 0
 671.836 562.934 l 1
 565.408 514.615 l 1
 559.029 519.718 l 0
 548.187 528.391 551.305 542.11 551.527 543.375 c 0
 552.335 547.954 553.336 550.844 553.542 552.016 c 0
 553.866 553.851 554.069 552.765 552.423 556.852 c 0
 533.823 603.042 491.033 633.168 440.526 633.168 c 0
 361.228 633.168 272.214 563.796 230.488 428.998 c 1
 510.627 428.998 l 1
 492.289 324.998 l 1
 209.621 324.998 l 1
 193.864 167.204 263.888 87.9941 351.171 87.9941 c 0
 402.063 87.9941 460.158 117.815 499.917 168.757 c 0
 510.272 182.025 l 1
 585.742 126.621 l 1
 575.925 114.169 l 0
 514.059 35.6963 420.337 -12.002 328.993 -12.002 c 0
EndSplineSet
EndChar

StartChar: afii10058
Encoding: 1033 1033 440
Width: 600
Flags: W
LayerCount: 2
Fore
SplineSet
13.2949 40.5752 m 0
 10.0303 46.7295 l 1
 67.7822 149.074 l 1
 80.9521 129.911 l 0
 88.0498 119.585 85.4746 108.113 85.625 107.265 c 0
 85.8936 105.747 86.876 101.207 88.124 97.3232 c 1
 94.3115 116.454 100.588 142.858 103.712 155.351 c 0
 122.839 231.833 180.342 523.661 202.854 639.674 c 0
 208.797 670.305 206.854 705.455 206.854 705.455 c 0
 205.875 723 l 1
 511.556 723 l 1
 514.236 714.702 l 0
 515.471 711.111 515.737 707.156 515.031 703.149 c 0
 511.507 683.162 504.661 685.482 503.941 681.4 c 0
 460.622 435.726 l 1
 516.117 435.712 556.914 434.591 594.48 393.336 c 0
 632.451 351.642 646.625 290.605 631.925 207.234 c 0
 618.725 132.373 574.181 59.1152 506.492 23.9258 c 0
 463.087 1.36035 423.753 1 388.81 1 c 0
 273.969 1 l 1
 383.291 621 l 1
 309.073 621 l 1
 280.734 483.378 224.629 201.119 201.77 119.44 c 0
 174.723 22.7891 131.509 -8.17969 91.6611 -8.17969 c 0
 57.7012 -8.17969 29.8105 9.43359 13.2949 40.5752 c 0
446.564 355.999 m 1
 401.777 102 l 1
 411.946 102 l 0
 430.619 102 444.236 102.566 460.906 113.6 c 0
 488.176 131.65 512.229 174.914 520.886 224.01 c 0
 529.622 273.557 520.983 320.326 497.981 341.416 c 0
 483.228 354.947 467.459 355.915 446.564 355.999 c 1
EndSplineSet
EndChar

StartChar: afii10059
Encoding: 1034 1034 441
Width: 600
Flags: W
LayerCount: 2
Fore
SplineSet
130 0 m 1
 16 0 l 1
 143.308 722 l 1
 257.578 722 l 1
 260.262 713.708 l 0
 261.509 710.146 261.778 706.226 261.08 702.264 c 0
 257.592 682.479 250.744 684.775 250.031 680.731 c 0
 205.468 428 l 1
 336.636 428 l 1
 388.652 723 l 1
 498.931 723 l 1
 501.612 714.702 l 0
 502.847 711.111 503.113 707.156 502.407 703.149 c 0
 498.883 683.162 492.037 685.482 491.317 681.4 c 0
 447.998 435.727 l 1
 507.776 435.713 549.334 434.874 589.292 393.588 c 0
 629.572 351.968 645.158 290.787 630.426 207.234 c 0
 617.179 132.104 570.716 58.7715 500.161 23.7646 c 0
 454.989 1.35254 413.997 1 377.219 1 c 0
 261.345 1 l 1
 319.18 329 l 1
 188.012 329 l 1
 130 0 l 1
433.94 356 m 1
 389.153 102 l 1
 401.448 102 l 0
 421.752 102 437.321 102.624 455.703 113.939 c 0
 485.43 132.239 510.511 175.222 519.113 224.01 c 0
 527.795 273.25 517.967 319.74 492.417 341.06 c 0
 475.49 355.184 456.453 355.98 433.94 356 c 1
EndSplineSet
EndChar

StartChar: afii10060
Encoding: 1035 1035 442
Width: 600
Flags: W
LayerCount: 2
Fore
SplineSet
234.322 620 m 1
 124.322 620 l 1
 142.484 723 l 1
 537.984 723 l 1
 519.822 620 l 1
 346.322 620 l 1
 315.362 444.414 l 1
 364.907 484.887 428.139 506.421 479.363 506.421 c 0
 540.641 506.421 615.024 485.872 633.798 420.99 c 0
 646.688 376.444 636.536 320.632 629.854 282.736 c 0
 579.823 -1 l 1
 467.83 -1 l 1
 517.16 278.803 l 0
 523.221 313.179 528.684 350.022 511.612 376.199 c 0
 502.303 390.474 467.398 401.235 431.921 401.235 c 0
 399.46 401.235 336.118 376.423 319.448 358.289 c 0
 307.188 344.952 294.585 312.329 288.851 294.06 c 1
 236.823 -1 l 1
 124.823 -1 l 1
 234.322 620 l 1
EndSplineSet
EndChar

StartChar: afii10145
Encoding: 1039 1039 445
Width: 600
Flags: W
LayerCount: 2
Fore
SplineSet
250 0 m 1
 48.168 0 l 1
 175.477 722 l 1
 289.746 722 l 1
 292.43 713.708 l 0
 293.675 710.133 293.942 706.2 293.241 702.224 c 0
 289.74 682.369 282.895 684.673 282.179 680.615 c 0
 179.624 99 l 1
 461.624 99 l 1
 571.477 722 l 1
 682.975 722 l 1
 686.058 714.711 l 0
 687.696 711.051 688.146 706.879 687.399 702.644 c 0
 683.555 680.843 675.886 684.624 675.486 682.358 c 0
 555.168 0 l 1
 361 0 l 1
 331.377 -168 l 1
 220.377 -168 l 1
 250 0 l 1
EndSplineSet
EndChar

StartChar: afii10099
Encoding: 1106 1106 446
Width: 600
Flags: W
LayerCount: 2
Fore
SplineSet
208.296 600 m 1
 135.796 600 l 1
 152.019 692 l 1
 224.519 692 l 1
 238.271 770 l 1
 360.013 770 l 1
 361.68 759.831 l 0
 362.12 757.145 362.082 754.339 361.586 751.526 c 0
 359.07 737.257 346.818 729.432 346.1 728.793 c 0
 346.1 728.793 346 728.76 345.866 728 c 0
 339.519 692 l 1
 470.019 692 l 1
 453.796 600 l 1
 323.296 600 l 1
 299.407 464.521 l 1
 348.626 509.428 411.066 542.003 474.026 542.003 c 0
 540.171 542.003 593.679 506.182 611.456 444.289 c 0
 624.085 400.328 616.3 356.154 609.343 316.699 c 0
 561.046 45.6289 l 0
 553.34 1.92969 544.413 -42.5889 511.97 -88.2021 c 0
 459.598 -164.439 373.041 -202.181 293.049 -202.181 c 0
 223.204 -202.181 165.689 -173.161 133.736 -122.413 c 0
 128.019 -113.331 l 1
 215.005 -19.4268 l 1
 225.36 -29.4326 l 0
 236.805 -40.4902 234.133 -54.0146 234.31 -54.4189 c 0
 236.205 -58.7715 260.088 -100.016 316.381 -100.016 c 0
 355.854 -100.016 395.502 -79.377 419.455 -41.9336 c 0
 435.379 -18.1143 441.979 5.55664 446.546 31.4531 c 0
 496.506 311.952 l 0
 502.781 347.544 508.463 385.698 488.945 413.085 c 0
 476.068 431.153 455.829 439.58 433.351 439.58 c 0
 385.372 439.58 330.119 399.709 307.142 376.214 c 0
 283.067 351.598 276.014 331.845 270.319 299.556 c 0
 217.5 0 l 1
 102.5 0 l 1
 208.296 600 l 1
EndSplineSet
EndChar

StartChar: afii10101
Encoding: 1108 1108 448
Width: 600
Flags: W
LayerCount: 2
Fore
SplineSet
286.077 -9.01866 m 0
 154.478 12.6742 80.6323 125.954 106.991 267.69 c 0
 136.165 424.575 272.877 540.028 436.272 540.028 c 0
 525.754 540.028 596.471 500.682 630.322 433.771 c 0
 635.307 423.918 l 1
 546.317 337.638 l 1
 535.922 346.686 l 0
 519.23 361.215 528.818 380.312 528.818 380.312 c 1
 524.461 389.679 495.181 439.074 418.49 439.074 c 0
 346.254 439.074 277.514 399.358 242.647 332 c 1
 495.773 332 l 1
 479.196 238 l 1
 220.152 238 l 1
 219.956 234.53 219.855 231.189 219.842 227.85 c 0
 219.503 144.659 273.023 92.9785 353.86 92.9785 c 0
 403.498 92.9785 486.576 116.526 525.095 152.905 c 0
 537.889 164.989 l 1
 593.268 83.6482 l 1
 583.59 74.8825 l 0
 519.442 16.7783 410.712 -13.001 333.487 -13.001 c 0
 317.05 -13.001 301.218 -11.651 286.077 -9.01866 c 0
EndSplineSet
EndChar

StartChar: afii10106
Encoding: 1113 1113 453
Width: 600
Flags: W
LayerCount: 2
Fore
SplineSet
11.4955 41.4957 m 0
 7.95592 48.1675 l 1
 64.9565 146.512 l 1
 78.6309 126.686 l 0
 86.5039 115.271 83.5285 103.59 83.565 103.377 c 0
 83.7358 102.385 84.8234 97.4512 85.459 95.3318 c 1
 92.5336 115.8 99.0119 142.247 102.464 155.477 c 0
 114.733 202.488 115.701 210.08 141.278 328.748 c 0
 154.286 389.106 182.044 436.059 213.502 471.62 c 0
 246.29 508.687 294.608 530 329.604 530 c 0
 443.256 530 419.777 501.246 469.439 488.833 c 0
 492.053 483.181 l 1
 477.203 466.099 l 1
 474.486 462.625 462.859 437.974 458.281 413.051 c 0
 443.303 331.497 l 1
 529.27 331.09 557.611 322.767 585.128 295.656 c 0
 623.628 257.722 633.3 210.564 621.954 149.667 c 0
 611.232 92.1142 531.675 0 448.687 0 c 0
 382.609 0 351.534 20.3091 289.99 32.1063 c 0
 275.671 34.8511 l 1
 351.848 435.441 l 1
 351.898 435.616 347.993 438.055 336.918 438.055 c 0
 307.917 438.055 260.979 376.466 247.041 312.31 c 0
 219.165 184.004 215.509 167.597 199.993 114.756 c 0
 172.189 20.0653 130.332 -8.17969 91.6611 -8.17969 c 0
 57.4946 -8.17969 28.3214 9.78092 11.4955 41.4957 c 0
425.948 236.68 m 1
 400.746 108.155 l 1
 401.418 97.1111 414.2 92 432 92 c 0
 482.045 92 510.408 137.388 515.205 162.038 c 0
 520.732 190.439 515.137 223.976 490.86 230.272 c 0
 466.562 236.574 455.623 236.68 428.177 236.68 c 0
 425.948 236.68 l 1
EndSplineSet
EndChar

StartChar: afii10107
Encoding: 1114 1114 454
Width: 600
Flags: W
LayerCount: 2
Fore
SplineSet
126.754 0 m 1
 12.2706 0 l 1
 86.2356 394.178 l 0
 96.6859 449.296 86.4115 491.326 77.1402 508.078 c 0
 67.0803 526.254 l 1
 198.925 542.393 l 1
 202.735 530.618 l 0
 204.821 524.603 217.059 486.146 206.184 428.627 c 0
 186.334 323 l 1
 315.509 323 l 1
 354.423 528.7 l 1
 367.01 528.7 l 0
 394.011 528.7 421.009 528.67 448.011 528.67 c 0
 464.927 528.664 l 1
 468.282 518.278 l 0
 469.629 514.425 469.807 510.422 469.091 506.68 c 0
 465.601 488.366 458.765 490.577 457.899 486.038 c 0
 429.136 335.273 l 1
 430.51 335.273 l 0
 519.889 335.273 556.327 327.713 585.128 299.013 c 0
 623.628 260.649 633.3 212.955 621.954 151.366 c 0
 611.608 95.2015 579.037 50.5142 535.066 21.2363 c 0
 520.146 11.3018 491.906 0 418.346 0 c 0
 341.997 0 335.311 20.7876 276.109 32.152 c 0
 261.836 34.892 l 1
 297.083 224 l 1
 168.897 224 l 1
 126.754 0 l 1
411.76 236.68 m 1
 387.163 109.711 l 1
 394.173 102.51 426.753 92 451.783 92 c 0
 476.962 92 510.196 136.299 515.205 162.038 c 0
 520.732 190.439 515.137 223.976 490.86 230.272 c 0
 467.843 236.242 441.181 236.68 413.963 236.68 c 0
 411.76 236.68 l 1
EndSplineSet
EndChar

StartChar: afii10108
Encoding: 1115 1115 455
Width: 600
Flags: W
LayerCount: 2
Fore
SplineSet
347.783 725.395 m 2
 341.894 692 l 1
 472.896 692 l 1
 456.672 600 l 1
 325.673 600 l 1
 302.187 466.807 l 1
 351.488 511.114 411.333 542.003 473.526 542.003 c 0
 539.852 542.003 594.855 505.695 612.489 442.921 c 0
 624.898 398.748 616.646 355.012 609.373 315.934 c 2
 580.456 160.552 l 2
 564.275 73.6056 590.099 21.277 590.519 20.4277 c 2
 600.337 1.10065 l 1
 458.879 -5.67533 l 1
 457.669 8.75826 l 2
 457.452 11.214 452.01 74.195 466.972 153.524 c 2
 497.476 315.262 l 2
 504.193 350.869 509.807 388.602 491.483 414.538 c 0
 479.585 431.378 460.647 439.58 438.141 439.58 c 0
 389.799 439.58 332.732 398.952 309.116 375.098 c 0
 284.038 349.767 276.633 329.401 270.551 297.118 c 2
 214.587 0 l 1
 99.1237 0 l 1
 210.21 600 l 1
 138.209 600 l 1
 154.433 692 l 1
 226.431 692 l 1
 240.184 770 l 1
 361.508 770 l 1
 363.573 757.432 l 2
 364.049 754.531 363.986 751.66 363.503 748.922 c 0
 361.123 735.417 350.46 729.071 349.148 727.904 c 0
 348.297 727.147 348.072 726.826 348.072 726.826 c 2
 348.013 726.602 347.918 726.16 347.783 725.395 c 2
EndSplineSet
EndChar

StartChar: afii10193
Encoding: 1119 1119 458
Width: 600
Flags: W
LayerCount: 2
Fore
SplineSet
261.096 -12.948 m 1
 187.607 -11.1795 125.342 28.4741 105.281 99.7734 c 0
 91.2729 147.134 100.278 194.288 108.497 237.702 c 0
 138.408 395.712 l 0
 148.864 450.948 138.658 491.147 129.312 508.054 c 0
 119.251 526.254 l 1
 251.097 542.393 l 1
 254.907 530.618 l 0
 256.861 524.959 270.047 486.029 259.151 428.131 c 0
 223.033 236.215 l 0
 216.641 202.255 210.49 166.58 221.402 136.255 c 1
 233.087 102.431 260.627 85 296.698 85 c 0
 341.225 85 390.704 113.843 420.288 152.236 c 0
 442.354 180.871 450.063 206.932 457.194 244.807 c 0
 510.69 529 l 1
 625.153 529 l 1
 556.457 160.35 l 0
 540.419 74.2867 573.261 22.5084 573.777 21.6947 c 1
 587.104 1.2332 l 1
 445.221 -5.56313 l 1
 442.569 4.45734 l 1
 441.119 9.93217 437.526 23.9523 436.33 59.1724 c 1
 419.142 44.7244 402.354 33.3272 384.598 23.2344 c 1
 384.021 19.0307 383.418 15.565 382.55 11.3199 c 0
 370.28 -48.723 311.069 -105.239 302.901 -123.99 c 0
 299.024 -132.89 l 1
 174.716 -134.284 l 1
 186.763 -111.893 l 0
 208.193 -72.0609 245.945 -36.1605 261.096 -12.948 c 1
EndSplineSet
EndChar

StartChar: afii10050
Encoding: 1168 1168 459
Width: 600
Flags: W
LayerCount: 2
Fore
SplineSet
171.21 0 m 1
 63 0 l 1
 190.484 723 l 1
 551.484 723 l 1
 585.691 917 l 1
 697.691 917 l 1
 645.499 621 l 1
 279.499 621 l 1
 184.638 83.0137 l 1
 180.037 56.459 177.911 41.4229 173.557 14.5078 c 0
 171.21 0 l 1
EndSplineSet
EndChar

StartChar: afii10098
Encoding: 1169 1169 460
Width: 600
Flags: W
LayerCount: 2
Fore
SplineSet
195.086 0 m 1
 82.6237 0 l 1
 181.544 531 l 1
 447.807 531 l 0
 474.602 531 502.383 568.85 507.246 596.43 c 1
 520.917 668.285 l 1
 655.197 676.214 l 1
 643.377 652.914 l 0
 643.377 652.914 622.601 611.392 617.977 585.168 c 0
 607.631 526.491 575.061 479.804 531.089 449.216 c 0
 515.823 438.597 487.748 428 414.369 428 c 0
 275.844 428 l 1
 195.086 0 l 1
EndSplineSet
EndChar

StartChar: afii10084.mkd
Encoding: 65548 -1 465
Width: 600
Flags: W
LayerCount: 2
Fore
SplineSet
198.204 625 m 1
 214.955 720 l 1
 638.955 720 l 1
 622.204 625 l 1
 198.204 625 l 1
EndSplineSet
Refer: 423 1096 N 1 0 0 1 0 0 2
EndChar

StartChar: afii61352
Encoding: 8470 8470 467
Width: 600
Flags: W
LayerCount: 2
Fore
SplineSet
424.433 324.869 m 0
 447.697 456.809 508.219 555.011 570.612 555.011 c 0
 625.552 555.011 655.787 477.267 631.363 338.756 c 0
 605.009 189.29 544.096 110.94 488.492 110.94 c 0
 428.894 110.94 402.251 199.071 424.433 324.869 c 0
552.654 470 m 0
 547.813 470 518.652 434.156 500.324 330.214 c 0
 482.568 229.515 500.024 197.925 504.747 197.925 c 0
 508.878 197.925 537.315 226.881 555.535 330.207 c 0
 573.778 433.669 557.622 470 552.654 470 c 0
355.093 0 m 1
 367.965 73 l 1
 601.877 73 l 1
 589.005 0 l 1
 355.093 0 l 1
118.005 0 m 1
 20.0049 0 l 1
 147.312 722 l 1
 243.994 722 l 1
 280.916 314.252 l 1
 353.166 724 l 1
 457.883 724 l 1
 457.55 715.364 l 0
 457.148 704.982 451.185 697.039 449.448 694.566 c 0
 445.424 688.834 445.052 689.329 443.937 683 c 0
 323.505 0 l 1
 241.909 0 l 1
 192.914 424.831 l 1
 118.005 0 l 1
EndSplineSet
EndChar

StartChar: Hbar
Encoding: 294 294 468
Width: 600
Flags: W
LayerCount: 2
Fore
SplineSet
168.887 628.871 m 1
 185.308 722 l 1
 299.576 722 l 1
 302.262 713.711 l 0
 303.478 709.959 303.709 705.831 302.974 701.663 c 0
 299.303 680.84 292.477 683.256 291.726 679 c 0
 282.204 625.001 l 1
 535.204 625.001 l 1
 552.309 722 l 1
 663.806 722 l 1
 666.889 714.711 l 0
 668.528 711.054 668.978 706.877 668.23 702.643 c 0
 664.387 680.841 656.718 684.623 656.317 682.356 c 0
 646.841 628.61 l 1
 695.841 628.61 l 1
 680.271 540.312 l 1
 631.271 540.312 l 1
 535.823 -1 l 1
 423.823 -1 l 1
 482.012 329 l 1
 230.012 329 l 1
 172 0 l 1
 58 0 l 1
 153.312 540.541 l 1
 110.312 540.541 l 1
 125.887 628.871 l 1
 168.887 628.871 l 1
500.468 428 m 1
 521.627 548.001 l 1
 268.627 548.001 l 1
 247.468 428 l 1
 500.468 428 l 1
EndSplineSet
EndChar

StartChar: Tbar
Encoding: 358 358 491
Width: 600
Flags: W
LayerCount: 2
Fore
SplineSet
140.322 620 m 1
 158.484 723 l 1
 688.484 723 l 1
 670.322 620 l 1
 457.322 620 l 1
 424.702 435 l 1
 588.702 435 l 1
 571.951 340 l 1
 407.951 340 l 1
 347.823 -1 l 1
 235.823 -1 l 1
 295.951 340 l 1
 143.951 340 l 1
 160.702 435 l 1
 312.702 435 l 1
 345.322 620 l 1
 140.322 620 l 1
EndSplineSet
EndChar

StartChar: tbar
Encoding: 359 359 497
Width: 600
Flags: W
LayerCount: 2
Fore
SplineSet
297.296 529 m 1
 331.81 668.873 l 1
 448.713 687.599 l 1
 451.915 677.708 l 0
 453.766 671.989 452.577 666.811 452.258 665 c 0
 449.486 649.282 440.649 640.986 439.139 637.328 c 1
 431.51 614.823 416.079 557.425 408.812 530 c 1
 580.453 530 l 1
 562.997 431 l 1
 387.604 431 l 1
 378.32 398.387 370.37 366.324 363.518 335 c 1
 521.071 335 l 1
 504.32 240 l 1
 345.354 240 l 1
 335.462 181.894 335.336 168.337 334.45 161.491 c 1
 333.96 111.526 364.57 97 397.104 97 c 0
 425.605 97 466.227 110.304 515.185 142.096 c 0
 532.908 153.604 l 1
 553.551 58.7412 l 1
 543.022 51.9043 l 0
 489.885 17.3975 421.343 -10 354.236 -10 c 0
 296.298 -10 252.997 11.5557 231.37 48.793 c 1
 205.071 94.8906 215.241 148.82 223.001 192.83 c 0
 225.762 208.486 228.771 224.711 231.722 240 c 1
 124.319 240 l 1
 141.07 335 l 1
 251.354 335 l 1
 258.859 367.981 266.425 398.746 274.829 431 c 1
 151.774 431 l 1
 170.496 529 l 1
 297.296 529 l 1
EndSplineSet
EndChar

StartChar: Uogonek
Encoding: 370 370 505
Width: 600
Flags: W
LayerCount: 2
Fore
SplineSet
97.6348 253.135 m 2
 180.308 722 l 1
 296.181 722 l 1
 298.486 712.932 l 2
 299.464 709.374 299.607 705.548 298.927 701.688 c 0
 296.613 688.566 286.472 680.441 284.375 678.167 c 0
 281.354 674.888 282.251 676.308 281.484 671.96 c 2
 207.948 254.914 l 2
 201.922 220.739 197.402 190.121 207.033 159.415 c 0
 221.948 111.861 266.159 85.9209 318.218 85.9209 c 0
 369.405 85.9209 422.594 111.258 454.936 158.647 c 0
 476.617 190.417 483.197 222.298 489.473 257.889 c 2
 571.309 722 l 1
 678.309 722 l 1
 596.312 256.979 l 2
 587.346 206.129 576.868 154.815 538.417 102.926 c 0
 529.209 90.5 520.088 79.4277 509.263 69.0381 c 1
 509.263 69.0381 509.215 69.0195 509.167 69 c 0
 506.056 66.3125 502.943 63.625 499.832 60.9385 c 0
 498.37 59.6484 496.896 58.376 495.412 57.1201 c 2
 417.164 -10.4639 l 1
 372.845 -42.2617 339.268 -71.0215 327.753 -81.1064 c 0
 318.142 -89.5234 306.249 -100.944 303.921 -114.147 c 0
 301.544 -127.628 309.688 -138.797 327.474 -138.797 c 0
 333.696 -138.797 341.773 -137.343 354.345 -133.041 c 0
 372.879 -126.698 385.232 -119.132 393.177 -113.382 c 2
 404.446 -105.226 l 1
 392.365 -173.74 l 1
 389.978 -175.534 l 2
 362.195 -196.419 330.703 -204.002 300.93 -204.002 c 0
 238.632 -204.002 209.795 -171.589 216.883 -131.394 c 0
 223.108 -96.084 258.911 -55.416 318.152 -12.4873 c 1
 311.8 -12.8779 305.463 -13.0732 299.156 -13.0732 c 0
 209.711 -13.0732 130.578 25.4688 100.99 102.388 c 0
 81.3203 153.525 88.9736 204.017 97.6348 253.135 c 2
EndSplineSet
EndChar

StartChar: IJ
Encoding: 306 306 521
Width: 600
Flags: W
LayerCount: 2
Fore
SplineSet
300.41 -1 m 1
 11.9469 -1 l 1
 29.227 97 l 1
 107.227 97 l 1
 205.441 624 l 1
 135.441 624 l 1
 152.721 722 l 1
 730.185 722 l 1
 712.905 624 l 1
 641.905 624 l 1
 539.528 66.7514 l 0
 530.378 16.9442 520.393 -38.7264 480.893 -91.7644 c 1
 433.201 -157.572 360.766 -194 286.793 -194 c 0
 219.158 -194 157.339 -162.69 120.419 -107.322 c 0
 113.615 -97.1184 l 1
 198.558 -11.706 l 1
 209.194 -22.4447 l 0
 219.302 -32.6513 215.758 -46.1099 215.633 -47.2699 c 1
 223.937 -57.5644 255.047 -92 301.488 -92 c 0
 330.556 -92 361.554 -77.2792 383.121 -51.3432 c 1
 411.778 -19.1124 420.631 22.2902 428.152 63.1308 c 0
 531.442 624 l 1
 316.904 624 l 1
 218.514 96 l 1
 317.514 96 l 1
 300.41 -1 l 1
EndSplineSet
EndChar

StartChar: ij
Encoding: 307 307 522
Width: 600
Flags: W
LayerCount: 2
Fore
SplineSet
500.411 431 m 1
 333.874 431 l 1
 283.012 166.721 l 1
 281.12 155.269 279.307 142.715 279.268 132.495 c 0
 279.188 110.863 283.187 103 302.804 103 c 0
 325.495 103 331.152 106.838 362.733 108.966 c 0
 382.225 110.28 l 1
 360.568 0 l 1
 308.952 0 l 0
 271.713 0 232.976 0.963768 205.235 19.3776 c 1
 161.368 47.8568 157.137 100.823 168.559 161.396 c 0
 219.587 432 l 1
 100.587 432 l 1
 117.867 530 l 1
 632.329 530 l 1
 542.297 42.9661 l 0
 534.217 -0.741761 524.857 -44.992 492.533 -89.8743 c 0
 441.144 -164.68 356.088 -202.181 276.049 -202.181 c 0
 206.237 -202.181 147.467 -172.975 114.736 -120.992 c 0
 108.603 -111.251 l 1
 193.532 -19.5683 l 1
 204.549 -30.2127 l 0
 217.998 -43.2074 214.241 -56.2578 214.241 -56.2578 c 0
 215.795 -59.8249 238.288 -100.016 294.091 -100.016 c 0
 333.634 -100.016 374.862 -78.9391 399.672 -40.1572 c 0
 415.926 -16.2697 420.956 7.36998 425.931 33.8899 c 0
 500.411 431 l 1
300.5 612.053 m 0
 264.734 618.257 242.407 652.264 249.004 689.682 c 0
 256.081 729.814 293.185 760 333.999 760 c 0
 338.277 760 342.461 759.642 346.513 758.939 c 0
 382.277 752.736 404.824 719.85 398.305 682.882 c 0
 391.23 642.754 353.833 610.992 313.015 610.992 c 0
 308.736 610.992 304.552 611.35 300.5 612.053 c 0
580.5 612.053 m 0
 544.734 618.257 522.407 652.264 529.004 689.682 c 0
 536.081 729.814 573.185 760 613.999 760 c 0
 618.277 760 622.461 759.642 626.513 758.939 c 0
 662.277 752.736 684.824 719.85 678.305 682.882 c 0
 671.23 642.754 633.833 610.992 593.015 610.992 c 0
 588.736 610.992 584.552 611.35 580.5 612.053 c 0
EndSplineSet
EndChar

StartChar: napostrophe
Encoding: 329 329 525
Width: 600
Flags: W
LayerCount: 2
Fore
SplineSet
277.587 0 m 1
 162.124 0 l 1
 230.822 368.593 l 0
 243.806 438.26 236.301 489.449 225.989 508.078 c 0
 215.925 526.26 l 1
 348.033 542.389 l 1
 351.842 530.618 l 0
 354.426 522.631 357.493 499.581 356.181 459.585 c 1
 397.255 503.006 443.757 541.198 515.357 542.002 c 0
 582.064 542.712 636.886 505.584 654.49 442.922 c 0
 666.898 398.749 658.648 355.01 651.373 315.934 c 0
 622.457 160.551 l 0
 606.276 73.6066 632.101 21.2733 632.517 20.4319 c 1
 642.337 1.10065 l 1
 500.879 -5.67534 l 1
 499.671 8.74792 l 0
 499.606 9.46703 493.817 73.1698 508.972 153.524 c 0
 539.476 315.262 l 0
 546.192 350.87 551.808 388.6 533.482 414.538 c 0
 521.585 431.378 502.646 439.58 480.142 439.58 c 0
 432.786 439.58 398.197 401.441 372.116 375.097 c 0
 347.038 349.766 339.633 329.401 333.55 297.118 c 0
 277.587 0 l 1
EndSplineSet
Refer: 56 8217 N 1 0 0 1 -190 0 2
EndChar

StartChar: longs
Encoding: 383 383 532
Width: 600
Flags: W
LayerCount: 2
Fore
SplineSet
260.963 -168 m 1
 150.501 -168 l 1
 280.207 537.605 l 0
 288.547 584.895 298.923 632.347 336.031 679.32 c 0
 386.818 743.367 466.857 777 545.006 777 c 0
 615.888 777 673.815 749.074 706.889 698.173 c 0
 712.281 689.874 l 1
 650.74 598 l 1
 642.733 598 l 0
 631.787 598 618.925 609.009 620.494 624.219 c 1
 620.546 626.732 620.731 628.521 620.731 628.521 c 1
 620.217 629.611 l 0
 606.75 658.223 575.048 682 529.545 682 c 0
 490.014 682 450.108 664.068 424.174 629.043 c 1
 402.833 600.504 395.8 566.746 389.644 531.829 c 0
 389.031 528.351 388.424 524.866 387.812 521.395 c 0
 260.963 -168 l 1
EndSplineSet
EndChar

StartChar: endash
Encoding: 8211 8211 547
Width: 600
Flags: W
LayerCount: 2
Fore
SplineSet
165.482 326 m 1
 184.35 433 l 1
 568.35 433 l 1
 549.482 326 l 1
 165.482 326 l 1
EndSplineSet
EndChar

StartChar: emdash
Encoding: 8212 8212 548
Width: 600
Flags: W
LayerCount: 2
Fore
SplineSet
96.0029 326 m 1
 114.87 433 l 1
 646.87 433 l 1
 628.003 326 l 1
 96.0029 326 l 1
EndSplineSet
EndChar

StartChar: afii00208
Encoding: 8213 8213 549
Width: 600
Flags: W
LayerCount: 2
Fore
SplineSet
42.4824 326 m 1
 61.3496 433 l 1
 691.35 433 l 1
 672.482 326 l 1
 42.4824 326 l 1
EndSplineSet
EndChar

StartChar: quotereversed
Encoding: 8219 8219 551
Width: 600
Flags: W
LayerCount: 2
Fore
SplineSet
389.193 429.475 m 0
 320.81 505.113 287.646 576.466 298.436 637.653 c 0
 309.05 697.849 361 738.93 411.773 738.93 c 0
 458.421 738.93 487.481 704.951 480.693 666.451 c 0
 474.461 631.11 442.327 615.188 431.635 609.435 c 0
 419.843 603.088 409.075 597.466 406.656 583.751 c 0
 404.515 571.601 411.189 555.608 415.247 547.566 c 0
 423.287 531.632 437.777 507.417 460.009 486.041 c 0
 470.319 474.722 l 1
 397.34 419.399 l 1
 389.193 429.475 l 0
EndSplineSet
EndChar

